%TF.GenerationSoftware,KiCad,Pcbnew,6.0.7*%
%TF.CreationDate,2022-09-21T21:00:50-05:00*%
%TF.ProjectId,keyboardPCBv2,6b657962-6f61-4726-9450-434276322e6b,rev?*%
%TF.SameCoordinates,Original*%
%TF.FileFunction,Legend,Top*%
%TF.FilePolarity,Positive*%
%FSLAX46Y46*%
G04 Gerber Fmt 4.6, Leading zero omitted, Abs format (unit mm)*
G04 Created by KiCad (PCBNEW 6.0.7) date 2022-09-21 21:00:50*
%MOMM*%
%LPD*%
G01*
G04 APERTURE LIST*
G04 Aperture macros list*
%AMRoundRect*
0 Rectangle with rounded corners*
0 $1 Rounding radius*
0 $2 $3 $4 $5 $6 $7 $8 $9 X,Y pos of 4 corners*
0 Add a 4 corners polygon primitive as box body*
4,1,4,$2,$3,$4,$5,$6,$7,$8,$9,$2,$3,0*
0 Add four circle primitives for the rounded corners*
1,1,$1+$1,$2,$3*
1,1,$1+$1,$4,$5*
1,1,$1+$1,$6,$7*
1,1,$1+$1,$8,$9*
0 Add four rect primitives between the rounded corners*
20,1,$1+$1,$2,$3,$4,$5,0*
20,1,$1+$1,$4,$5,$6,$7,0*
20,1,$1+$1,$6,$7,$8,$9,0*
20,1,$1+$1,$8,$9,$2,$3,0*%
G04 Aperture macros list end*
%ADD10C,0.160000*%
%ADD11C,0.150000*%
%ADD12C,0.120000*%
%ADD13C,0.250000*%
%ADD14RoundRect,0.297500X-0.237500X0.250000X-0.237500X-0.250000X0.237500X-0.250000X0.237500X0.250000X0*%
%ADD15RoundRect,0.210000X-0.587500X-0.150000X0.587500X-0.150000X0.587500X0.150000X-0.587500X0.150000X0*%
%ADD16RoundRect,0.235000X0.625000X0.175000X-0.625000X0.175000X-0.625000X-0.175000X0.625000X-0.175000X0*%
%ADD17RoundRect,0.460000X0.400000X0.500000X-0.400000X0.500000X-0.400000X-0.500000X0.400000X-0.500000X0*%
%ADD18RoundRect,0.460000X0.800000X0.400000X-0.800000X0.400000X-0.800000X-0.400000X0.800000X-0.400000X0*%
%ADD19RoundRect,0.410000X0.350000X0.550000X-0.350000X0.550000X-0.350000X-0.550000X0.350000X-0.550000X0*%
%ADD20RoundRect,0.297500X0.237500X-0.250000X0.237500X0.250000X-0.237500X0.250000X-0.237500X-0.250000X0*%
%ADD21RoundRect,0.060000X-0.800000X0.800000X-0.800000X-0.800000X0.800000X-0.800000X0.800000X0.800000X0*%
%ADD22C,1.720000*%
%ADD23O,3.620000X2.120000*%
%ADD24O,2.120000X4.120000*%
%ADD25RoundRect,0.060000X0.850000X-0.850000X0.850000X0.850000X-0.850000X0.850000X-0.850000X-0.850000X0*%
%ADD26O,1.820000X1.820000*%
G04 APERTURE END LIST*
D10*
X50200000Y-51000000D02*
X50400000Y-51000000D01*
X35766666Y-32404761D02*
X35909523Y-32452380D01*
X36147619Y-32452380D01*
X36242857Y-32404761D01*
X36290476Y-32357142D01*
X36338095Y-32261904D01*
X36338095Y-32166666D01*
X36290476Y-32071428D01*
X36242857Y-32023809D01*
X36147619Y-31976190D01*
X35957142Y-31928571D01*
X35861904Y-31880952D01*
X35814285Y-31833333D01*
X35766666Y-31738095D01*
X35766666Y-31642857D01*
X35814285Y-31547619D01*
X35861904Y-31500000D01*
X35957142Y-31452380D01*
X36195238Y-31452380D01*
X36338095Y-31500000D01*
X37195238Y-32404761D02*
X37100000Y-32452380D01*
X36909523Y-32452380D01*
X36814285Y-32404761D01*
X36766666Y-32357142D01*
X36719047Y-32261904D01*
X36719047Y-31976190D01*
X36766666Y-31880952D01*
X36814285Y-31833333D01*
X36909523Y-31785714D01*
X37100000Y-31785714D01*
X37195238Y-31833333D01*
X37623809Y-32452380D02*
X37623809Y-31785714D01*
X37623809Y-31976190D02*
X37671428Y-31880952D01*
X37719047Y-31833333D01*
X37814285Y-31785714D01*
X37909523Y-31785714D01*
X38623809Y-32404761D02*
X38528571Y-32452380D01*
X38338095Y-32452380D01*
X38242857Y-32404761D01*
X38195238Y-32309523D01*
X38195238Y-31928571D01*
X38242857Y-31833333D01*
X38338095Y-31785714D01*
X38528571Y-31785714D01*
X38623809Y-31833333D01*
X38671428Y-31928571D01*
X38671428Y-32023809D01*
X38195238Y-32119047D01*
X39480952Y-32404761D02*
X39385714Y-32452380D01*
X39195238Y-32452380D01*
X39100000Y-32404761D01*
X39052380Y-32309523D01*
X39052380Y-31928571D01*
X39100000Y-31833333D01*
X39195238Y-31785714D01*
X39385714Y-31785714D01*
X39480952Y-31833333D01*
X39528571Y-31928571D01*
X39528571Y-32023809D01*
X39052380Y-32119047D01*
X39957142Y-31785714D02*
X39957142Y-32452380D01*
X39957142Y-31880952D02*
X40004761Y-31833333D01*
X40100000Y-31785714D01*
X40242857Y-31785714D01*
X40338095Y-31833333D01*
X40385714Y-31928571D01*
X40385714Y-32452380D01*
X68014285Y-34247619D02*
X68061904Y-34200000D01*
X68157142Y-34152380D01*
X68395238Y-34152380D01*
X68490476Y-34200000D01*
X68538095Y-34247619D01*
X68585714Y-34342857D01*
X68585714Y-34438095D01*
X68538095Y-34580952D01*
X67966666Y-35152380D01*
X68585714Y-35152380D01*
X72038095Y-47400000D02*
X71942857Y-47352380D01*
X71800000Y-47352380D01*
X71657142Y-47400000D01*
X71561904Y-47495238D01*
X71514285Y-47590476D01*
X71466666Y-47780952D01*
X71466666Y-47923809D01*
X71514285Y-48114285D01*
X71561904Y-48209523D01*
X71657142Y-48304761D01*
X71800000Y-48352380D01*
X71895238Y-48352380D01*
X72038095Y-48304761D01*
X72085714Y-48257142D01*
X72085714Y-47923809D01*
X71895238Y-47923809D01*
X72514285Y-48352380D02*
X72514285Y-47352380D01*
X73085714Y-48352380D01*
X73085714Y-47352380D01*
X73561904Y-48352380D02*
X73561904Y-47352380D01*
X73800000Y-47352380D01*
X73942857Y-47400000D01*
X74038095Y-47495238D01*
X74085714Y-47590476D01*
X74133333Y-47780952D01*
X74133333Y-47923809D01*
X74085714Y-48114285D01*
X74038095Y-48209523D01*
X73942857Y-48304761D01*
X73800000Y-48352380D01*
X73561904Y-48352380D01*
D11*
X42385714Y-34204761D02*
X42528571Y-34252380D01*
X42766666Y-34252380D01*
X42861904Y-34204761D01*
X42909523Y-34157142D01*
X42957142Y-34061904D01*
X42957142Y-33966666D01*
X42909523Y-33871428D01*
X42861904Y-33823809D01*
X42766666Y-33776190D01*
X42576190Y-33728571D01*
X42480952Y-33680952D01*
X42433333Y-33633333D01*
X42385714Y-33538095D01*
X42385714Y-33442857D01*
X42433333Y-33347619D01*
X42480952Y-33300000D01*
X42576190Y-33252380D01*
X42814285Y-33252380D01*
X42957142Y-33300000D01*
X43385714Y-34252380D02*
X43385714Y-33252380D01*
X43623809Y-33252380D01*
X43766666Y-33300000D01*
X43861904Y-33395238D01*
X43909523Y-33490476D01*
X43957142Y-33680952D01*
X43957142Y-33823809D01*
X43909523Y-34014285D01*
X43861904Y-34109523D01*
X43766666Y-34204761D01*
X43623809Y-34252380D01*
X43385714Y-34252380D01*
X44338095Y-33966666D02*
X44814285Y-33966666D01*
X44242857Y-34252380D02*
X44576190Y-33252380D01*
X44909523Y-34252380D01*
D10*
X71909523Y-40152380D02*
X71433333Y-40152380D01*
X71385714Y-40628571D01*
X71433333Y-40580952D01*
X71528571Y-40533333D01*
X71766666Y-40533333D01*
X71861904Y-40580952D01*
X71909523Y-40628571D01*
X71957142Y-40723809D01*
X71957142Y-40961904D01*
X71909523Y-41057142D01*
X71861904Y-41104761D01*
X71766666Y-41152380D01*
X71528571Y-41152380D01*
X71433333Y-41104761D01*
X71385714Y-41057142D01*
X72242857Y-40152380D02*
X72576190Y-41152380D01*
X72909523Y-40152380D01*
X66957142Y-54052380D02*
X66957142Y-53052380D01*
X67338095Y-53052380D01*
X67433333Y-53100000D01*
X67480952Y-53147619D01*
X67528571Y-53242857D01*
X67528571Y-53385714D01*
X67480952Y-53480952D01*
X67433333Y-53528571D01*
X67338095Y-53576190D01*
X66957142Y-53576190D01*
X67909523Y-54004761D02*
X68052380Y-54052380D01*
X68290476Y-54052380D01*
X68385714Y-54004761D01*
X68433333Y-53957142D01*
X68480952Y-53861904D01*
X68480952Y-53766666D01*
X68433333Y-53671428D01*
X68385714Y-53623809D01*
X68290476Y-53576190D01*
X68100000Y-53528571D01*
X68004761Y-53480952D01*
X67957142Y-53433333D01*
X67909523Y-53338095D01*
X67909523Y-53242857D01*
X67957142Y-53147619D01*
X68004761Y-53100000D01*
X68100000Y-53052380D01*
X68338095Y-53052380D01*
X68480952Y-53100000D01*
X68861904Y-53147619D02*
X68909523Y-53100000D01*
X69004761Y-53052380D01*
X69242857Y-53052380D01*
X69338095Y-53100000D01*
X69385714Y-53147619D01*
X69433333Y-53242857D01*
X69433333Y-53338095D01*
X69385714Y-53480952D01*
X68814285Y-54052380D01*
X69433333Y-54052380D01*
X70623809Y-54052380D02*
X70623809Y-53052380D01*
X71004761Y-53052380D01*
X71100000Y-53100000D01*
X71147619Y-53147619D01*
X71195238Y-53242857D01*
X71195238Y-53385714D01*
X71147619Y-53480952D01*
X71100000Y-53528571D01*
X71004761Y-53576190D01*
X70623809Y-53576190D01*
X71766666Y-54052380D02*
X71671428Y-54004761D01*
X71623809Y-53957142D01*
X71576190Y-53861904D01*
X71576190Y-53576190D01*
X71623809Y-53480952D01*
X71671428Y-53433333D01*
X71766666Y-53385714D01*
X71909523Y-53385714D01*
X72004761Y-53433333D01*
X72052380Y-53480952D01*
X72100000Y-53576190D01*
X72100000Y-53861904D01*
X72052380Y-53957142D01*
X72004761Y-54004761D01*
X71909523Y-54052380D01*
X71766666Y-54052380D01*
X72528571Y-54052380D02*
X72528571Y-53385714D01*
X72528571Y-53576190D02*
X72576190Y-53480952D01*
X72623809Y-53433333D01*
X72719047Y-53385714D01*
X72814285Y-53385714D01*
X73004761Y-53385714D02*
X73385714Y-53385714D01*
X73147619Y-53052380D02*
X73147619Y-53909523D01*
X73195238Y-54004761D01*
X73290476Y-54052380D01*
X73385714Y-54052380D01*
X72538095Y-34300000D02*
X72442857Y-34252380D01*
X72300000Y-34252380D01*
X72157142Y-34300000D01*
X72061904Y-34395238D01*
X72014285Y-34490476D01*
X71966666Y-34680952D01*
X71966666Y-34823809D01*
X72014285Y-35014285D01*
X72061904Y-35109523D01*
X72157142Y-35204761D01*
X72300000Y-35252380D01*
X72395238Y-35252380D01*
X72538095Y-35204761D01*
X72585714Y-35157142D01*
X72585714Y-34823809D01*
X72395238Y-34823809D01*
X73014285Y-35252380D02*
X73014285Y-34252380D01*
X73585714Y-35252380D01*
X73585714Y-34252380D01*
X74061904Y-35252380D02*
X74061904Y-34252380D01*
X74300000Y-34252380D01*
X74442857Y-34300000D01*
X74538095Y-34395238D01*
X74585714Y-34490476D01*
X74633333Y-34680952D01*
X74633333Y-34823809D01*
X74585714Y-35014285D01*
X74538095Y-35109523D01*
X74442857Y-35204761D01*
X74300000Y-35252380D01*
X74061904Y-35252380D01*
X64533333Y-34628571D02*
X64866666Y-34628571D01*
X65009523Y-35152380D02*
X64533333Y-35152380D01*
X64533333Y-34152380D01*
X65009523Y-34152380D01*
X65342857Y-34152380D02*
X66009523Y-35152380D01*
X66009523Y-34152380D02*
X65342857Y-35152380D01*
X66914285Y-35152380D02*
X66342857Y-35152380D01*
X66628571Y-35152380D02*
X66628571Y-34152380D01*
X66533333Y-34295238D01*
X66438095Y-34390476D01*
X66342857Y-34438095D01*
D11*
X48914285Y-33347619D02*
X48961904Y-33300000D01*
X49057142Y-33252380D01*
X49295238Y-33252380D01*
X49390476Y-33300000D01*
X49438095Y-33347619D01*
X49485714Y-33442857D01*
X49485714Y-33538095D01*
X49438095Y-33680952D01*
X48866666Y-34252380D01*
X49485714Y-34252380D01*
X52085714Y-34252380D02*
X51514285Y-34252380D01*
X51800000Y-34252380D02*
X51800000Y-33252380D01*
X51704761Y-33395238D01*
X51609523Y-33490476D01*
X51514285Y-33538095D01*
D10*
X66204761Y-49757142D02*
X66157142Y-49804761D01*
X66014285Y-49852380D01*
X65919047Y-49852380D01*
X65776190Y-49804761D01*
X65680952Y-49709523D01*
X65633333Y-49614285D01*
X65585714Y-49423809D01*
X65585714Y-49280952D01*
X65633333Y-49090476D01*
X65680952Y-48995238D01*
X65776190Y-48900000D01*
X65919047Y-48852380D01*
X66014285Y-48852380D01*
X66157142Y-48900000D01*
X66204761Y-48947619D01*
X67109523Y-49852380D02*
X66633333Y-49852380D01*
X66633333Y-48852380D01*
X67442857Y-49852380D02*
X67442857Y-48852380D01*
X68014285Y-49852380D02*
X67585714Y-49280952D01*
X68014285Y-48852380D02*
X67442857Y-49423809D01*
X66428571Y-45352380D02*
X66428571Y-44352380D01*
X66666666Y-44352380D01*
X66809523Y-44400000D01*
X66904761Y-44495238D01*
X66952380Y-44590476D01*
X67000000Y-44780952D01*
X67000000Y-44923809D01*
X66952380Y-45114285D01*
X66904761Y-45209523D01*
X66809523Y-45304761D01*
X66666666Y-45352380D01*
X66428571Y-45352380D01*
X67380952Y-45066666D02*
X67857142Y-45066666D01*
X67285714Y-45352380D02*
X67619047Y-44352380D01*
X67952380Y-45352380D01*
X68142857Y-44352380D02*
X68714285Y-44352380D01*
X68428571Y-45352380D02*
X68428571Y-44352380D01*
X75423809Y-34252380D02*
X76042857Y-34252380D01*
X75709523Y-34633333D01*
X75852380Y-34633333D01*
X75947619Y-34680952D01*
X75995238Y-34728571D01*
X76042857Y-34823809D01*
X76042857Y-35061904D01*
X75995238Y-35157142D01*
X75947619Y-35204761D01*
X75852380Y-35252380D01*
X75566666Y-35252380D01*
X75471428Y-35204761D01*
X75423809Y-35157142D01*
X76471428Y-35157142D02*
X76519047Y-35204761D01*
X76471428Y-35252380D01*
X76423809Y-35204761D01*
X76471428Y-35157142D01*
X76471428Y-35252380D01*
X76852380Y-34252380D02*
X77471428Y-34252380D01*
X77138095Y-34633333D01*
X77280952Y-34633333D01*
X77376190Y-34680952D01*
X77423809Y-34728571D01*
X77471428Y-34823809D01*
X77471428Y-35061904D01*
X77423809Y-35157142D01*
X77376190Y-35204761D01*
X77280952Y-35252380D01*
X76995238Y-35252380D01*
X76900000Y-35204761D01*
X76852380Y-35157142D01*
X77757142Y-34252380D02*
X78090476Y-35252380D01*
X78423809Y-34252380D01*
D11*
X45509523Y-34204761D02*
X45652380Y-34252380D01*
X45890476Y-34252380D01*
X45985714Y-34204761D01*
X46033333Y-34157142D01*
X46080952Y-34061904D01*
X46080952Y-33966666D01*
X46033333Y-33871428D01*
X45985714Y-33823809D01*
X45890476Y-33776190D01*
X45700000Y-33728571D01*
X45604761Y-33680952D01*
X45557142Y-33633333D01*
X45509523Y-33538095D01*
X45509523Y-33442857D01*
X45557142Y-33347619D01*
X45604761Y-33300000D01*
X45700000Y-33252380D01*
X45938095Y-33252380D01*
X46080952Y-33300000D01*
X47080952Y-34157142D02*
X47033333Y-34204761D01*
X46890476Y-34252380D01*
X46795238Y-34252380D01*
X46652380Y-34204761D01*
X46557142Y-34109523D01*
X46509523Y-34014285D01*
X46461904Y-33823809D01*
X46461904Y-33680952D01*
X46509523Y-33490476D01*
X46557142Y-33395238D01*
X46652380Y-33300000D01*
X46795238Y-33252380D01*
X46890476Y-33252380D01*
X47033333Y-33300000D01*
X47080952Y-33347619D01*
X47985714Y-34252380D02*
X47509523Y-34252380D01*
X47509523Y-33252380D01*
D10*
X70566666Y-34152380D02*
X71185714Y-34152380D01*
X70852380Y-34533333D01*
X70995238Y-34533333D01*
X71090476Y-34580952D01*
X71138095Y-34628571D01*
X71185714Y-34723809D01*
X71185714Y-34961904D01*
X71138095Y-35057142D01*
X71090476Y-35104761D01*
X70995238Y-35152380D01*
X70709523Y-35152380D01*
X70614285Y-35104761D01*
X70566666Y-35057142D01*
D11*
%TO.C,R1*%
X62333333Y-39052380D02*
X62000000Y-38576190D01*
X61761904Y-39052380D02*
X61761904Y-38052380D01*
X62142857Y-38052380D01*
X62238095Y-38100000D01*
X62285714Y-38147619D01*
X62333333Y-38242857D01*
X62333333Y-38385714D01*
X62285714Y-38480952D01*
X62238095Y-38528571D01*
X62142857Y-38576190D01*
X61761904Y-38576190D01*
X63285714Y-39052380D02*
X62714285Y-39052380D01*
X63000000Y-39052380D02*
X63000000Y-38052380D01*
X62904761Y-38195238D01*
X62809523Y-38290476D01*
X62714285Y-38338095D01*
%TO.C,Q1*%
X59404761Y-39147619D02*
X59309523Y-39100000D01*
X59214285Y-39004761D01*
X59071428Y-38861904D01*
X58976190Y-38814285D01*
X58880952Y-38814285D01*
X58928571Y-39052380D02*
X58833333Y-39004761D01*
X58738095Y-38909523D01*
X58690476Y-38719047D01*
X58690476Y-38385714D01*
X58738095Y-38195238D01*
X58833333Y-38100000D01*
X58928571Y-38052380D01*
X59119047Y-38052380D01*
X59214285Y-38100000D01*
X59309523Y-38195238D01*
X59357142Y-38385714D01*
X59357142Y-38719047D01*
X59309523Y-38909523D01*
X59214285Y-39004761D01*
X59119047Y-39052380D01*
X58928571Y-39052380D01*
X60309523Y-39052380D02*
X59738095Y-39052380D01*
X60023809Y-39052380D02*
X60023809Y-38052380D01*
X59928571Y-38195238D01*
X59833333Y-38290476D01*
X59738095Y-38338095D01*
%TO.C,U1*%
X53038095Y-38452380D02*
X53038095Y-39261904D01*
X53085714Y-39357142D01*
X53133333Y-39404761D01*
X53228571Y-39452380D01*
X53419047Y-39452380D01*
X53514285Y-39404761D01*
X53561904Y-39357142D01*
X53609523Y-39261904D01*
X53609523Y-38452380D01*
X54609523Y-39452380D02*
X54038095Y-39452380D01*
X54323809Y-39452380D02*
X54323809Y-38452380D01*
X54228571Y-38595238D01*
X54133333Y-38690476D01*
X54038095Y-38738095D01*
%TO.C,R4*%
X56033333Y-45052380D02*
X55700000Y-44576190D01*
X55461904Y-45052380D02*
X55461904Y-44052380D01*
X55842857Y-44052380D01*
X55938095Y-44100000D01*
X55985714Y-44147619D01*
X56033333Y-44242857D01*
X56033333Y-44385714D01*
X55985714Y-44480952D01*
X55938095Y-44528571D01*
X55842857Y-44576190D01*
X55461904Y-44576190D01*
X56890476Y-44385714D02*
X56890476Y-45052380D01*
X56652380Y-44004761D02*
X56414285Y-44719047D01*
X57033333Y-44719047D01*
%TO.C,R2*%
X62033333Y-48152380D02*
X61700000Y-47676190D01*
X61461904Y-48152380D02*
X61461904Y-47152380D01*
X61842857Y-47152380D01*
X61938095Y-47200000D01*
X61985714Y-47247619D01*
X62033333Y-47342857D01*
X62033333Y-47485714D01*
X61985714Y-47580952D01*
X61938095Y-47628571D01*
X61842857Y-47676190D01*
X61461904Y-47676190D01*
X62414285Y-47247619D02*
X62461904Y-47200000D01*
X62557142Y-47152380D01*
X62795238Y-47152380D01*
X62890476Y-47200000D01*
X62938095Y-47247619D01*
X62985714Y-47342857D01*
X62985714Y-47438095D01*
X62938095Y-47580952D01*
X62366666Y-48152380D01*
X62985714Y-48152380D01*
%TO.C,Q2*%
X62904761Y-44747619D02*
X62809523Y-44700000D01*
X62714285Y-44604761D01*
X62571428Y-44461904D01*
X62476190Y-44414285D01*
X62380952Y-44414285D01*
X62428571Y-44652380D02*
X62333333Y-44604761D01*
X62238095Y-44509523D01*
X62190476Y-44319047D01*
X62190476Y-43985714D01*
X62238095Y-43795238D01*
X62333333Y-43700000D01*
X62428571Y-43652380D01*
X62619047Y-43652380D01*
X62714285Y-43700000D01*
X62809523Y-43795238D01*
X62857142Y-43985714D01*
X62857142Y-44319047D01*
X62809523Y-44509523D01*
X62714285Y-44604761D01*
X62619047Y-44652380D01*
X62428571Y-44652380D01*
X63238095Y-43747619D02*
X63285714Y-43700000D01*
X63380952Y-43652380D01*
X63619047Y-43652380D01*
X63714285Y-43700000D01*
X63761904Y-43747619D01*
X63809523Y-43842857D01*
X63809523Y-43938095D01*
X63761904Y-44080952D01*
X63190476Y-44652380D01*
X63809523Y-44652380D01*
%TO.C,R3*%
X55933333Y-40852380D02*
X55600000Y-40376190D01*
X55361904Y-40852380D02*
X55361904Y-39852380D01*
X55742857Y-39852380D01*
X55838095Y-39900000D01*
X55885714Y-39947619D01*
X55933333Y-40042857D01*
X55933333Y-40185714D01*
X55885714Y-40280952D01*
X55838095Y-40328571D01*
X55742857Y-40376190D01*
X55361904Y-40376190D01*
X56266666Y-39852380D02*
X56885714Y-39852380D01*
X56552380Y-40233333D01*
X56695238Y-40233333D01*
X56790476Y-40280952D01*
X56838095Y-40328571D01*
X56885714Y-40423809D01*
X56885714Y-40661904D01*
X56838095Y-40757142D01*
X56790476Y-40804761D01*
X56695238Y-40852380D01*
X56409523Y-40852380D01*
X56314285Y-40804761D01*
X56266666Y-40757142D01*
D12*
%TO.C,R1*%
X64555000Y-39745276D02*
X64555000Y-40254724D01*
X63510000Y-39745276D02*
X63510000Y-40254724D01*
%TO.C,Q1*%
X60732500Y-42460000D02*
X61382500Y-42460000D01*
X60732500Y-42460000D02*
X60082500Y-42460000D01*
X60732500Y-39340000D02*
X59057500Y-39340000D01*
X60732500Y-39340000D02*
X61382500Y-39340000D01*
D13*
%TO.C,U1*%
X49507500Y-37900000D02*
X42607500Y-37900000D01*
X51207500Y-48400000D02*
X51207500Y-51400000D01*
D12*
X37307500Y-38200000D02*
X37307500Y-53000000D01*
X37307500Y-53000000D02*
X39507500Y-53000000D01*
X39507500Y-38200000D02*
X37307500Y-38200000D01*
D13*
X49707500Y-53000000D02*
X42407500Y-53000000D01*
D12*
%TO.C,R4*%
X57310000Y-44845276D02*
X57310000Y-45354724D01*
X58355000Y-44845276D02*
X58355000Y-45354724D01*
%TO.C,R2*%
X63310000Y-47454724D02*
X63310000Y-46945276D01*
X64355000Y-47454724D02*
X64355000Y-46945276D01*
%TO.C,Q2*%
X61032500Y-43565000D02*
X59357500Y-43565000D01*
X61032500Y-46685000D02*
X60382500Y-46685000D01*
X61032500Y-43565000D02*
X61682500Y-43565000D01*
X61032500Y-46685000D02*
X61682500Y-46685000D01*
%TO.C,R3*%
X58355000Y-40457776D02*
X58355000Y-40967224D01*
X57310000Y-40457776D02*
X57310000Y-40967224D01*
%TD*%
%LPC*%
D14*
%TO.C,R1*%
X64032500Y-39087500D03*
X64032500Y-40912500D03*
%TD*%
D15*
%TO.C,Q1*%
X59795000Y-39950000D03*
X59795000Y-41850000D03*
X61670000Y-40900000D03*
%TD*%
D16*
%TO.C,U1*%
X51507500Y-47800000D03*
X51507500Y-46700000D03*
X51507500Y-45600000D03*
X51507500Y-44500000D03*
X51507500Y-43400000D03*
X51507500Y-42300000D03*
X51507500Y-41200000D03*
X51507500Y-40100000D03*
X51507500Y-39000000D03*
D17*
X50654500Y-37350000D03*
D18*
X41004500Y-37750000D03*
X41004500Y-53350000D03*
D19*
X50654500Y-52501000D03*
%TD*%
D14*
%TO.C,R4*%
X57832500Y-44187500D03*
X57832500Y-46012500D03*
%TD*%
D20*
%TO.C,R2*%
X63832500Y-48112500D03*
X63832500Y-46287500D03*
%TD*%
D15*
%TO.C,Q2*%
X60095000Y-44175000D03*
X60095000Y-46075000D03*
X61970000Y-45125000D03*
%TD*%
D14*
%TO.C,R3*%
X57832500Y-39800000D03*
X57832500Y-41625000D03*
%TD*%
D21*
%TO.C,P1*%
X69932500Y-45500000D03*
D22*
X69932500Y-42900000D03*
X69932500Y-47600000D03*
X69932500Y-40800000D03*
X67132500Y-47600000D03*
X67132500Y-40800000D03*
D23*
X72782500Y-51050000D03*
X72782500Y-37350000D03*
D24*
X73582500Y-44200000D03*
%TD*%
D25*
%TO.C,J1*%
X75932500Y-32575000D03*
D26*
X73392500Y-32575000D03*
X70852500Y-32575000D03*
X68312500Y-32575000D03*
X65772500Y-32575000D03*
%TD*%
D25*
%TO.C,Screen1*%
X51732500Y-32000000D03*
D26*
X49192500Y-32000000D03*
X46652500Y-32000000D03*
X44112500Y-32000000D03*
%TD*%
M02*
