%TF.GenerationSoftware,KiCad,Pcbnew,6.0.7*%
%TF.CreationDate,2022-09-21T21:00:50-05:00*%
%TF.ProjectId,keyboardPCBv2,6b657962-6f61-4726-9450-434276322e6b,rev?*%
%TF.SameCoordinates,Original*%
%TF.FileFunction,Legend,Bot*%
%TF.FilePolarity,Positive*%
%FSLAX46Y46*%
G04 Gerber Fmt 4.6, Leading zero omitted, Abs format (unit mm)*
G04 Created by KiCad (PCBNEW 6.0.7) date 2022-09-21 21:00:50*
%MOMM*%
%LPD*%
G01*
G04 APERTURE LIST*
G04 Aperture macros list*
%AMRoundRect*
0 Rectangle with rounded corners*
0 $1 Rounding radius*
0 $2 $3 $4 $5 $6 $7 $8 $9 X,Y pos of 4 corners*
0 Add a 4 corners polygon primitive as box body*
4,1,4,$2,$3,$4,$5,$6,$7,$8,$9,$2,$3,0*
0 Add four circle primitives for the rounded corners*
1,1,$1+$1,$2,$3*
1,1,$1+$1,$4,$5*
1,1,$1+$1,$6,$7*
1,1,$1+$1,$8,$9*
0 Add four rect primitives between the rounded corners*
20,1,$1+$1,$2,$3,$4,$5,0*
20,1,$1+$1,$4,$5,$6,$7,0*
20,1,$1+$1,$6,$7,$8,$9,0*
20,1,$1+$1,$8,$9,$2,$3,0*%
%AMFreePoly0*
4,1,37,0.592426,0.792426,0.610000,0.750000,0.610000,-0.750000,0.592426,-0.792426,0.550000,-0.810000,0.000000,-0.810000,-0.012520,-0.804814,-0.081040,-0.803558,-0.097833,-0.800838,-0.233148,-0.758563,-0.248503,-0.751239,-0.366513,-0.672684,-0.379195,-0.661345,-0.470415,-0.552826,-0.479405,-0.538384,-0.536500,-0.408625,-0.541074,-0.392240,-0.558657,-0.257780,-0.556874,-0.257547,-0.560000,-0.250000,
-0.560000,0.250000,-0.559419,0.251404,-0.559249,0.265340,-0.537438,0.405417,-0.532464,0.421685,-0.472216,0.550010,-0.462876,0.564229,-0.369032,0.670487,-0.356077,0.681513,-0.236182,0.757161,-0.220653,0.764107,-0.084346,0.803064,-0.067491,0.805373,-0.011990,0.805034,0.000000,0.810000,0.550000,0.810000,0.592426,0.792426,0.592426,0.792426,$1*%
%AMFreePoly1*
4,1,37,0.012349,0.804885,0.074271,0.804507,0.091096,0.801992,0.226917,0.761373,0.242360,0.754238,0.361322,0.677131,0.374142,0.665947,0.466680,0.558550,0.475845,0.544219,0.534522,0.415167,0.539297,0.398839,0.559394,0.258506,0.560000,0.250000,0.560000,-0.250000,0.559996,-0.250732,0.559847,-0.262948,0.559019,-0.272170,0.535499,-0.411971,0.530327,-0.428178,0.468515,-0.555757,
0.459003,-0.569860,0.363868,-0.674964,0.350778,-0.685831,0.229968,-0.760008,0.214356,-0.766764,0.077583,-0.804053,0.060701,-0.806156,0.011459,-0.805253,0.000000,-0.810000,-0.550000,-0.810000,-0.592426,-0.792426,-0.610000,-0.750000,-0.610000,0.750000,-0.592426,0.792426,-0.550000,0.810000,0.000000,0.810000,0.012349,0.804885,0.012349,0.804885,$1*%
G04 Aperture macros list end*
%ADD10C,0.160000*%
%ADD11C,0.150000*%
%ADD12C,0.101600*%
%ADD13C,0.120000*%
%ADD14C,0.066040*%
%ADD15C,0.127000*%
%ADD16RoundRect,0.060000X-0.800000X0.800000X-0.800000X-0.800000X0.800000X-0.800000X0.800000X0.800000X0*%
%ADD17C,1.720000*%
%ADD18O,3.620000X2.120000*%
%ADD19O,2.120000X4.120000*%
%ADD20RoundRect,0.060000X0.850000X-0.850000X0.850000X0.850000X-0.850000X0.850000X-0.850000X-0.850000X0*%
%ADD21O,1.820000X1.820000*%
%ADD22FreePoly0,180.000000*%
%ADD23RoundRect,0.060000X0.500000X0.750000X-0.500000X0.750000X-0.500000X-0.750000X0.500000X-0.750000X0*%
%ADD24FreePoly1,180.000000*%
%ADD25FreePoly0,0.000000*%
%ADD26RoundRect,0.060000X-0.500000X-0.750000X0.500000X-0.750000X0.500000X0.750000X-0.500000X0.750000X0*%
%ADD27FreePoly1,0.000000*%
%ADD28O,2.118980X2.868280*%
G04 APERTURE END LIST*
D10*
X78100761Y-52847380D02*
X77767428Y-53847380D01*
X77434095Y-52847380D01*
X76719809Y-53799761D02*
X76815047Y-53847380D01*
X77005523Y-53847380D01*
X77100761Y-53799761D01*
X77148380Y-53704523D01*
X77148380Y-53323571D01*
X77100761Y-53228333D01*
X77005523Y-53180714D01*
X76815047Y-53180714D01*
X76719809Y-53228333D01*
X76672190Y-53323571D01*
X76672190Y-53418809D01*
X77148380Y-53514047D01*
X76243619Y-53847380D02*
X76243619Y-53180714D01*
X76243619Y-53371190D02*
X76196000Y-53275952D01*
X76148380Y-53228333D01*
X76053142Y-53180714D01*
X75957904Y-53180714D01*
X74957904Y-52847380D02*
X74338857Y-52847380D01*
X74672190Y-53228333D01*
X74529333Y-53228333D01*
X74434095Y-53275952D01*
X74386476Y-53323571D01*
X74338857Y-53418809D01*
X74338857Y-53656904D01*
X74386476Y-53752142D01*
X74434095Y-53799761D01*
X74529333Y-53847380D01*
X74815047Y-53847380D01*
X74910285Y-53799761D01*
X74957904Y-53752142D01*
X73910285Y-53752142D02*
X73862666Y-53799761D01*
X73910285Y-53847380D01*
X73957904Y-53799761D01*
X73910285Y-53752142D01*
X73910285Y-53847380D01*
X73243619Y-52847380D02*
X73148380Y-52847380D01*
X73053142Y-52895000D01*
X73005523Y-52942619D01*
X72957904Y-53037857D01*
X72910285Y-53228333D01*
X72910285Y-53466428D01*
X72957904Y-53656904D01*
X73005523Y-53752142D01*
X73053142Y-53799761D01*
X73148380Y-53847380D01*
X73243619Y-53847380D01*
X73338857Y-53799761D01*
X73386476Y-53752142D01*
X73434095Y-53656904D01*
X73481714Y-53466428D01*
X73481714Y-53228333D01*
X73434095Y-53037857D01*
X73386476Y-52942619D01*
X73338857Y-52895000D01*
X73243619Y-52847380D01*
X71672190Y-53847380D02*
X71481714Y-53847380D01*
X71386476Y-53799761D01*
X71338857Y-53752142D01*
X71243619Y-53609285D01*
X71196000Y-53418809D01*
X71196000Y-53037857D01*
X71243619Y-52942619D01*
X71291238Y-52895000D01*
X71386476Y-52847380D01*
X71576952Y-52847380D01*
X71672190Y-52895000D01*
X71719809Y-52942619D01*
X71767428Y-53037857D01*
X71767428Y-53275952D01*
X71719809Y-53371190D01*
X71672190Y-53418809D01*
X71576952Y-53466428D01*
X71386476Y-53466428D01*
X71291238Y-53418809D01*
X71243619Y-53371190D01*
X71196000Y-53275952D01*
X70053142Y-52799761D02*
X70910285Y-54085476D01*
X69767428Y-52942619D02*
X69719809Y-52895000D01*
X69624571Y-52847380D01*
X69386476Y-52847380D01*
X69291238Y-52895000D01*
X69243619Y-52942619D01*
X69196000Y-53037857D01*
X69196000Y-53133095D01*
X69243619Y-53275952D01*
X69815047Y-53847380D01*
X69196000Y-53847380D01*
X68576952Y-52847380D02*
X68481714Y-52847380D01*
X68386476Y-52895000D01*
X68338857Y-52942619D01*
X68291238Y-53037857D01*
X68243619Y-53228333D01*
X68243619Y-53466428D01*
X68291238Y-53656904D01*
X68338857Y-53752142D01*
X68386476Y-53799761D01*
X68481714Y-53847380D01*
X68576952Y-53847380D01*
X68672190Y-53799761D01*
X68719809Y-53752142D01*
X68767428Y-53656904D01*
X68815047Y-53466428D01*
X68815047Y-53228333D01*
X68767428Y-53037857D01*
X68719809Y-52942619D01*
X68672190Y-52895000D01*
X68576952Y-52847380D01*
X67100761Y-52799761D02*
X67957904Y-54085476D01*
X66815047Y-52942619D02*
X66767428Y-52895000D01*
X66672190Y-52847380D01*
X66434095Y-52847380D01*
X66338857Y-52895000D01*
X66291238Y-52942619D01*
X66243619Y-53037857D01*
X66243619Y-53133095D01*
X66291238Y-53275952D01*
X66862666Y-53847380D01*
X66243619Y-53847380D01*
X65624571Y-52847380D02*
X65529333Y-52847380D01*
X65434095Y-52895000D01*
X65386476Y-52942619D01*
X65338857Y-53037857D01*
X65291238Y-53228333D01*
X65291238Y-53466428D01*
X65338857Y-53656904D01*
X65386476Y-53752142D01*
X65434095Y-53799761D01*
X65529333Y-53847380D01*
X65624571Y-53847380D01*
X65719809Y-53799761D01*
X65767428Y-53752142D01*
X65815047Y-53656904D01*
X65862666Y-53466428D01*
X65862666Y-53228333D01*
X65815047Y-53037857D01*
X65767428Y-52942619D01*
X65719809Y-52895000D01*
X65624571Y-52847380D01*
X64910285Y-52942619D02*
X64862666Y-52895000D01*
X64767428Y-52847380D01*
X64529333Y-52847380D01*
X64434095Y-52895000D01*
X64386476Y-52942619D01*
X64338857Y-53037857D01*
X64338857Y-53133095D01*
X64386476Y-53275952D01*
X64957904Y-53847380D01*
X64338857Y-53847380D01*
X63957904Y-52942619D02*
X63910285Y-52895000D01*
X63815047Y-52847380D01*
X63576952Y-52847380D01*
X63481714Y-52895000D01*
X63434095Y-52942619D01*
X63386476Y-53037857D01*
X63386476Y-53133095D01*
X63434095Y-53275952D01*
X64005523Y-53847380D01*
X63386476Y-53847380D01*
X78053142Y-54457380D02*
X77386476Y-55457380D01*
X77386476Y-54457380D02*
X78053142Y-55457380D01*
X77005523Y-55457380D02*
X77005523Y-54790714D01*
X77005523Y-54457380D02*
X77053142Y-54505000D01*
X77005523Y-54552619D01*
X76957904Y-54505000D01*
X77005523Y-54457380D01*
X77005523Y-54552619D01*
X76100761Y-55457380D02*
X76100761Y-54933571D01*
X76148380Y-54838333D01*
X76243619Y-54790714D01*
X76434095Y-54790714D01*
X76529333Y-54838333D01*
X76100761Y-55409761D02*
X76196000Y-55457380D01*
X76434095Y-55457380D01*
X76529333Y-55409761D01*
X76576952Y-55314523D01*
X76576952Y-55219285D01*
X76529333Y-55124047D01*
X76434095Y-55076428D01*
X76196000Y-55076428D01*
X76100761Y-55028809D01*
X75481714Y-55457380D02*
X75576952Y-55409761D01*
X75624571Y-55362142D01*
X75672190Y-55266904D01*
X75672190Y-54981190D01*
X75624571Y-54885952D01*
X75576952Y-54838333D01*
X75481714Y-54790714D01*
X75338857Y-54790714D01*
X75243619Y-54838333D01*
X75196000Y-54885952D01*
X75148380Y-54981190D01*
X75148380Y-55266904D01*
X75196000Y-55362142D01*
X75243619Y-55409761D01*
X75338857Y-55457380D01*
X75481714Y-55457380D01*
X74005523Y-54409761D02*
X74862666Y-55695476D01*
X73005523Y-55552619D02*
X73100761Y-55505000D01*
X73196000Y-55409761D01*
X73338857Y-55266904D01*
X73434095Y-55219285D01*
X73529333Y-55219285D01*
X73481714Y-55457380D02*
X73576952Y-55409761D01*
X73672190Y-55314523D01*
X73719809Y-55124047D01*
X73719809Y-54790714D01*
X73672190Y-54600238D01*
X73576952Y-54505000D01*
X73481714Y-54457380D01*
X73291238Y-54457380D01*
X73196000Y-54505000D01*
X73100761Y-54600238D01*
X73053142Y-54790714D01*
X73053142Y-55124047D01*
X73100761Y-55314523D01*
X73196000Y-55409761D01*
X73291238Y-55457380D01*
X73481714Y-55457380D01*
X72767428Y-54457380D02*
X72196000Y-54457380D01*
X72481714Y-55457380D02*
X72481714Y-54457380D01*
X71100761Y-55457380D02*
X71100761Y-54457380D01*
X71100761Y-54838333D02*
X71005523Y-54790714D01*
X70815047Y-54790714D01*
X70719809Y-54838333D01*
X70672190Y-54885952D01*
X70624571Y-54981190D01*
X70624571Y-55266904D01*
X70672190Y-55362142D01*
X70719809Y-55409761D01*
X70815047Y-55457380D01*
X71005523Y-55457380D01*
X71100761Y-55409761D01*
X70053142Y-55457380D02*
X70148380Y-55409761D01*
X70196000Y-55362142D01*
X70243619Y-55266904D01*
X70243619Y-54981190D01*
X70196000Y-54885952D01*
X70148380Y-54838333D01*
X70053142Y-54790714D01*
X69910285Y-54790714D01*
X69815047Y-54838333D01*
X69767428Y-54885952D01*
X69719809Y-54981190D01*
X69719809Y-55266904D01*
X69767428Y-55362142D01*
X69815047Y-55409761D01*
X69910285Y-55457380D01*
X70053142Y-55457380D01*
X68862666Y-55457380D02*
X68862666Y-54933571D01*
X68910285Y-54838333D01*
X69005523Y-54790714D01*
X69196000Y-54790714D01*
X69291238Y-54838333D01*
X68862666Y-55409761D02*
X68957904Y-55457380D01*
X69196000Y-55457380D01*
X69291238Y-55409761D01*
X69338857Y-55314523D01*
X69338857Y-55219285D01*
X69291238Y-55124047D01*
X69196000Y-55076428D01*
X68957904Y-55076428D01*
X68862666Y-55028809D01*
X68386476Y-55457380D02*
X68386476Y-54790714D01*
X68386476Y-54981190D02*
X68338857Y-54885952D01*
X68291238Y-54838333D01*
X68196000Y-54790714D01*
X68100761Y-54790714D01*
X67338857Y-55457380D02*
X67338857Y-54457380D01*
X67338857Y-55409761D02*
X67434095Y-55457380D01*
X67624571Y-55457380D01*
X67719809Y-55409761D01*
X67767428Y-55362142D01*
X67815047Y-55266904D01*
X67815047Y-54981190D01*
X67767428Y-54885952D01*
X67719809Y-54838333D01*
X67624571Y-54790714D01*
X67434095Y-54790714D01*
X67338857Y-54838333D01*
X59800000Y-39038095D02*
X59752380Y-38942857D01*
X59752380Y-38800000D01*
X59800000Y-38657142D01*
X59895238Y-38561904D01*
X59990476Y-38514285D01*
X60180952Y-38466666D01*
X60323809Y-38466666D01*
X60514285Y-38514285D01*
X60609523Y-38561904D01*
X60704761Y-38657142D01*
X60752380Y-38800000D01*
X60752380Y-38895238D01*
X60704761Y-39038095D01*
X60657142Y-39085714D01*
X60323809Y-39085714D01*
X60323809Y-38895238D01*
X60752380Y-39514285D02*
X59752380Y-39514285D01*
X60752380Y-40085714D01*
X59752380Y-40085714D01*
X60752380Y-40561904D02*
X59752380Y-40561904D01*
X59752380Y-40800000D01*
X59800000Y-40942857D01*
X59895238Y-41038095D01*
X59990476Y-41085714D01*
X60180952Y-41133333D01*
X60323809Y-41133333D01*
X60514285Y-41085714D01*
X60609523Y-41038095D01*
X60704761Y-40942857D01*
X60752380Y-40800000D01*
X60752380Y-40561904D01*
X71233333Y-34252380D02*
X70614285Y-34252380D01*
X70947619Y-34633333D01*
X70804761Y-34633333D01*
X70709523Y-34680952D01*
X70661904Y-34728571D01*
X70614285Y-34823809D01*
X70614285Y-35061904D01*
X70661904Y-35157142D01*
X70709523Y-35204761D01*
X70804761Y-35252380D01*
X71090476Y-35252380D01*
X71185714Y-35204761D01*
X71233333Y-35157142D01*
X42133333Y-32304761D02*
X41990476Y-32352380D01*
X41752380Y-32352380D01*
X41657142Y-32304761D01*
X41609523Y-32257142D01*
X41561904Y-32161904D01*
X41561904Y-32066666D01*
X41609523Y-31971428D01*
X41657142Y-31923809D01*
X41752380Y-31876190D01*
X41942857Y-31828571D01*
X42038095Y-31780952D01*
X42085714Y-31733333D01*
X42133333Y-31638095D01*
X42133333Y-31542857D01*
X42085714Y-31447619D01*
X42038095Y-31400000D01*
X41942857Y-31352380D01*
X41704761Y-31352380D01*
X41561904Y-31400000D01*
X40704761Y-32304761D02*
X40800000Y-32352380D01*
X40990476Y-32352380D01*
X41085714Y-32304761D01*
X41133333Y-32257142D01*
X41180952Y-32161904D01*
X41180952Y-31876190D01*
X41133333Y-31780952D01*
X41085714Y-31733333D01*
X40990476Y-31685714D01*
X40800000Y-31685714D01*
X40704761Y-31733333D01*
X40276190Y-32352380D02*
X40276190Y-31685714D01*
X40276190Y-31876190D02*
X40228571Y-31780952D01*
X40180952Y-31733333D01*
X40085714Y-31685714D01*
X39990476Y-31685714D01*
X39276190Y-32304761D02*
X39371428Y-32352380D01*
X39561904Y-32352380D01*
X39657142Y-32304761D01*
X39704761Y-32209523D01*
X39704761Y-31828571D01*
X39657142Y-31733333D01*
X39561904Y-31685714D01*
X39371428Y-31685714D01*
X39276190Y-31733333D01*
X39228571Y-31828571D01*
X39228571Y-31923809D01*
X39704761Y-32019047D01*
X38419047Y-32304761D02*
X38514285Y-32352380D01*
X38704761Y-32352380D01*
X38800000Y-32304761D01*
X38847619Y-32209523D01*
X38847619Y-31828571D01*
X38800000Y-31733333D01*
X38704761Y-31685714D01*
X38514285Y-31685714D01*
X38419047Y-31733333D01*
X38371428Y-31828571D01*
X38371428Y-31923809D01*
X38847619Y-32019047D01*
X37942857Y-31685714D02*
X37942857Y-32352380D01*
X37942857Y-31780952D02*
X37895238Y-31733333D01*
X37800000Y-31685714D01*
X37657142Y-31685714D01*
X37561904Y-31733333D01*
X37514285Y-31828571D01*
X37514285Y-32352380D01*
X62252380Y-38923809D02*
X62252380Y-39542857D01*
X62633333Y-39209523D01*
X62633333Y-39352380D01*
X62680952Y-39447619D01*
X62728571Y-39495238D01*
X62823809Y-39542857D01*
X63061904Y-39542857D01*
X63157142Y-39495238D01*
X63204761Y-39447619D01*
X63252380Y-39352380D01*
X63252380Y-39066666D01*
X63204761Y-38971428D01*
X63157142Y-38923809D01*
X63157142Y-39971428D02*
X63204761Y-40019047D01*
X63252380Y-39971428D01*
X63204761Y-39923809D01*
X63157142Y-39971428D01*
X63252380Y-39971428D01*
X62252380Y-40352380D02*
X62252380Y-40971428D01*
X62633333Y-40638095D01*
X62633333Y-40780952D01*
X62680952Y-40876190D01*
X62728571Y-40923809D01*
X62823809Y-40971428D01*
X63061904Y-40971428D01*
X63157142Y-40923809D01*
X63204761Y-40876190D01*
X63252380Y-40780952D01*
X63252380Y-40495238D01*
X63204761Y-40400000D01*
X63157142Y-40352380D01*
X62252380Y-41257142D02*
X63252380Y-41590476D01*
X62252380Y-41923809D01*
X65514285Y-35152380D02*
X66085714Y-35152380D01*
X65800000Y-35152380D02*
X65800000Y-34152380D01*
X65895238Y-34295238D01*
X65990476Y-34390476D01*
X66085714Y-34438095D01*
D11*
X53361904Y-57252380D02*
X53361904Y-56252380D01*
X52980952Y-56252380D01*
X52885714Y-56300000D01*
X52838095Y-56347619D01*
X52790476Y-56442857D01*
X52790476Y-56585714D01*
X52838095Y-56680952D01*
X52885714Y-56728571D01*
X52980952Y-56776190D01*
X53361904Y-56776190D01*
X52361904Y-56252380D02*
X52361904Y-57061904D01*
X52314285Y-57157142D01*
X52266666Y-57204761D01*
X52171428Y-57252380D01*
X51980952Y-57252380D01*
X51885714Y-57204761D01*
X51838095Y-57157142D01*
X51790476Y-57061904D01*
X51790476Y-56252380D01*
X51314285Y-57252380D02*
X51314285Y-56252380D01*
X50980952Y-56966666D01*
X50647619Y-56252380D01*
X50647619Y-57252380D01*
X49838095Y-56728571D02*
X49695238Y-56776190D01*
X49647619Y-56823809D01*
X49600000Y-56919047D01*
X49600000Y-57061904D01*
X49647619Y-57157142D01*
X49695238Y-57204761D01*
X49790476Y-57252380D01*
X50171428Y-57252380D01*
X50171428Y-56252380D01*
X49838095Y-56252380D01*
X49742857Y-56300000D01*
X49695238Y-56347619D01*
X49647619Y-56442857D01*
X49647619Y-56538095D01*
X49695238Y-56633333D01*
X49742857Y-56680952D01*
X49838095Y-56728571D01*
X50171428Y-56728571D01*
X49219047Y-56966666D02*
X48742857Y-56966666D01*
X49314285Y-57252380D02*
X48980952Y-56252380D01*
X48647619Y-57252380D01*
X47552380Y-57252380D02*
X47552380Y-56252380D01*
X46980952Y-57252380D02*
X47409523Y-56680952D01*
X46980952Y-56252380D02*
X47552380Y-56823809D01*
X46171428Y-57204761D02*
X46266666Y-57252380D01*
X46457142Y-57252380D01*
X46552380Y-57204761D01*
X46600000Y-57109523D01*
X46600000Y-56728571D01*
X46552380Y-56633333D01*
X46457142Y-56585714D01*
X46266666Y-56585714D01*
X46171428Y-56633333D01*
X46123809Y-56728571D01*
X46123809Y-56823809D01*
X46600000Y-56919047D01*
X45790476Y-56585714D02*
X45552380Y-57252380D01*
X45314285Y-56585714D02*
X45552380Y-57252380D01*
X45647619Y-57490476D01*
X45695238Y-57538095D01*
X45790476Y-57585714D01*
X44933333Y-57252380D02*
X44933333Y-56252380D01*
X44933333Y-56633333D02*
X44838095Y-56585714D01*
X44647619Y-56585714D01*
X44552380Y-56633333D01*
X44504761Y-56680952D01*
X44457142Y-56776190D01*
X44457142Y-57061904D01*
X44504761Y-57157142D01*
X44552380Y-57204761D01*
X44647619Y-57252380D01*
X44838095Y-57252380D01*
X44933333Y-57204761D01*
X43885714Y-57252380D02*
X43980952Y-57204761D01*
X44028571Y-57157142D01*
X44076190Y-57061904D01*
X44076190Y-56776190D01*
X44028571Y-56680952D01*
X43980952Y-56633333D01*
X43885714Y-56585714D01*
X43742857Y-56585714D01*
X43647619Y-56633333D01*
X43600000Y-56680952D01*
X43552380Y-56776190D01*
X43552380Y-57061904D01*
X43600000Y-57157142D01*
X43647619Y-57204761D01*
X43742857Y-57252380D01*
X43885714Y-57252380D01*
X42695238Y-57252380D02*
X42695238Y-56728571D01*
X42742857Y-56633333D01*
X42838095Y-56585714D01*
X43028571Y-56585714D01*
X43123809Y-56633333D01*
X42695238Y-57204761D02*
X42790476Y-57252380D01*
X43028571Y-57252380D01*
X43123809Y-57204761D01*
X43171428Y-57109523D01*
X43171428Y-57014285D01*
X43123809Y-56919047D01*
X43028571Y-56871428D01*
X42790476Y-56871428D01*
X42695238Y-56823809D01*
X42219047Y-57252380D02*
X42219047Y-56585714D01*
X42219047Y-56776190D02*
X42171428Y-56680952D01*
X42123809Y-56633333D01*
X42028571Y-56585714D01*
X41933333Y-56585714D01*
X41171428Y-57252380D02*
X41171428Y-56252380D01*
X41171428Y-57204761D02*
X41266666Y-57252380D01*
X41457142Y-57252380D01*
X41552380Y-57204761D01*
X41600000Y-57157142D01*
X41647619Y-57061904D01*
X41647619Y-56776190D01*
X41600000Y-56680952D01*
X41552380Y-56633333D01*
X41457142Y-56585714D01*
X41266666Y-56585714D01*
X41171428Y-56633333D01*
X39933333Y-57252380D02*
X39933333Y-56252380D01*
X39552380Y-56252380D01*
X39457142Y-56300000D01*
X39409523Y-56347619D01*
X39361904Y-56442857D01*
X39361904Y-56585714D01*
X39409523Y-56680952D01*
X39457142Y-56728571D01*
X39552380Y-56776190D01*
X39933333Y-56776190D01*
X38361904Y-57157142D02*
X38409523Y-57204761D01*
X38552380Y-57252380D01*
X38647619Y-57252380D01*
X38790476Y-57204761D01*
X38885714Y-57109523D01*
X38933333Y-57014285D01*
X38980952Y-56823809D01*
X38980952Y-56680952D01*
X38933333Y-56490476D01*
X38885714Y-56395238D01*
X38790476Y-56300000D01*
X38647619Y-56252380D01*
X38552380Y-56252380D01*
X38409523Y-56300000D01*
X38361904Y-56347619D01*
X37600000Y-56728571D02*
X37457142Y-56776190D01*
X37409523Y-56823809D01*
X37361904Y-56919047D01*
X37361904Y-57061904D01*
X37409523Y-57157142D01*
X37457142Y-57204761D01*
X37552380Y-57252380D01*
X37933333Y-57252380D01*
X37933333Y-56252380D01*
X37600000Y-56252380D01*
X37504761Y-56300000D01*
X37457142Y-56347619D01*
X37409523Y-56442857D01*
X37409523Y-56538095D01*
X37457142Y-56633333D01*
X37504761Y-56680952D01*
X37600000Y-56728571D01*
X37933333Y-56728571D01*
X36314285Y-56252380D02*
X35980952Y-57252380D01*
X35647619Y-56252380D01*
X35409523Y-56252380D02*
X34790476Y-56252380D01*
X35123809Y-56633333D01*
X34980952Y-56633333D01*
X34885714Y-56680952D01*
X34838095Y-56728571D01*
X34790476Y-56823809D01*
X34790476Y-57061904D01*
X34838095Y-57157142D01*
X34885714Y-57204761D01*
X34980952Y-57252380D01*
X35266666Y-57252380D01*
X35361904Y-57204761D01*
X35409523Y-57157142D01*
D10*
X74161904Y-34400000D02*
X74257142Y-34352380D01*
X74400000Y-34352380D01*
X74542857Y-34400000D01*
X74638095Y-34495238D01*
X74685714Y-34590476D01*
X74733333Y-34780952D01*
X74733333Y-34923809D01*
X74685714Y-35114285D01*
X74638095Y-35209523D01*
X74542857Y-35304761D01*
X74400000Y-35352380D01*
X74304761Y-35352380D01*
X74161904Y-35304761D01*
X74114285Y-35257142D01*
X74114285Y-34923809D01*
X74304761Y-34923809D01*
X73685714Y-35352380D02*
X73685714Y-34352380D01*
X73114285Y-35352380D01*
X73114285Y-34352380D01*
X72638095Y-35352380D02*
X72638095Y-34352380D01*
X72400000Y-34352380D01*
X72257142Y-34400000D01*
X72161904Y-34495238D01*
X72114285Y-34590476D01*
X72066666Y-34780952D01*
X72066666Y-34923809D01*
X72114285Y-35114285D01*
X72161904Y-35209523D01*
X72257142Y-35304761D01*
X72400000Y-35352380D01*
X72638095Y-35352380D01*
D11*
X53614285Y-32452380D02*
X54185714Y-32452380D01*
X53900000Y-32452380D02*
X53900000Y-31452380D01*
X53995238Y-31595238D01*
X54090476Y-31690476D01*
X54185714Y-31738095D01*
D10*
X68485714Y-34347619D02*
X68438095Y-34300000D01*
X68342857Y-34252380D01*
X68104761Y-34252380D01*
X68009523Y-34300000D01*
X67961904Y-34347619D01*
X67914285Y-34442857D01*
X67914285Y-34538095D01*
X67961904Y-34680952D01*
X68533333Y-35252380D01*
X67914285Y-35252380D01*
X78171428Y-57352380D02*
X78171428Y-56352380D01*
X77838095Y-57066666D01*
X77504761Y-56352380D01*
X77504761Y-57352380D01*
X76600000Y-57352380D02*
X76600000Y-56828571D01*
X76647619Y-56733333D01*
X76742857Y-56685714D01*
X76933333Y-56685714D01*
X77028571Y-56733333D01*
X76600000Y-57304761D02*
X76695238Y-57352380D01*
X76933333Y-57352380D01*
X77028571Y-57304761D01*
X77076190Y-57209523D01*
X77076190Y-57114285D01*
X77028571Y-57019047D01*
X76933333Y-56971428D01*
X76695238Y-56971428D01*
X76600000Y-56923809D01*
X75695238Y-57352380D02*
X75695238Y-56352380D01*
X75695238Y-57304761D02*
X75790476Y-57352380D01*
X75980952Y-57352380D01*
X76076190Y-57304761D01*
X76123809Y-57257142D01*
X76171428Y-57161904D01*
X76171428Y-56876190D01*
X76123809Y-56780952D01*
X76076190Y-56733333D01*
X75980952Y-56685714D01*
X75790476Y-56685714D01*
X75695238Y-56733333D01*
X74838095Y-57304761D02*
X74933333Y-57352380D01*
X75123809Y-57352380D01*
X75219047Y-57304761D01*
X75266666Y-57209523D01*
X75266666Y-56828571D01*
X75219047Y-56733333D01*
X75123809Y-56685714D01*
X74933333Y-56685714D01*
X74838095Y-56733333D01*
X74790476Y-56828571D01*
X74790476Y-56923809D01*
X75266666Y-57019047D01*
X73266666Y-56828571D02*
X73123809Y-56876190D01*
X73076190Y-56923809D01*
X73028571Y-57019047D01*
X73028571Y-57161904D01*
X73076190Y-57257142D01*
X73123809Y-57304761D01*
X73219047Y-57352380D01*
X73600000Y-57352380D01*
X73600000Y-56352380D01*
X73266666Y-56352380D01*
X73171428Y-56400000D01*
X73123809Y-56447619D01*
X73076190Y-56542857D01*
X73076190Y-56638095D01*
X73123809Y-56733333D01*
X73171428Y-56780952D01*
X73266666Y-56828571D01*
X73600000Y-56828571D01*
X72695238Y-56685714D02*
X72457142Y-57352380D01*
X72219047Y-56685714D02*
X72457142Y-57352380D01*
X72552380Y-57590476D01*
X72600000Y-57638095D01*
X72695238Y-57685714D01*
X71838095Y-57257142D02*
X71790476Y-57304761D01*
X71838095Y-57352380D01*
X71885714Y-57304761D01*
X71838095Y-57257142D01*
X71838095Y-57352380D01*
X71838095Y-56733333D02*
X71790476Y-56780952D01*
X71838095Y-56828571D01*
X71885714Y-56780952D01*
X71838095Y-56733333D01*
X71838095Y-56828571D01*
X70647619Y-57304761D02*
X70504761Y-57352380D01*
X70266666Y-57352380D01*
X70171428Y-57304761D01*
X70123809Y-57257142D01*
X70076190Y-57161904D01*
X70076190Y-57066666D01*
X70123809Y-56971428D01*
X70171428Y-56923809D01*
X70266666Y-56876190D01*
X70457142Y-56828571D01*
X70552380Y-56780952D01*
X70600000Y-56733333D01*
X70647619Y-56638095D01*
X70647619Y-56542857D01*
X70600000Y-56447619D01*
X70552380Y-56400000D01*
X70457142Y-56352380D01*
X70219047Y-56352380D01*
X70076190Y-56400000D01*
X69219047Y-57352380D02*
X69219047Y-56828571D01*
X69266666Y-56733333D01*
X69361904Y-56685714D01*
X69552380Y-56685714D01*
X69647619Y-56733333D01*
X69219047Y-57304761D02*
X69314285Y-57352380D01*
X69552380Y-57352380D01*
X69647619Y-57304761D01*
X69695238Y-57209523D01*
X69695238Y-57114285D01*
X69647619Y-57019047D01*
X69552380Y-56971428D01*
X69314285Y-56971428D01*
X69219047Y-56923809D01*
X68742857Y-57352380D02*
X68742857Y-56685714D01*
X68742857Y-56780952D02*
X68695238Y-56733333D01*
X68600000Y-56685714D01*
X68457142Y-56685714D01*
X68361904Y-56733333D01*
X68314285Y-56828571D01*
X68314285Y-57352380D01*
X68314285Y-56828571D02*
X68266666Y-56733333D01*
X68171428Y-56685714D01*
X68028571Y-56685714D01*
X67933333Y-56733333D01*
X67885714Y-56828571D01*
X67885714Y-57352380D01*
X66980952Y-56685714D02*
X66980952Y-57352380D01*
X67409523Y-56685714D02*
X67409523Y-57209523D01*
X67361904Y-57304761D01*
X67266666Y-57352380D01*
X67123809Y-57352380D01*
X67028571Y-57304761D01*
X66980952Y-57257142D01*
X66123809Y-57304761D02*
X66219047Y-57352380D01*
X66409523Y-57352380D01*
X66504761Y-57304761D01*
X66552380Y-57209523D01*
X66552380Y-56828571D01*
X66504761Y-56733333D01*
X66409523Y-56685714D01*
X66219047Y-56685714D01*
X66123809Y-56733333D01*
X66076190Y-56828571D01*
X66076190Y-56923809D01*
X66552380Y-57019047D01*
X65504761Y-57352380D02*
X65600000Y-57304761D01*
X65647619Y-57209523D01*
X65647619Y-56352380D01*
X64361904Y-57352380D02*
X64361904Y-56352380D01*
X63790476Y-57352380D02*
X64219047Y-56780952D01*
X63790476Y-56352380D02*
X64361904Y-56923809D01*
X63361904Y-57352380D02*
X63361904Y-56685714D01*
X63361904Y-56352380D02*
X63409523Y-56400000D01*
X63361904Y-56447619D01*
X63314285Y-56400000D01*
X63361904Y-56352380D01*
X63361904Y-56447619D01*
X62885714Y-57352380D02*
X62885714Y-56685714D01*
X62885714Y-56780952D02*
X62838095Y-56733333D01*
X62742857Y-56685714D01*
X62600000Y-56685714D01*
X62504761Y-56733333D01*
X62457142Y-56828571D01*
X62457142Y-57352380D01*
X62457142Y-56828571D02*
X62409523Y-56733333D01*
X62314285Y-56685714D01*
X62171428Y-56685714D01*
X62076190Y-56733333D01*
X62028571Y-56828571D01*
X62028571Y-57352380D01*
X77638095Y-34352380D02*
X77019047Y-34352380D01*
X77352380Y-34733333D01*
X77209523Y-34733333D01*
X77114285Y-34780952D01*
X77066666Y-34828571D01*
X77019047Y-34923809D01*
X77019047Y-35161904D01*
X77066666Y-35257142D01*
X77114285Y-35304761D01*
X77209523Y-35352380D01*
X77495238Y-35352380D01*
X77590476Y-35304761D01*
X77638095Y-35257142D01*
X76733333Y-34352380D02*
X76400000Y-35352380D01*
X76066666Y-34352380D01*
X75828571Y-34352380D02*
X75209523Y-34352380D01*
X75542857Y-34733333D01*
X75400000Y-34733333D01*
X75304761Y-34780952D01*
X75257142Y-34828571D01*
X75209523Y-34923809D01*
X75209523Y-35161904D01*
X75257142Y-35257142D01*
X75304761Y-35304761D01*
X75400000Y-35352380D01*
X75685714Y-35352380D01*
X75780952Y-35304761D01*
X75828571Y-35257142D01*
D11*
%TO.C,JP1*%
X58733333Y-36709880D02*
X58733333Y-37424166D01*
X58780952Y-37567023D01*
X58876190Y-37662261D01*
X59019047Y-37709880D01*
X59114285Y-37709880D01*
X58257142Y-37709880D02*
X58257142Y-36709880D01*
X57876190Y-36709880D01*
X57780952Y-36757500D01*
X57733333Y-36805119D01*
X57685714Y-36900357D01*
X57685714Y-37043214D01*
X57733333Y-37138452D01*
X57780952Y-37186071D01*
X57876190Y-37233690D01*
X58257142Y-37233690D01*
X56733333Y-37709880D02*
X57304761Y-37709880D01*
X57019047Y-37709880D02*
X57019047Y-36709880D01*
X57114285Y-36852738D01*
X57209523Y-36947976D01*
X57304761Y-36995595D01*
%TO.C,JP2*%
X58733333Y-33909880D02*
X58733333Y-34624166D01*
X58780952Y-34767023D01*
X58876190Y-34862261D01*
X59019047Y-34909880D01*
X59114285Y-34909880D01*
X58257142Y-34909880D02*
X58257142Y-33909880D01*
X57876190Y-33909880D01*
X57780952Y-33957500D01*
X57733333Y-34005119D01*
X57685714Y-34100357D01*
X57685714Y-34243214D01*
X57733333Y-34338452D01*
X57780952Y-34386071D01*
X57876190Y-34433690D01*
X58257142Y-34433690D01*
X57304761Y-34005119D02*
X57257142Y-33957500D01*
X57161904Y-33909880D01*
X56923809Y-33909880D01*
X56828571Y-33957500D01*
X56780952Y-34005119D01*
X56733333Y-34100357D01*
X56733333Y-34195595D01*
X56780952Y-34338452D01*
X57352380Y-34909880D01*
X56733333Y-34909880D01*
D12*
%TO.C,QT_Board1*%
X48620666Y-49086833D02*
X48705333Y-49044500D01*
X48790000Y-48959833D01*
X48917000Y-48832833D01*
X49001666Y-48790500D01*
X49086333Y-48790500D01*
X49044000Y-49002166D02*
X49128666Y-48959833D01*
X49213333Y-48875166D01*
X49255666Y-48705833D01*
X49255666Y-48409500D01*
X49213333Y-48240166D01*
X49128666Y-48155500D01*
X49044000Y-48113166D01*
X48874666Y-48113166D01*
X48790000Y-48155500D01*
X48705333Y-48240166D01*
X48663000Y-48409500D01*
X48663000Y-48705833D01*
X48705333Y-48875166D01*
X48790000Y-48959833D01*
X48874666Y-49002166D01*
X49044000Y-49002166D01*
X48409000Y-48113166D02*
X47901000Y-48113166D01*
X48155000Y-49002166D02*
X48155000Y-48113166D01*
X47816333Y-49086833D02*
X47139000Y-49086833D01*
X46631000Y-48536500D02*
X46504000Y-48578833D01*
X46461666Y-48621166D01*
X46419333Y-48705833D01*
X46419333Y-48832833D01*
X46461666Y-48917500D01*
X46504000Y-48959833D01*
X46588666Y-49002166D01*
X46927333Y-49002166D01*
X46927333Y-48113166D01*
X46631000Y-48113166D01*
X46546333Y-48155500D01*
X46504000Y-48197833D01*
X46461666Y-48282500D01*
X46461666Y-48367166D01*
X46504000Y-48451833D01*
X46546333Y-48494166D01*
X46631000Y-48536500D01*
X46927333Y-48536500D01*
X45911333Y-49002166D02*
X45996000Y-48959833D01*
X46038333Y-48917500D01*
X46080666Y-48832833D01*
X46080666Y-48578833D01*
X46038333Y-48494166D01*
X45996000Y-48451833D01*
X45911333Y-48409500D01*
X45784333Y-48409500D01*
X45699666Y-48451833D01*
X45657333Y-48494166D01*
X45615000Y-48578833D01*
X45615000Y-48832833D01*
X45657333Y-48917500D01*
X45699666Y-48959833D01*
X45784333Y-49002166D01*
X45911333Y-49002166D01*
X44853000Y-49002166D02*
X44853000Y-48536500D01*
X44895333Y-48451833D01*
X44980000Y-48409500D01*
X45149333Y-48409500D01*
X45234000Y-48451833D01*
X44853000Y-48959833D02*
X44937666Y-49002166D01*
X45149333Y-49002166D01*
X45234000Y-48959833D01*
X45276333Y-48875166D01*
X45276333Y-48790500D01*
X45234000Y-48705833D01*
X45149333Y-48663500D01*
X44937666Y-48663500D01*
X44853000Y-48621166D01*
X44429666Y-49002166D02*
X44429666Y-48409500D01*
X44429666Y-48578833D02*
X44387333Y-48494166D01*
X44345000Y-48451833D01*
X44260333Y-48409500D01*
X44175666Y-48409500D01*
X43498333Y-49002166D02*
X43498333Y-48113166D01*
X43498333Y-48959833D02*
X43583000Y-49002166D01*
X43752333Y-49002166D01*
X43837000Y-48959833D01*
X43879333Y-48917500D01*
X43921666Y-48832833D01*
X43921666Y-48578833D01*
X43879333Y-48494166D01*
X43837000Y-48451833D01*
X43752333Y-48409500D01*
X43583000Y-48409500D01*
X43498333Y-48451833D01*
X42609333Y-49002166D02*
X43117333Y-49002166D01*
X42863333Y-49002166D02*
X42863333Y-48113166D01*
X42948000Y-48240166D01*
X43032666Y-48324833D01*
X43117333Y-48367166D01*
D11*
X37484880Y-42738095D02*
X38294404Y-42738095D01*
X38389642Y-42785714D01*
X38437261Y-42833333D01*
X38484880Y-42928571D01*
X38484880Y-43119047D01*
X38437261Y-43214285D01*
X38389642Y-43261904D01*
X38294404Y-43309523D01*
X37484880Y-43309523D01*
X38437261Y-43738095D02*
X38484880Y-43880952D01*
X38484880Y-44119047D01*
X38437261Y-44214285D01*
X38389642Y-44261904D01*
X38294404Y-44309523D01*
X38199166Y-44309523D01*
X38103928Y-44261904D01*
X38056309Y-44214285D01*
X38008690Y-44119047D01*
X37961071Y-43928571D01*
X37913452Y-43833333D01*
X37865833Y-43785714D01*
X37770595Y-43738095D01*
X37675357Y-43738095D01*
X37580119Y-43785714D01*
X37532500Y-43833333D01*
X37484880Y-43928571D01*
X37484880Y-44166666D01*
X37532500Y-44309523D01*
X37961071Y-45071428D02*
X38008690Y-45214285D01*
X38056309Y-45261904D01*
X38151547Y-45309523D01*
X38294404Y-45309523D01*
X38389642Y-45261904D01*
X38437261Y-45214285D01*
X38484880Y-45119047D01*
X38484880Y-44738095D01*
X37484880Y-44738095D01*
X37484880Y-45071428D01*
X37532500Y-45166666D01*
X37580119Y-45214285D01*
X37675357Y-45261904D01*
X37770595Y-45261904D01*
X37865833Y-45214285D01*
X37913452Y-45166666D01*
X37961071Y-45071428D01*
X37961071Y-44738095D01*
D13*
%TO.C,P1*%
X65532500Y-36100000D02*
X78532500Y-36100000D01*
X78532500Y-36100000D02*
X78532500Y-52300000D01*
X65532500Y-36100000D02*
X65532500Y-52300000D01*
X65532500Y-52300000D02*
X78532500Y-52300000D01*
%TO.C,J1*%
X74662500Y-33905000D02*
X74662500Y-31245000D01*
X74662500Y-31245000D02*
X64442500Y-31245000D01*
X64442500Y-33905000D02*
X64442500Y-31245000D01*
X74662500Y-33905000D02*
X64442500Y-33905000D01*
X77262500Y-31245000D02*
X75932500Y-31245000D01*
X77262500Y-32575000D02*
X77262500Y-31245000D01*
%TO.C,JP1*%
X59482500Y-36857500D02*
X59482500Y-37457500D01*
X63582500Y-37457500D02*
X63582500Y-36857500D01*
X63032500Y-38657500D02*
X62432500Y-38657500D01*
X62732500Y-38357500D02*
X62432500Y-38657500D01*
X62932500Y-36157500D02*
X60132500Y-36157500D01*
X62732500Y-38357500D02*
X63032500Y-38657500D01*
X60132500Y-38157500D02*
X62932500Y-38157500D01*
X60182500Y-36157500D02*
G75*
G03*
X59482500Y-36857500I0J-700000D01*
G01*
X59482500Y-37457500D02*
G75*
G03*
X60182500Y-38157500I700000J0D01*
G01*
X62882500Y-38157500D02*
G75*
G03*
X63582500Y-37457500I1J699999D01*
G01*
X63582500Y-36857500D02*
G75*
G03*
X62882500Y-36157500I-699999J1D01*
G01*
%TO.C,JP2*%
X60300000Y-33300000D02*
X60000000Y-33000000D01*
X60000000Y-33000000D02*
X60600000Y-33000000D01*
X63550000Y-34800000D02*
X63550000Y-34200000D01*
X60300000Y-33300000D02*
X60600000Y-33000000D01*
X59450000Y-34200000D02*
X59450000Y-34800000D01*
X62900000Y-33500000D02*
X60100000Y-33500000D01*
X60100000Y-35500000D02*
X62900000Y-35500000D01*
X60150000Y-33500000D02*
G75*
G03*
X59450000Y-34200000I-1J-699999D01*
G01*
X62850000Y-35500000D02*
G75*
G03*
X63550000Y-34800000I0J700000D01*
G01*
X63550000Y-34200000D02*
G75*
G03*
X62850000Y-33500000I-700000J0D01*
G01*
X59450000Y-34800000D02*
G75*
G03*
X60150000Y-35500000I699999J-1D01*
G01*
D14*
%TO.C,QT_Board1*%
X54297500Y-41350000D02*
X51757500Y-41350000D01*
D15*
X54932500Y-35000000D02*
X54932500Y-52797780D01*
D13*
X35032500Y-35000000D02*
X34132500Y-36300000D01*
X35232500Y-52600000D02*
X35532500Y-52600000D01*
X34132500Y-51500000D02*
X35232500Y-52600000D01*
D14*
X54297500Y-47065000D02*
X51757500Y-47065000D01*
D15*
X34132500Y-51500000D02*
X34132500Y-36300000D01*
D14*
X51757500Y-41350000D02*
X51757500Y-47065000D01*
X54297500Y-41350000D02*
X54297500Y-47065000D01*
D13*
X35032500Y-35000000D02*
X35432500Y-35000000D01*
X54932500Y-52797780D02*
X53332500Y-52800000D01*
X54932500Y-35000000D02*
X53332500Y-35000000D01*
X35732500Y-39600000D02*
X39232500Y-39600000D01*
X39232500Y-39600000D02*
X39232500Y-49200000D01*
X39232500Y-49200000D02*
X35732500Y-49200000D01*
X35732500Y-49200000D02*
X35732500Y-39600000D01*
%TO.C,Screen1*%
X50462500Y-33330000D02*
X50462500Y-30670000D01*
X53062500Y-30670000D02*
X51732500Y-30670000D01*
X42782500Y-33330000D02*
X42782500Y-30670000D01*
X53062500Y-32000000D02*
X53062500Y-30670000D01*
X50462500Y-30670000D02*
X42782500Y-30670000D01*
X50462500Y-33330000D02*
X42782500Y-33330000D01*
%TD*%
%LPC*%
D16*
%TO.C,P1*%
X69932500Y-45500000D03*
D17*
X69932500Y-42900000D03*
X69932500Y-47600000D03*
X69932500Y-40800000D03*
X67132500Y-47600000D03*
X67132500Y-40800000D03*
D18*
X72782500Y-51050000D03*
X72782500Y-37350000D03*
D19*
X73582500Y-44200000D03*
%TD*%
D20*
%TO.C,J1*%
X75932500Y-32575000D03*
D21*
X73392500Y-32575000D03*
X70852500Y-32575000D03*
X68312500Y-32575000D03*
X65772500Y-32575000D03*
%TD*%
D22*
%TO.C,JP1*%
X62832500Y-37157500D03*
D23*
X61532500Y-37157500D03*
D24*
X60232500Y-37157500D03*
%TD*%
D25*
%TO.C,JP2*%
X60200000Y-34500000D03*
D26*
X61500000Y-34500000D03*
D27*
X62800000Y-34500000D03*
%TD*%
D28*
%TO.C,QT_Board1*%
X36814680Y-35833120D03*
X39354680Y-35833120D03*
X41894680Y-35833120D03*
X44434680Y-35833120D03*
X46974680Y-35833120D03*
X49514680Y-35833120D03*
X52054680Y-35833120D03*
X52054680Y-51997680D03*
X49514680Y-51997680D03*
X46974680Y-51997680D03*
X44434680Y-51997680D03*
X41894680Y-51997680D03*
X39354680Y-51997680D03*
X36814680Y-51997680D03*
%TD*%
D20*
%TO.C,Screen1*%
X51732500Y-32000000D03*
D21*
X49192500Y-32000000D03*
X46652500Y-32000000D03*
X44112500Y-32000000D03*
%TD*%
M02*
