%TF.GenerationSoftware,KiCad,Pcbnew,6.0.7*%
%TF.CreationDate,2022-09-21T21:00:50-05:00*%
%TF.ProjectId,keyboardPCBv2,6b657962-6f61-4726-9450-434276322e6b,rev?*%
%TF.SameCoordinates,Original*%
%TF.FileFunction,Copper,L2,Bot*%
%TF.FilePolarity,Positive*%
%FSLAX46Y46*%
G04 Gerber Fmt 4.6, Leading zero omitted, Abs format (unit mm)*
G04 Created by KiCad (PCBNEW 6.0.7) date 2022-09-21 21:00:50*
%MOMM*%
%LPD*%
G01*
G04 APERTURE LIST*
G04 Aperture macros list*
%AMFreePoly0*
4,1,22,0.550000,-0.750000,0.000000,-0.750000,0.000000,-0.745033,-0.079941,-0.743568,-0.215256,-0.701293,-0.333266,-0.622738,-0.424486,-0.514219,-0.481581,-0.384460,-0.499164,-0.250000,-0.500000,-0.250000,-0.500000,0.250000,-0.499164,0.250000,-0.499963,0.256109,-0.478152,0.396186,-0.417904,0.524511,-0.324060,0.630769,-0.204165,0.706417,-0.067858,0.745374,0.000000,0.744959,0.000000,0.750000,
0.550000,0.750000,0.550000,-0.750000,0.550000,-0.750000,$1*%
%AMFreePoly1*
4,1,20,0.000000,0.744959,0.073905,0.744508,0.209726,0.703889,0.328688,0.626782,0.421226,0.519385,0.479903,0.390333,0.500000,0.250000,0.500000,-0.250000,0.499851,-0.262216,0.476331,-0.402017,0.414519,-0.529596,0.319384,-0.634700,0.198574,-0.708877,0.061801,-0.746166,0.000000,-0.745033,0.000000,-0.750000,-0.550000,-0.750000,-0.550000,0.750000,0.000000,0.750000,0.000000,0.744959,
0.000000,0.744959,$1*%
G04 Aperture macros list end*
%TA.AperFunction,ComponentPad*%
%ADD10R,1.600000X1.600000*%
%TD*%
%TA.AperFunction,ComponentPad*%
%ADD11C,1.600000*%
%TD*%
%TA.AperFunction,ComponentPad*%
%ADD12O,3.500000X2.000000*%
%TD*%
%TA.AperFunction,ComponentPad*%
%ADD13O,2.000000X4.000000*%
%TD*%
%TA.AperFunction,ComponentPad*%
%ADD14R,1.700000X1.700000*%
%TD*%
%TA.AperFunction,ComponentPad*%
%ADD15O,1.700000X1.700000*%
%TD*%
%TA.AperFunction,SMDPad,CuDef*%
%ADD16FreePoly0,180.000000*%
%TD*%
%TA.AperFunction,SMDPad,CuDef*%
%ADD17R,1.000000X1.500000*%
%TD*%
%TA.AperFunction,SMDPad,CuDef*%
%ADD18FreePoly1,180.000000*%
%TD*%
%TA.AperFunction,SMDPad,CuDef*%
%ADD19FreePoly0,0.000000*%
%TD*%
%TA.AperFunction,SMDPad,CuDef*%
%ADD20FreePoly1,0.000000*%
%TD*%
%TA.AperFunction,SMDPad,CuDef*%
%ADD21O,1.998980X2.748280*%
%TD*%
%TA.AperFunction,ViaPad*%
%ADD22C,0.800000*%
%TD*%
%TA.AperFunction,Conductor*%
%ADD23C,0.500000*%
%TD*%
%TA.AperFunction,Conductor*%
%ADD24C,0.250000*%
%TD*%
G04 APERTURE END LIST*
%TO.C,JP1*%
G36*
X62432500Y-37457500D02*
G01*
X61932500Y-37457500D01*
X61932500Y-36857500D01*
X62432500Y-36857500D01*
X62432500Y-37457500D01*
G37*
%TO.C,JP2*%
G36*
X61100000Y-34800000D02*
G01*
X60600000Y-34800000D01*
X60600000Y-34200000D01*
X61100000Y-34200000D01*
X61100000Y-34800000D01*
G37*
%TD*%
D10*
%TO.P,P1,1,1*%
%TO.N,/PS2_DAT*%
X69932500Y-45500000D03*
D11*
%TO.P,P1,2,2*%
%TO.N,unconnected-(P1-Pad2)*%
X69932500Y-42900000D03*
%TO.P,P1,3,3*%
%TO.N,GND*%
X69932500Y-47600000D03*
%TO.P,P1,4,4*%
%TO.N,+5V*%
X69932500Y-40800000D03*
%TO.P,P1,5,5*%
%TO.N,/PS2_CLK*%
X67132500Y-47600000D03*
%TO.P,P1,6*%
%TO.N,unconnected-(P1-Pad6)*%
X67132500Y-40800000D03*
D12*
%TO.P,P1,7,Shell*%
%TO.N,GND*%
X72782500Y-51050000D03*
X72782500Y-37350000D03*
D13*
X73582500Y-44200000D03*
%TD*%
D14*
%TO.P,J1,1,Pin_1*%
%TO.N,+3.3V*%
X75932500Y-32575000D03*
D15*
%TO.P,J1,2,Pin_2*%
%TO.N,GND*%
X73392500Y-32575000D03*
%TO.P,J1,3,Pin_3*%
%TO.N,EXTRA_PIN3*%
X70852500Y-32575000D03*
%TO.P,J1,4,Pin_4*%
%TO.N,EXTRA_PIN2*%
X68312500Y-32575000D03*
%TO.P,J1,5,Pin_5*%
%TO.N,EXTRA_PIN1*%
X65772500Y-32575000D03*
%TD*%
D16*
%TO.P,JP1,1,A*%
%TO.N,+3.3V*%
X62832500Y-37157500D03*
D17*
%TO.P,JP1,2,C*%
%TO.N,Net-(JP1-Pad2)*%
X61532500Y-37157500D03*
D18*
%TO.P,JP1,3,B*%
%TO.N,GND*%
X60232500Y-37157500D03*
%TD*%
D19*
%TO.P,JP2,1,A*%
%TO.N,GND*%
X60200000Y-34500000D03*
D17*
%TO.P,JP2,2,C*%
%TO.N,Net-(JP2-Pad2)*%
X61500000Y-34500000D03*
D20*
%TO.P,JP2,3,B*%
%TO.N,+3.3V*%
X62800000Y-34500000D03*
%TD*%
D21*
%TO.P,QT_Board1,1,PA02_A0_D0*%
%TO.N,EXTRA_PIN1*%
X36814680Y-35833120D03*
%TO.P,QT_Board1,2,PA4_A1_D1*%
%TO.N,SD_CS*%
X39354680Y-35833120D03*
%TO.P,QT_Board1,3,PA10_A2_D2*%
%TO.N,Keyboard_CLK*%
X41894680Y-35833120D03*
%TO.P,QT_Board1,4,PA11_A3_D3*%
%TO.N,Keyboard_DATA*%
X44434680Y-35833120D03*
%TO.P,QT_Board1,5,PA8_A4_D4_SDA*%
%TO.N,Screen_SDA*%
X46974680Y-35833120D03*
%TO.P,QT_Board1,6,PA9_A5_D5_SCL*%
%TO.N,Screen_SCL*%
X49514680Y-35833120D03*
%TO.P,QT_Board1,7,PB08_A6_D6_TX*%
%TO.N,EXTRA_PIN2*%
X52054680Y-35833120D03*
%TO.P,QT_Board1,8,PB09_A7_D7_RX*%
%TO.N,EXTRA_PIN3*%
X52054680Y-51997680D03*
%TO.P,QT_Board1,9,PA7_A8_D8_SCK*%
%TO.N,SD_SCK*%
X49514680Y-51997680D03*
%TO.P,QT_Board1,10,PA5_A9_D9_MISO*%
%TO.N,SD_MISO*%
X46974680Y-51997680D03*
%TO.P,QT_Board1,11,PA6_A10_D10_MOSI*%
%TO.N,SD_MOSI*%
X44434680Y-51997680D03*
%TO.P,QT_Board1,12,3V3*%
%TO.N,+3.3V*%
X41894680Y-51997680D03*
%TO.P,QT_Board1,13,GND*%
%TO.N,GND*%
X39354680Y-51997680D03*
%TO.P,QT_Board1,14,5V*%
%TO.N,+5V*%
X36814680Y-51997680D03*
%TD*%
D14*
%TO.P,Screen1,1,GND*%
%TO.N,Net-(JP1-Pad2)*%
X51732500Y-32000000D03*
D15*
%TO.P,Screen1,2,VDD*%
%TO.N,Net-(JP2-Pad2)*%
X49192500Y-32000000D03*
%TO.P,Screen1,3,SCK*%
%TO.N,Screen_SCL*%
X46652500Y-32000000D03*
%TO.P,Screen1,4,SDA*%
%TO.N,Screen_SDA*%
X44112500Y-32000000D03*
%TD*%
D22*
%TO.N,+5V*%
X77432500Y-40400000D03*
X74500000Y-40400000D03*
X36732500Y-53000000D03*
%TO.N,GND*%
X39332500Y-52000000D03*
X53000000Y-42300000D03*
X50700000Y-54100000D03*
X43432500Y-37800000D03*
X50100000Y-42300000D03*
X38232500Y-37800000D03*
X40532500Y-33899500D03*
X49500000Y-38700000D03*
X50844799Y-50474500D03*
X39200000Y-54500000D03*
%TO.N,+3.3V*%
X62800000Y-40000000D03*
X74500000Y-35000000D03*
X42832500Y-54500000D03*
X63832500Y-35000000D03*
X62800000Y-41700000D03*
%TO.N,SD_CS*%
X38732500Y-40099500D03*
%TO.N,Keyboard_CLK*%
X41932500Y-34800000D03*
%TO.N,Keyboard_DATA*%
X44434680Y-35502180D03*
%TO.N,SD_SCK*%
X49200000Y-51100000D03*
%TO.N,SD_MOSI*%
X44713663Y-51998180D03*
%TO.N,SD_MISO*%
X47100000Y-52800000D03*
%TO.N,Screen_SDA*%
X46932500Y-36200000D03*
%TO.N,Screen_SCL*%
X49232500Y-35900000D03*
%TO.N,EXTRA_PIN1*%
X36932500Y-35000000D03*
%TO.N,EXTRA_PIN2*%
X52132500Y-34800000D03*
%TO.N,EXTRA_PIN3*%
X54732500Y-53600000D03*
%TO.N,Net-(JP1-Pad2)*%
X61500000Y-37075500D03*
%TO.N,Net-(JP2-Pad2)*%
X61500000Y-34600000D03*
%TD*%
D23*
%TO.N,+5V*%
X77332500Y-40400000D02*
X74500000Y-40400000D01*
D24*
X77432500Y-40400000D02*
X77332500Y-40400000D01*
D23*
%TO.N,+3.3V*%
X62700000Y-34700000D02*
X62832500Y-34832500D01*
D24*
X62800000Y-40000000D02*
X62800000Y-41700000D01*
D23*
X42832500Y-54500000D02*
X42832500Y-52935500D01*
X74500000Y-35000000D02*
X74500000Y-34007500D01*
X42832500Y-52935500D02*
X41894680Y-51997680D01*
X63832500Y-35000000D02*
X63200000Y-35000000D01*
X62832500Y-34832500D02*
X62832500Y-36900000D01*
X74500000Y-34007500D02*
X75932500Y-32575000D01*
D24*
X62700000Y-34700000D02*
X62800000Y-34600000D01*
D23*
X63200000Y-35000000D02*
X62800000Y-34600000D01*
D24*
%TO.N,SD_CS*%
X38732500Y-40099500D02*
X39354680Y-39477320D01*
X39354680Y-39477320D02*
X39354680Y-35833120D01*
%TO.N,Keyboard_CLK*%
X41894680Y-34837820D02*
X41932500Y-34800000D01*
X41894680Y-35833120D02*
X41894680Y-34837820D01*
%TO.N,Keyboard_DATA*%
X44434680Y-35833120D02*
X44434680Y-35502180D01*
%TO.N,Screen_SDA*%
X46974680Y-36157820D02*
X46932500Y-36200000D01*
%TO.N,EXTRA_PIN3*%
X53130180Y-51997680D02*
X54732500Y-53600000D01*
X52054680Y-51997680D02*
X53130180Y-51997680D01*
%TD*%
%TA.AperFunction,Conductor*%
%TO.N,GND*%
G36*
X78584121Y-30310502D02*
G01*
X78630614Y-30364158D01*
X78642000Y-30416500D01*
X78642000Y-57583500D01*
X78621998Y-57651621D01*
X78568342Y-57698114D01*
X78516000Y-57709500D01*
X34349000Y-57709500D01*
X34280879Y-57689498D01*
X34234386Y-57635842D01*
X34223000Y-57583500D01*
X34223000Y-52428656D01*
X35524690Y-52428656D01*
X35524928Y-52431373D01*
X35524928Y-52431380D01*
X35525509Y-52438020D01*
X35539435Y-52597190D01*
X35597855Y-52815218D01*
X35600177Y-52820199D01*
X35600178Y-52820200D01*
X35690922Y-53014802D01*
X35690925Y-53014807D01*
X35693248Y-53019789D01*
X35696404Y-53024296D01*
X35696405Y-53024298D01*
X35819553Y-53200171D01*
X35822715Y-53204687D01*
X35982323Y-53364295D01*
X35986831Y-53367452D01*
X35986834Y-53367454D01*
X36123952Y-53463465D01*
X36167221Y-53493762D01*
X36172203Y-53496085D01*
X36172208Y-53496088D01*
X36358522Y-53582967D01*
X36365390Y-53586428D01*
X36476443Y-53646726D01*
X36483786Y-53648652D01*
X36483785Y-53648652D01*
X36630749Y-53687207D01*
X36630753Y-53687207D01*
X36638100Y-53689135D01*
X36725895Y-53690515D01*
X36797609Y-53691642D01*
X36797612Y-53691642D01*
X36805207Y-53691761D01*
X36964051Y-53655380D01*
X36981200Y-53652679D01*
X36982568Y-53652559D01*
X37039540Y-53647575D01*
X37201665Y-53604134D01*
X37252258Y-53590578D01*
X37252260Y-53590577D01*
X37257568Y-53589155D01*
X37267345Y-53584596D01*
X37457152Y-53496088D01*
X37457157Y-53496085D01*
X37462139Y-53493762D01*
X37505408Y-53463465D01*
X37642526Y-53367454D01*
X37642529Y-53367452D01*
X37647037Y-53364295D01*
X37806645Y-53204687D01*
X37809804Y-53200176D01*
X37809808Y-53200171D01*
X37850902Y-53141482D01*
X37906359Y-53097153D01*
X37976978Y-53089844D01*
X38040338Y-53121874D01*
X38060735Y-53146609D01*
X38140967Y-53274014D01*
X38147004Y-53282084D01*
X38300739Y-53456462D01*
X38307991Y-53463465D01*
X38487626Y-53611019D01*
X38495904Y-53616773D01*
X38696825Y-53733712D01*
X38705920Y-53738069D01*
X38922948Y-53821379D01*
X38932620Y-53824226D01*
X39082944Y-53855630D01*
X39097005Y-53854507D01*
X39100680Y-53844399D01*
X39100680Y-53842406D01*
X39608680Y-53842406D01*
X39612816Y-53856492D01*
X39625794Y-53858541D01*
X39643407Y-53856503D01*
X39653315Y-53854541D01*
X39876989Y-53791248D01*
X39886440Y-53787734D01*
X40097133Y-53689486D01*
X40105897Y-53684507D01*
X40298161Y-53553844D01*
X40306036Y-53547512D01*
X40474926Y-53387801D01*
X40481687Y-53380292D01*
X40622875Y-53195626D01*
X40628336Y-53187151D01*
X40645218Y-53155666D01*
X40695036Y-53105082D01*
X40764293Y-53089462D01*
X40831001Y-53113765D01*
X40859476Y-53142936D01*
X40899552Y-53200171D01*
X40899556Y-53200176D01*
X40902715Y-53204687D01*
X41062323Y-53364295D01*
X41066831Y-53367452D01*
X41066834Y-53367454D01*
X41203952Y-53463465D01*
X41247221Y-53493762D01*
X41252203Y-53496085D01*
X41252208Y-53496088D01*
X41442015Y-53584596D01*
X41451792Y-53589155D01*
X41457100Y-53590577D01*
X41457102Y-53590578D01*
X41664505Y-53646151D01*
X41664507Y-53646151D01*
X41669820Y-53647575D01*
X41894680Y-53667248D01*
X42119540Y-53647575D01*
X42124857Y-53646150D01*
X42124859Y-53646150D01*
X42133387Y-53643865D01*
X42204364Y-53645553D01*
X42263160Y-53685347D01*
X42291109Y-53750611D01*
X42292000Y-53765571D01*
X42292000Y-54028288D01*
X42269087Y-54100739D01*
X42219491Y-54171307D01*
X42158782Y-54327019D01*
X42157791Y-54334548D01*
X42137958Y-54485185D01*
X42137958Y-54485189D01*
X42136967Y-54492716D01*
X42155307Y-54658834D01*
X42157916Y-54665965D01*
X42157917Y-54665967D01*
X42163063Y-54680027D01*
X42212742Y-54815783D01*
X42216978Y-54822086D01*
X42216978Y-54822087D01*
X42301722Y-54948200D01*
X42301725Y-54948203D01*
X42305956Y-54954500D01*
X42429569Y-55066979D01*
X42436238Y-55070600D01*
X42569773Y-55143105D01*
X42569777Y-55143106D01*
X42576443Y-55146726D01*
X42583786Y-55148652D01*
X42583785Y-55148652D01*
X42730749Y-55187207D01*
X42730753Y-55187207D01*
X42738100Y-55189135D01*
X42825895Y-55190515D01*
X42897609Y-55191642D01*
X42897612Y-55191642D01*
X42905207Y-55191761D01*
X42961207Y-55178935D01*
X43060713Y-55156145D01*
X43060716Y-55156144D01*
X43068116Y-55154449D01*
X43142394Y-55117091D01*
X43210640Y-55082768D01*
X43210643Y-55082766D01*
X43217423Y-55079356D01*
X43223195Y-55074427D01*
X43223197Y-55074425D01*
X43338730Y-54975750D01*
X43338730Y-54975749D01*
X43344508Y-54970815D01*
X43442034Y-54835094D01*
X43504370Y-54680027D01*
X43527918Y-54514567D01*
X43528071Y-54500000D01*
X43507993Y-54334083D01*
X43448918Y-54177745D01*
X43395160Y-54099527D01*
X43373000Y-54028160D01*
X43373000Y-53439162D01*
X43393002Y-53371041D01*
X43446658Y-53324548D01*
X43516932Y-53314444D01*
X43581512Y-53343938D01*
X43588095Y-53350067D01*
X43602323Y-53364295D01*
X43606831Y-53367452D01*
X43606834Y-53367454D01*
X43743952Y-53463465D01*
X43787221Y-53493762D01*
X43792203Y-53496085D01*
X43792208Y-53496088D01*
X43982015Y-53584596D01*
X43991792Y-53589155D01*
X43997100Y-53590577D01*
X43997102Y-53590578D01*
X44204505Y-53646151D01*
X44204507Y-53646151D01*
X44209820Y-53647575D01*
X44434680Y-53667248D01*
X44659540Y-53647575D01*
X44664853Y-53646151D01*
X44664855Y-53646151D01*
X44872258Y-53590578D01*
X44872260Y-53590577D01*
X44877568Y-53589155D01*
X44887345Y-53584596D01*
X45077152Y-53496088D01*
X45077157Y-53496085D01*
X45082139Y-53493762D01*
X45125408Y-53463465D01*
X45262526Y-53367454D01*
X45262529Y-53367452D01*
X45267037Y-53364295D01*
X45426645Y-53204687D01*
X45429808Y-53200171D01*
X45552955Y-53024298D01*
X45552956Y-53024296D01*
X45556112Y-53019789D01*
X45558435Y-53014807D01*
X45558438Y-53014802D01*
X45590485Y-52946076D01*
X45637402Y-52892791D01*
X45705680Y-52873330D01*
X45773640Y-52893872D01*
X45818875Y-52946076D01*
X45850922Y-53014802D01*
X45850925Y-53014807D01*
X45853248Y-53019789D01*
X45856404Y-53024296D01*
X45856405Y-53024298D01*
X45979553Y-53200171D01*
X45982715Y-53204687D01*
X46142323Y-53364295D01*
X46146831Y-53367452D01*
X46146834Y-53367454D01*
X46283952Y-53463465D01*
X46327221Y-53493762D01*
X46332203Y-53496085D01*
X46332208Y-53496088D01*
X46522015Y-53584596D01*
X46531792Y-53589155D01*
X46537100Y-53590577D01*
X46537102Y-53590578D01*
X46744505Y-53646151D01*
X46744507Y-53646151D01*
X46749820Y-53647575D01*
X46974680Y-53667248D01*
X47199540Y-53647575D01*
X47204853Y-53646151D01*
X47204855Y-53646151D01*
X47412258Y-53590578D01*
X47412260Y-53590577D01*
X47417568Y-53589155D01*
X47427345Y-53584596D01*
X47617152Y-53496088D01*
X47617157Y-53496085D01*
X47622139Y-53493762D01*
X47665408Y-53463465D01*
X47802526Y-53367454D01*
X47802529Y-53367452D01*
X47807037Y-53364295D01*
X47966645Y-53204687D01*
X47969808Y-53200171D01*
X48092955Y-53024298D01*
X48092956Y-53024296D01*
X48096112Y-53019789D01*
X48098435Y-53014807D01*
X48098438Y-53014802D01*
X48130485Y-52946076D01*
X48177402Y-52892791D01*
X48245680Y-52873330D01*
X48313640Y-52893872D01*
X48358875Y-52946076D01*
X48390922Y-53014802D01*
X48390925Y-53014807D01*
X48393248Y-53019789D01*
X48396404Y-53024296D01*
X48396405Y-53024298D01*
X48519553Y-53200171D01*
X48522715Y-53204687D01*
X48682323Y-53364295D01*
X48686831Y-53367452D01*
X48686834Y-53367454D01*
X48823952Y-53463465D01*
X48867221Y-53493762D01*
X48872203Y-53496085D01*
X48872208Y-53496088D01*
X49062015Y-53584596D01*
X49071792Y-53589155D01*
X49077100Y-53590577D01*
X49077102Y-53590578D01*
X49284505Y-53646151D01*
X49284507Y-53646151D01*
X49289820Y-53647575D01*
X49514680Y-53667248D01*
X49739540Y-53647575D01*
X49744853Y-53646151D01*
X49744855Y-53646151D01*
X49952258Y-53590578D01*
X49952260Y-53590577D01*
X49957568Y-53589155D01*
X49967345Y-53584596D01*
X50157152Y-53496088D01*
X50157157Y-53496085D01*
X50162139Y-53493762D01*
X50205408Y-53463465D01*
X50342526Y-53367454D01*
X50342529Y-53367452D01*
X50347037Y-53364295D01*
X50506645Y-53204687D01*
X50509808Y-53200171D01*
X50632955Y-53024298D01*
X50632956Y-53024296D01*
X50636112Y-53019789D01*
X50638435Y-53014807D01*
X50638438Y-53014802D01*
X50670485Y-52946076D01*
X50717402Y-52892791D01*
X50785680Y-52873330D01*
X50853640Y-52893872D01*
X50898875Y-52946076D01*
X50930922Y-53014802D01*
X50930925Y-53014807D01*
X50933248Y-53019789D01*
X50936404Y-53024296D01*
X50936405Y-53024298D01*
X51059553Y-53200171D01*
X51062715Y-53204687D01*
X51222323Y-53364295D01*
X51226831Y-53367452D01*
X51226834Y-53367454D01*
X51363952Y-53463465D01*
X51407221Y-53493762D01*
X51412203Y-53496085D01*
X51412208Y-53496088D01*
X51602015Y-53584596D01*
X51611792Y-53589155D01*
X51617100Y-53590577D01*
X51617102Y-53590578D01*
X51824505Y-53646151D01*
X51824507Y-53646151D01*
X51829820Y-53647575D01*
X52054680Y-53667248D01*
X52279540Y-53647575D01*
X52284853Y-53646151D01*
X52284855Y-53646151D01*
X52492258Y-53590578D01*
X52492260Y-53590577D01*
X52497568Y-53589155D01*
X52507345Y-53584596D01*
X52697152Y-53496088D01*
X52697157Y-53496085D01*
X52702139Y-53493762D01*
X52745408Y-53463465D01*
X52882526Y-53367454D01*
X52882529Y-53367452D01*
X52887037Y-53364295D01*
X53046645Y-53204687D01*
X53049808Y-53200171D01*
X53172955Y-53024298D01*
X53172956Y-53024296D01*
X53176112Y-53019789D01*
X53178435Y-53014807D01*
X53178438Y-53014802D01*
X53223635Y-52917875D01*
X53270552Y-52864590D01*
X53338829Y-52845129D01*
X53406789Y-52865671D01*
X53426925Y-52882030D01*
X54004738Y-53459843D01*
X54038764Y-53522155D01*
X54040565Y-53565383D01*
X54037958Y-53585183D01*
X54037958Y-53585189D01*
X54036967Y-53592716D01*
X54055307Y-53758834D01*
X54057916Y-53765965D01*
X54057917Y-53765967D01*
X54091049Y-53856503D01*
X54112742Y-53915783D01*
X54116978Y-53922086D01*
X54116978Y-53922087D01*
X54201722Y-54048200D01*
X54201725Y-54048203D01*
X54205956Y-54054500D01*
X54329569Y-54166979D01*
X54336238Y-54170600D01*
X54469773Y-54243105D01*
X54469777Y-54243106D01*
X54476443Y-54246726D01*
X54483786Y-54248652D01*
X54483785Y-54248652D01*
X54630749Y-54287207D01*
X54630753Y-54287207D01*
X54638100Y-54289135D01*
X54725895Y-54290515D01*
X54797609Y-54291642D01*
X54797612Y-54291642D01*
X54805207Y-54291761D01*
X54861207Y-54278935D01*
X54960713Y-54256145D01*
X54960716Y-54256144D01*
X54968116Y-54254449D01*
X55042394Y-54217091D01*
X55110640Y-54182768D01*
X55110643Y-54182766D01*
X55117423Y-54179356D01*
X55123195Y-54174427D01*
X55123197Y-54174425D01*
X55238730Y-54075750D01*
X55238730Y-54075749D01*
X55244508Y-54070815D01*
X55342034Y-53935094D01*
X55404370Y-53780027D01*
X55408461Y-53751284D01*
X55427337Y-53618651D01*
X55427337Y-53618648D01*
X55427918Y-53614567D01*
X55428071Y-53600000D01*
X55407993Y-53434083D01*
X55348918Y-53277745D01*
X55292479Y-53195626D01*
X55258558Y-53146270D01*
X55258557Y-53146268D01*
X55254256Y-53140011D01*
X55206154Y-53097153D01*
X55135142Y-53033884D01*
X55129472Y-53028832D01*
X55122764Y-53025280D01*
X55122762Y-53025279D01*
X54988483Y-52954183D01*
X54988481Y-52954182D01*
X54981770Y-52950629D01*
X54819678Y-52909914D01*
X54812080Y-52909874D01*
X54812078Y-52909874D01*
X54680824Y-52909187D01*
X54612809Y-52888829D01*
X54592389Y-52872284D01*
X53381575Y-51661470D01*
X53347549Y-51599158D01*
X53344670Y-51572375D01*
X53344670Y-51566704D01*
X53329925Y-51398170D01*
X53309278Y-51321114D01*
X70545775Y-51321114D01*
X70547825Y-51338830D01*
X70549785Y-51348727D01*
X70613104Y-51572494D01*
X70616616Y-51581938D01*
X70714899Y-51792705D01*
X70719878Y-51801471D01*
X70850587Y-51993802D01*
X70856919Y-52001677D01*
X71016686Y-52170626D01*
X71024195Y-52177387D01*
X71208926Y-52318625D01*
X71217405Y-52324089D01*
X71422347Y-52433978D01*
X71431599Y-52438020D01*
X71651471Y-52513727D01*
X71661243Y-52516236D01*
X71891471Y-52556004D01*
X71899343Y-52556859D01*
X71923051Y-52557936D01*
X71925884Y-52558000D01*
X72510385Y-52558000D01*
X72525624Y-52553525D01*
X72526829Y-52552135D01*
X72528500Y-52544452D01*
X72528500Y-52539885D01*
X73036500Y-52539885D01*
X73040975Y-52555124D01*
X73042365Y-52556329D01*
X73050048Y-52558000D01*
X73590956Y-52558000D01*
X73595988Y-52557798D01*
X73769343Y-52543850D01*
X73779296Y-52542238D01*
X74005133Y-52486767D01*
X74014703Y-52483584D01*
X74228765Y-52392720D01*
X74237707Y-52388045D01*
X74434487Y-52264126D01*
X74442560Y-52258086D01*
X74617000Y-52104297D01*
X74624004Y-52097044D01*
X74771610Y-51917346D01*
X74777366Y-51909064D01*
X74894341Y-51708081D01*
X74898703Y-51698976D01*
X74982037Y-51481885D01*
X74984888Y-51472196D01*
X75016321Y-51321736D01*
X75015198Y-51307675D01*
X75005090Y-51304000D01*
X73054615Y-51304000D01*
X73039376Y-51308475D01*
X73038171Y-51309865D01*
X73036500Y-51317548D01*
X73036500Y-52539885D01*
X72528500Y-52539885D01*
X72528500Y-51322115D01*
X72524025Y-51306876D01*
X72522635Y-51305671D01*
X72514952Y-51304000D01*
X70561910Y-51304000D01*
X70547824Y-51308136D01*
X70545775Y-51321114D01*
X53309278Y-51321114D01*
X53306264Y-51309865D01*
X53272928Y-51185452D01*
X53272927Y-51185450D01*
X53271505Y-51180142D01*
X53210485Y-51049284D01*
X53178438Y-50980558D01*
X53178435Y-50980553D01*
X53176112Y-50975571D01*
X53172955Y-50971062D01*
X53049804Y-50795184D01*
X53049802Y-50795181D01*
X53046645Y-50790673D01*
X53034236Y-50778264D01*
X70548679Y-50778264D01*
X70549802Y-50792325D01*
X70559910Y-50796000D01*
X72510385Y-50796000D01*
X72525624Y-50791525D01*
X72526829Y-50790135D01*
X72528500Y-50782452D01*
X72528500Y-50777885D01*
X73036500Y-50777885D01*
X73040975Y-50793124D01*
X73042365Y-50794329D01*
X73050048Y-50796000D01*
X75003090Y-50796000D01*
X75017176Y-50791864D01*
X75019225Y-50778886D01*
X75017175Y-50761170D01*
X75015215Y-50751273D01*
X74951896Y-50527506D01*
X74948384Y-50518062D01*
X74850101Y-50307295D01*
X74845122Y-50298529D01*
X74714413Y-50106198D01*
X74708081Y-50098323D01*
X74548314Y-49929374D01*
X74540805Y-49922613D01*
X74356074Y-49781375D01*
X74347595Y-49775911D01*
X74142653Y-49666022D01*
X74133401Y-49661980D01*
X73913529Y-49586273D01*
X73903757Y-49583764D01*
X73673529Y-49543996D01*
X73665657Y-49543141D01*
X73641949Y-49542064D01*
X73639116Y-49542000D01*
X73054615Y-49542000D01*
X73039376Y-49546475D01*
X73038171Y-49547865D01*
X73036500Y-49555548D01*
X73036500Y-50777885D01*
X72528500Y-50777885D01*
X72528500Y-49560115D01*
X72524025Y-49544876D01*
X72522635Y-49543671D01*
X72514952Y-49542000D01*
X71974044Y-49542000D01*
X71969012Y-49542202D01*
X71795657Y-49556150D01*
X71785704Y-49557762D01*
X71559867Y-49613233D01*
X71550297Y-49616416D01*
X71336235Y-49707280D01*
X71327293Y-49711955D01*
X71130513Y-49835874D01*
X71122440Y-49841914D01*
X70948000Y-49995703D01*
X70940996Y-50002956D01*
X70793390Y-50182654D01*
X70787634Y-50190936D01*
X70670659Y-50391919D01*
X70666297Y-50401024D01*
X70582963Y-50618115D01*
X70580112Y-50627804D01*
X70548679Y-50778264D01*
X53034236Y-50778264D01*
X52887037Y-50631065D01*
X52882529Y-50627908D01*
X52882526Y-50627906D01*
X52706648Y-50504755D01*
X52706646Y-50504754D01*
X52702139Y-50501598D01*
X52697157Y-50499275D01*
X52697152Y-50499272D01*
X52502550Y-50408528D01*
X52502549Y-50408527D01*
X52497568Y-50406205D01*
X52492260Y-50404783D01*
X52492258Y-50404782D01*
X52284855Y-50349209D01*
X52284853Y-50349209D01*
X52279540Y-50347785D01*
X52054680Y-50328112D01*
X51829820Y-50347785D01*
X51824507Y-50349209D01*
X51824505Y-50349209D01*
X51617102Y-50404782D01*
X51617100Y-50404783D01*
X51611792Y-50406205D01*
X51606811Y-50408527D01*
X51606810Y-50408528D01*
X51412208Y-50499272D01*
X51412203Y-50499275D01*
X51407221Y-50501598D01*
X51402714Y-50504754D01*
X51402712Y-50504755D01*
X51226834Y-50627906D01*
X51226831Y-50627908D01*
X51222323Y-50631065D01*
X51062715Y-50790673D01*
X51059558Y-50795181D01*
X51059556Y-50795184D01*
X50936405Y-50971062D01*
X50933248Y-50975571D01*
X50930925Y-50980553D01*
X50930922Y-50980558D01*
X50898875Y-51049284D01*
X50851958Y-51102569D01*
X50783680Y-51122030D01*
X50715720Y-51101488D01*
X50670485Y-51049284D01*
X50638438Y-50980558D01*
X50638435Y-50980553D01*
X50636112Y-50975571D01*
X50632955Y-50971062D01*
X50509804Y-50795184D01*
X50509802Y-50795181D01*
X50506645Y-50790673D01*
X50347037Y-50631065D01*
X50342529Y-50627908D01*
X50342526Y-50627906D01*
X50166648Y-50504755D01*
X50166646Y-50504754D01*
X50162139Y-50501598D01*
X50157157Y-50499275D01*
X50157152Y-50499272D01*
X49962550Y-50408528D01*
X49962549Y-50408527D01*
X49957568Y-50406205D01*
X49952260Y-50404783D01*
X49952258Y-50404782D01*
X49744855Y-50349209D01*
X49744853Y-50349209D01*
X49739540Y-50347785D01*
X49514680Y-50328112D01*
X49289820Y-50347785D01*
X49284507Y-50349209D01*
X49284505Y-50349209D01*
X49180806Y-50376995D01*
X49071792Y-50406205D01*
X49066807Y-50408530D01*
X49066803Y-50408531D01*
X49019547Y-50430567D01*
X48995714Y-50438890D01*
X48957543Y-50448054D01*
X48950799Y-50451535D01*
X48950796Y-50451536D01*
X48847687Y-50504755D01*
X48809031Y-50524707D01*
X48803309Y-50529699D01*
X48803307Y-50529700D01*
X48711645Y-50609662D01*
X48701087Y-50617926D01*
X48686828Y-50627910D01*
X48686823Y-50627914D01*
X48682323Y-50631065D01*
X48522715Y-50790673D01*
X48519558Y-50795181D01*
X48519556Y-50795184D01*
X48396405Y-50971062D01*
X48393248Y-50975571D01*
X48390925Y-50980553D01*
X48390922Y-50980558D01*
X48358875Y-51049284D01*
X48311958Y-51102569D01*
X48243680Y-51122030D01*
X48175720Y-51101488D01*
X48130485Y-51049284D01*
X48098438Y-50980558D01*
X48098435Y-50980553D01*
X48096112Y-50975571D01*
X48092955Y-50971062D01*
X47969804Y-50795184D01*
X47969802Y-50795181D01*
X47966645Y-50790673D01*
X47807037Y-50631065D01*
X47802529Y-50627908D01*
X47802526Y-50627906D01*
X47626648Y-50504755D01*
X47626646Y-50504754D01*
X47622139Y-50501598D01*
X47617157Y-50499275D01*
X47617152Y-50499272D01*
X47422550Y-50408528D01*
X47422549Y-50408527D01*
X47417568Y-50406205D01*
X47412260Y-50404783D01*
X47412258Y-50404782D01*
X47204855Y-50349209D01*
X47204853Y-50349209D01*
X47199540Y-50347785D01*
X46974680Y-50328112D01*
X46749820Y-50347785D01*
X46744507Y-50349209D01*
X46744505Y-50349209D01*
X46537102Y-50404782D01*
X46537100Y-50404783D01*
X46531792Y-50406205D01*
X46526811Y-50408527D01*
X46526810Y-50408528D01*
X46332208Y-50499272D01*
X46332203Y-50499275D01*
X46327221Y-50501598D01*
X46322714Y-50504754D01*
X46322712Y-50504755D01*
X46146834Y-50627906D01*
X46146831Y-50627908D01*
X46142323Y-50631065D01*
X45982715Y-50790673D01*
X45979558Y-50795181D01*
X45979556Y-50795184D01*
X45856405Y-50971062D01*
X45853248Y-50975571D01*
X45850925Y-50980553D01*
X45850922Y-50980558D01*
X45818875Y-51049284D01*
X45771958Y-51102569D01*
X45703680Y-51122030D01*
X45635720Y-51101488D01*
X45590485Y-51049284D01*
X45558438Y-50980558D01*
X45558435Y-50980553D01*
X45556112Y-50975571D01*
X45552955Y-50971062D01*
X45429804Y-50795184D01*
X45429802Y-50795181D01*
X45426645Y-50790673D01*
X45267037Y-50631065D01*
X45262529Y-50627908D01*
X45262526Y-50627906D01*
X45086648Y-50504755D01*
X45086646Y-50504754D01*
X45082139Y-50501598D01*
X45077157Y-50499275D01*
X45077152Y-50499272D01*
X44882550Y-50408528D01*
X44882549Y-50408527D01*
X44877568Y-50406205D01*
X44872260Y-50404783D01*
X44872258Y-50404782D01*
X44664855Y-50349209D01*
X44664853Y-50349209D01*
X44659540Y-50347785D01*
X44434680Y-50328112D01*
X44209820Y-50347785D01*
X44204507Y-50349209D01*
X44204505Y-50349209D01*
X43997102Y-50404782D01*
X43997100Y-50404783D01*
X43991792Y-50406205D01*
X43986811Y-50408527D01*
X43986810Y-50408528D01*
X43792208Y-50499272D01*
X43792203Y-50499275D01*
X43787221Y-50501598D01*
X43782714Y-50504754D01*
X43782712Y-50504755D01*
X43606834Y-50627906D01*
X43606831Y-50627908D01*
X43602323Y-50631065D01*
X43442715Y-50790673D01*
X43439558Y-50795181D01*
X43439556Y-50795184D01*
X43316405Y-50971062D01*
X43313248Y-50975571D01*
X43310925Y-50980553D01*
X43310922Y-50980558D01*
X43278875Y-51049284D01*
X43231958Y-51102569D01*
X43163680Y-51122030D01*
X43095720Y-51101488D01*
X43050485Y-51049284D01*
X43018438Y-50980558D01*
X43018435Y-50980553D01*
X43016112Y-50975571D01*
X43012955Y-50971062D01*
X42889804Y-50795184D01*
X42889802Y-50795181D01*
X42886645Y-50790673D01*
X42727037Y-50631065D01*
X42722529Y-50627908D01*
X42722526Y-50627906D01*
X42546648Y-50504755D01*
X42546646Y-50504754D01*
X42542139Y-50501598D01*
X42537157Y-50499275D01*
X42537152Y-50499272D01*
X42342550Y-50408528D01*
X42342549Y-50408527D01*
X42337568Y-50406205D01*
X42332260Y-50404783D01*
X42332258Y-50404782D01*
X42124855Y-50349209D01*
X42124853Y-50349209D01*
X42119540Y-50347785D01*
X41894680Y-50328112D01*
X41669820Y-50347785D01*
X41664507Y-50349209D01*
X41664505Y-50349209D01*
X41457102Y-50404782D01*
X41457100Y-50404783D01*
X41451792Y-50406205D01*
X41446811Y-50408527D01*
X41446810Y-50408528D01*
X41252208Y-50499272D01*
X41252203Y-50499275D01*
X41247221Y-50501598D01*
X41242714Y-50504754D01*
X41242712Y-50504755D01*
X41066834Y-50627906D01*
X41066831Y-50627908D01*
X41062323Y-50631065D01*
X40902715Y-50790673D01*
X40899557Y-50795183D01*
X40899552Y-50795189D01*
X40858458Y-50853878D01*
X40803001Y-50898207D01*
X40732382Y-50905516D01*
X40669022Y-50873486D01*
X40648625Y-50848751D01*
X40568393Y-50721346D01*
X40562356Y-50713276D01*
X40408621Y-50538898D01*
X40401369Y-50531895D01*
X40221734Y-50384341D01*
X40213456Y-50378587D01*
X40012535Y-50261648D01*
X40003440Y-50257291D01*
X39786412Y-50173981D01*
X39776740Y-50171134D01*
X39626416Y-50139730D01*
X39612355Y-50140853D01*
X39608680Y-50150961D01*
X39608680Y-53842406D01*
X39100680Y-53842406D01*
X39100680Y-50152954D01*
X39096544Y-50138868D01*
X39083566Y-50136819D01*
X39065953Y-50138857D01*
X39056045Y-50140819D01*
X38832371Y-50204112D01*
X38822920Y-50207626D01*
X38612227Y-50305874D01*
X38603463Y-50310853D01*
X38411199Y-50441516D01*
X38403324Y-50447848D01*
X38234434Y-50607559D01*
X38227673Y-50615068D01*
X38086485Y-50799734D01*
X38081024Y-50808209D01*
X38064142Y-50839694D01*
X38014324Y-50890278D01*
X37945067Y-50905898D01*
X37878359Y-50881595D01*
X37849884Y-50852424D01*
X37809808Y-50795189D01*
X37809803Y-50795183D01*
X37806645Y-50790673D01*
X37647037Y-50631065D01*
X37642529Y-50627908D01*
X37642526Y-50627906D01*
X37466648Y-50504755D01*
X37466646Y-50504754D01*
X37462139Y-50501598D01*
X37457157Y-50499275D01*
X37457152Y-50499272D01*
X37262550Y-50408528D01*
X37262549Y-50408527D01*
X37257568Y-50406205D01*
X37252260Y-50404783D01*
X37252258Y-50404782D01*
X37044855Y-50349209D01*
X37044853Y-50349209D01*
X37039540Y-50347785D01*
X36814680Y-50328112D01*
X36589820Y-50347785D01*
X36584507Y-50349209D01*
X36584505Y-50349209D01*
X36377102Y-50404782D01*
X36377100Y-50404783D01*
X36371792Y-50406205D01*
X36366811Y-50408527D01*
X36366810Y-50408528D01*
X36172208Y-50499272D01*
X36172203Y-50499275D01*
X36167221Y-50501598D01*
X36162714Y-50504754D01*
X36162712Y-50504755D01*
X35986834Y-50627906D01*
X35986831Y-50627908D01*
X35982323Y-50631065D01*
X35822715Y-50790673D01*
X35819558Y-50795181D01*
X35819556Y-50795184D01*
X35696405Y-50971062D01*
X35693248Y-50975571D01*
X35690925Y-50980553D01*
X35690922Y-50980558D01*
X35658875Y-51049284D01*
X35597855Y-51180142D01*
X35596433Y-51185450D01*
X35596432Y-51185452D01*
X35563096Y-51309865D01*
X35539435Y-51398170D01*
X35524690Y-51566704D01*
X35524690Y-52428656D01*
X34223000Y-52428656D01*
X34223000Y-48588893D01*
X39859076Y-48588893D01*
X39860129Y-48599634D01*
X39876382Y-48765394D01*
X39932361Y-48933675D01*
X39936008Y-48939697D01*
X39950498Y-48963622D01*
X40024232Y-49085372D01*
X40147428Y-49212945D01*
X40295826Y-49310054D01*
X40302430Y-49312510D01*
X40455449Y-49369417D01*
X40455451Y-49369417D01*
X40462051Y-49371872D01*
X40469034Y-49372804D01*
X40469035Y-49372804D01*
X40630859Y-49394397D01*
X40630863Y-49394397D01*
X40637840Y-49395328D01*
X40644851Y-49394690D01*
X40644855Y-49394690D01*
X40784332Y-49381996D01*
X40814458Y-49379254D01*
X40821160Y-49377076D01*
X40821162Y-49377076D01*
X40976426Y-49326628D01*
X40976429Y-49326627D01*
X40983125Y-49324451D01*
X41135460Y-49233641D01*
X41263890Y-49111339D01*
X41277778Y-49090436D01*
X41358132Y-48969494D01*
X41358133Y-48969492D01*
X41362033Y-48963622D01*
X41425010Y-48797833D01*
X41443952Y-48663056D01*
X41449141Y-48626134D01*
X41449141Y-48626131D01*
X41449692Y-48622212D01*
X41450002Y-48600000D01*
X41430233Y-48423758D01*
X41426468Y-48412944D01*
X41374225Y-48262922D01*
X41374224Y-48262920D01*
X41371910Y-48256275D01*
X41277930Y-48105876D01*
X41152965Y-47980035D01*
X41085314Y-47937103D01*
X41009168Y-47888779D01*
X41009165Y-47888777D01*
X41003225Y-47885008D01*
X40983368Y-47877937D01*
X40842788Y-47827878D01*
X40842786Y-47827877D01*
X40836154Y-47825516D01*
X40829166Y-47824683D01*
X40829163Y-47824682D01*
X40707953Y-47810229D01*
X40660054Y-47804517D01*
X40653051Y-47805253D01*
X40653050Y-47805253D01*
X40490678Y-47822319D01*
X40490676Y-47822320D01*
X40483678Y-47823055D01*
X40404677Y-47849949D01*
X40322462Y-47877937D01*
X40322459Y-47877938D01*
X40315792Y-47880208D01*
X40309794Y-47883898D01*
X40309792Y-47883899D01*
X40301860Y-47888779D01*
X40164740Y-47973136D01*
X40159709Y-47978063D01*
X40159706Y-47978065D01*
X40152591Y-47985033D01*
X40038030Y-48097219D01*
X39941960Y-48246292D01*
X39939550Y-48252912D01*
X39939550Y-48252913D01*
X39895331Y-48374404D01*
X39881303Y-48412944D01*
X39859076Y-48588893D01*
X34223000Y-48588893D01*
X34223000Y-47571332D01*
X66037703Y-47571332D01*
X66050811Y-47771323D01*
X66100145Y-47965576D01*
X66102564Y-47970823D01*
X66181634Y-48142340D01*
X66181637Y-48142345D01*
X66184053Y-48147586D01*
X66187384Y-48152299D01*
X66187385Y-48152301D01*
X66264211Y-48261006D01*
X66299725Y-48311257D01*
X66303861Y-48315286D01*
X66404110Y-48412944D01*
X66443286Y-48451108D01*
X66609929Y-48562456D01*
X66615237Y-48564737D01*
X66615238Y-48564737D01*
X66788770Y-48639292D01*
X66788773Y-48639293D01*
X66794073Y-48641570D01*
X66799703Y-48642844D01*
X66938659Y-48674287D01*
X66989551Y-48685803D01*
X66995322Y-48686030D01*
X66995324Y-48686030D01*
X67062266Y-48688660D01*
X67189817Y-48693671D01*
X67242293Y-48686062D01*
X69210993Y-48686062D01*
X69220289Y-48698077D01*
X69271494Y-48733931D01*
X69280989Y-48739414D01*
X69478447Y-48831490D01*
X69488739Y-48835236D01*
X69699188Y-48891625D01*
X69709981Y-48893528D01*
X69927025Y-48912517D01*
X69937975Y-48912517D01*
X70155019Y-48893528D01*
X70165812Y-48891625D01*
X70376261Y-48835236D01*
X70386553Y-48831490D01*
X70584011Y-48739414D01*
X70593506Y-48733931D01*
X70645548Y-48697491D01*
X70653924Y-48687012D01*
X70646856Y-48673566D01*
X69945312Y-47972022D01*
X69931368Y-47964408D01*
X69929535Y-47964539D01*
X69922920Y-47968790D01*
X69217423Y-48674287D01*
X69210993Y-48686062D01*
X67242293Y-48686062D01*
X67288990Y-48679291D01*
X67382449Y-48665741D01*
X67382454Y-48665740D01*
X67388163Y-48664912D01*
X67393627Y-48663057D01*
X67393632Y-48663056D01*
X67572479Y-48602345D01*
X67577947Y-48600489D01*
X67752812Y-48502560D01*
X67906904Y-48374404D01*
X68035060Y-48220312D01*
X68132989Y-48045447D01*
X68157535Y-47973136D01*
X68195556Y-47861132D01*
X68195557Y-47861127D01*
X68197412Y-47855663D01*
X68198240Y-47849954D01*
X68198241Y-47849949D01*
X68225638Y-47660991D01*
X68226171Y-47657317D01*
X68227529Y-47605475D01*
X68619983Y-47605475D01*
X68638972Y-47822519D01*
X68640875Y-47833312D01*
X68697264Y-48043761D01*
X68701010Y-48054053D01*
X68793086Y-48251511D01*
X68798569Y-48261006D01*
X68835009Y-48313048D01*
X68845488Y-48321424D01*
X68858934Y-48314356D01*
X69560478Y-47612812D01*
X69566856Y-47601132D01*
X70296908Y-47601132D01*
X70297039Y-47602965D01*
X70301290Y-47609580D01*
X71006787Y-48315077D01*
X71018562Y-48321507D01*
X71030577Y-48312211D01*
X71066431Y-48261006D01*
X71071914Y-48251511D01*
X71163990Y-48054053D01*
X71167736Y-48043761D01*
X71224125Y-47833312D01*
X71226028Y-47822519D01*
X71245017Y-47605475D01*
X71245017Y-47594525D01*
X71226028Y-47377481D01*
X71224125Y-47366688D01*
X71167736Y-47156239D01*
X71163990Y-47145947D01*
X71071914Y-46948489D01*
X71066431Y-46938994D01*
X71029991Y-46886952D01*
X71019512Y-46878576D01*
X71006066Y-46885644D01*
X70304522Y-47587188D01*
X70296908Y-47601132D01*
X69566856Y-47601132D01*
X69568092Y-47598868D01*
X69567961Y-47597035D01*
X69563710Y-47590420D01*
X68858213Y-46884923D01*
X68846438Y-46878493D01*
X68834423Y-46887789D01*
X68798569Y-46938994D01*
X68793086Y-46948489D01*
X68701010Y-47145947D01*
X68697264Y-47156239D01*
X68640875Y-47366688D01*
X68638972Y-47377481D01*
X68619983Y-47594525D01*
X68619983Y-47605475D01*
X68227529Y-47605475D01*
X68227672Y-47600000D01*
X68209333Y-47400421D01*
X68201403Y-47372301D01*
X68156500Y-47213089D01*
X68154931Y-47207525D01*
X68066288Y-47027774D01*
X67946371Y-46867187D01*
X67942135Y-46863271D01*
X67803439Y-46735062D01*
X67803437Y-46735060D01*
X67799198Y-46731142D01*
X67629698Y-46624195D01*
X67443546Y-46549927D01*
X67437878Y-46548800D01*
X67437876Y-46548799D01*
X67252644Y-46511954D01*
X67252641Y-46511954D01*
X67246977Y-46510827D01*
X67241202Y-46510751D01*
X67241198Y-46510751D01*
X67141344Y-46509444D01*
X67046574Y-46508204D01*
X67040877Y-46509183D01*
X67040876Y-46509183D01*
X66886987Y-46535626D01*
X66849049Y-46542145D01*
X66661016Y-46611514D01*
X66656055Y-46614466D01*
X66656054Y-46614466D01*
X66539479Y-46683821D01*
X66488774Y-46713987D01*
X66338090Y-46846133D01*
X66317847Y-46871811D01*
X66264885Y-46938994D01*
X66214011Y-47003527D01*
X66211323Y-47008636D01*
X66123382Y-47175784D01*
X66123380Y-47175789D01*
X66120693Y-47180896D01*
X66095900Y-47260742D01*
X66063003Y-47366688D01*
X66061260Y-47372301D01*
X66037703Y-47571332D01*
X34223000Y-47571332D01*
X34223000Y-46343158D01*
X68842000Y-46343158D01*
X68845014Y-46368489D01*
X68848851Y-46377128D01*
X68848852Y-46377131D01*
X68876382Y-46439110D01*
X68888944Y-46467391D01*
X68965534Y-46543847D01*
X68976173Y-46548551D01*
X68976174Y-46548551D01*
X68984132Y-46552069D01*
X69064513Y-46587605D01*
X69080783Y-46589502D01*
X69085703Y-46590076D01*
X69085708Y-46590076D01*
X69089342Y-46590500D01*
X69230020Y-46590500D01*
X69298141Y-46610502D01*
X69319115Y-46627405D01*
X69919688Y-47227978D01*
X69933632Y-47235592D01*
X69935465Y-47235461D01*
X69942080Y-47231210D01*
X70545885Y-46627405D01*
X70608197Y-46593379D01*
X70634980Y-46590500D01*
X70775658Y-46590500D01*
X70784245Y-46589478D01*
X70791597Y-46588604D01*
X70791600Y-46588603D01*
X70800989Y-46587486D01*
X70809628Y-46583649D01*
X70809631Y-46583648D01*
X70889263Y-46548277D01*
X70889264Y-46548276D01*
X70899891Y-46543556D01*
X70976347Y-46466966D01*
X71020105Y-46367987D01*
X71023000Y-46343158D01*
X71023000Y-45258456D01*
X72074500Y-45258456D01*
X72074702Y-45263488D01*
X72088650Y-45436843D01*
X72090262Y-45446796D01*
X72145733Y-45672633D01*
X72148916Y-45682203D01*
X72239780Y-45896265D01*
X72244455Y-45905207D01*
X72368374Y-46101987D01*
X72374414Y-46110060D01*
X72528203Y-46284500D01*
X72535456Y-46291504D01*
X72715154Y-46439110D01*
X72723436Y-46444866D01*
X72924419Y-46561841D01*
X72933524Y-46566203D01*
X73150615Y-46649537D01*
X73160304Y-46652388D01*
X73310764Y-46683821D01*
X73324825Y-46682698D01*
X73328500Y-46672590D01*
X73328500Y-46670590D01*
X73836500Y-46670590D01*
X73840636Y-46684676D01*
X73853614Y-46686725D01*
X73871330Y-46684675D01*
X73881227Y-46682715D01*
X74104994Y-46619396D01*
X74114438Y-46615884D01*
X74325205Y-46517601D01*
X74333971Y-46512622D01*
X74526302Y-46381913D01*
X74534177Y-46375581D01*
X74703126Y-46215814D01*
X74709887Y-46208305D01*
X74851125Y-46023574D01*
X74856589Y-46015095D01*
X74966478Y-45810153D01*
X74970520Y-45800901D01*
X75046227Y-45581029D01*
X75048736Y-45571257D01*
X75088504Y-45341029D01*
X75089359Y-45333157D01*
X75090436Y-45309449D01*
X75090500Y-45306616D01*
X75090500Y-44472115D01*
X75086025Y-44456876D01*
X75084635Y-44455671D01*
X75076952Y-44454000D01*
X73854615Y-44454000D01*
X73839376Y-44458475D01*
X73838171Y-44459865D01*
X73836500Y-44467548D01*
X73836500Y-46670590D01*
X73328500Y-46670590D01*
X73328500Y-44472115D01*
X73324025Y-44456876D01*
X73322635Y-44455671D01*
X73314952Y-44454000D01*
X72092615Y-44454000D01*
X72077376Y-44458475D01*
X72076171Y-44459865D01*
X72074500Y-44467548D01*
X72074500Y-45258456D01*
X71023000Y-45258456D01*
X71023000Y-44656842D01*
X71019986Y-44631511D01*
X71016149Y-44622872D01*
X71016148Y-44622869D01*
X70980777Y-44543237D01*
X70980776Y-44543236D01*
X70976056Y-44532609D01*
X70899466Y-44456153D01*
X70800487Y-44412395D01*
X70784217Y-44410498D01*
X70779297Y-44409924D01*
X70779292Y-44409924D01*
X70775658Y-44409500D01*
X69089342Y-44409500D01*
X69080755Y-44410522D01*
X69073403Y-44411396D01*
X69073400Y-44411397D01*
X69064011Y-44412514D01*
X69055372Y-44416351D01*
X69055369Y-44416352D01*
X68975737Y-44451723D01*
X68975736Y-44451724D01*
X68965109Y-44456444D01*
X68888653Y-44533034D01*
X68844895Y-44632013D01*
X68842000Y-44656842D01*
X68842000Y-46343158D01*
X34223000Y-46343158D01*
X34223000Y-42871332D01*
X68837703Y-42871332D01*
X68850811Y-43071323D01*
X68900145Y-43265576D01*
X68902564Y-43270823D01*
X68981634Y-43442340D01*
X68981637Y-43442345D01*
X68984053Y-43447586D01*
X69099725Y-43611257D01*
X69243286Y-43751108D01*
X69409929Y-43862456D01*
X69415237Y-43864737D01*
X69415238Y-43864737D01*
X69588770Y-43939292D01*
X69588773Y-43939293D01*
X69594073Y-43941570D01*
X69599703Y-43942844D01*
X69689026Y-43963056D01*
X69789551Y-43985803D01*
X69795322Y-43986030D01*
X69795324Y-43986030D01*
X69862266Y-43988660D01*
X69989817Y-43993671D01*
X70088990Y-43979292D01*
X70182449Y-43965741D01*
X70182454Y-43965740D01*
X70188163Y-43964912D01*
X70193627Y-43963057D01*
X70193632Y-43963056D01*
X70297241Y-43927885D01*
X72074500Y-43927885D01*
X72078975Y-43943124D01*
X72080365Y-43944329D01*
X72088048Y-43946000D01*
X73310385Y-43946000D01*
X73325624Y-43941525D01*
X73326829Y-43940135D01*
X73328500Y-43932452D01*
X73328500Y-43927885D01*
X73836500Y-43927885D01*
X73840975Y-43943124D01*
X73842365Y-43944329D01*
X73850048Y-43946000D01*
X75072385Y-43946000D01*
X75087624Y-43941525D01*
X75088829Y-43940135D01*
X75090500Y-43932452D01*
X75090500Y-43141544D01*
X75090298Y-43136512D01*
X75076350Y-42963157D01*
X75074738Y-42953204D01*
X75019267Y-42727367D01*
X75016084Y-42717797D01*
X74925220Y-42503735D01*
X74920545Y-42494793D01*
X74796626Y-42298013D01*
X74790586Y-42289940D01*
X74636797Y-42115500D01*
X74629544Y-42108496D01*
X74449846Y-41960890D01*
X74441564Y-41955134D01*
X74240581Y-41838159D01*
X74231476Y-41833797D01*
X74014385Y-41750463D01*
X74004696Y-41747612D01*
X73854236Y-41716179D01*
X73840175Y-41717302D01*
X73836500Y-41727410D01*
X73836500Y-43927885D01*
X73328500Y-43927885D01*
X73328500Y-41729410D01*
X73324364Y-41715324D01*
X73311386Y-41713275D01*
X73293670Y-41715325D01*
X73283773Y-41717285D01*
X73060006Y-41780604D01*
X73050562Y-41784116D01*
X72839795Y-41882399D01*
X72831029Y-41887378D01*
X72638698Y-42018087D01*
X72630823Y-42024419D01*
X72461874Y-42184186D01*
X72455113Y-42191695D01*
X72313875Y-42376426D01*
X72308411Y-42384905D01*
X72198522Y-42589847D01*
X72194480Y-42599099D01*
X72118773Y-42818971D01*
X72116264Y-42828743D01*
X72076496Y-43058971D01*
X72075641Y-43066843D01*
X72074564Y-43090551D01*
X72074500Y-43093384D01*
X72074500Y-43927885D01*
X70297241Y-43927885D01*
X70372479Y-43902345D01*
X70377947Y-43900489D01*
X70552812Y-43802560D01*
X70706904Y-43674404D01*
X70835060Y-43520312D01*
X70932989Y-43345447D01*
X70948363Y-43300158D01*
X70995556Y-43161132D01*
X70995557Y-43161127D01*
X70997412Y-43155663D01*
X70998240Y-43149954D01*
X70998241Y-43149949D01*
X71025638Y-42960991D01*
X71026171Y-42957317D01*
X71027672Y-42900000D01*
X71009333Y-42700421D01*
X71001403Y-42672301D01*
X70956500Y-42513089D01*
X70954931Y-42507525D01*
X70879443Y-42354449D01*
X70868843Y-42332955D01*
X70866288Y-42327774D01*
X70746371Y-42167187D01*
X70738172Y-42159608D01*
X70603439Y-42035062D01*
X70603437Y-42035060D01*
X70599198Y-42031142D01*
X70594320Y-42028064D01*
X70594308Y-42028055D01*
X70480609Y-41956316D01*
X70433671Y-41903050D01*
X70422983Y-41832862D01*
X70451937Y-41768038D01*
X70486279Y-41739820D01*
X70504868Y-41729410D01*
X70552812Y-41702560D01*
X70706904Y-41574404D01*
X70835060Y-41420312D01*
X70932989Y-41245447D01*
X70954213Y-41182922D01*
X70995556Y-41061132D01*
X70995557Y-41061127D01*
X70997412Y-41055663D01*
X70998240Y-41049954D01*
X70998241Y-41049949D01*
X71025638Y-40860991D01*
X71026171Y-40857317D01*
X71027672Y-40800000D01*
X71009333Y-40600421D01*
X71001403Y-40572301D01*
X70974172Y-40475750D01*
X70954931Y-40407525D01*
X70947628Y-40392716D01*
X73804467Y-40392716D01*
X73809251Y-40436044D01*
X73821578Y-40547700D01*
X73822807Y-40558834D01*
X73825416Y-40565965D01*
X73825417Y-40565967D01*
X73870998Y-40690522D01*
X73880242Y-40715783D01*
X73884478Y-40722086D01*
X73884478Y-40722087D01*
X73969222Y-40848200D01*
X73969225Y-40848203D01*
X73973456Y-40854500D01*
X74097069Y-40966979D01*
X74103738Y-40970600D01*
X74237273Y-41043105D01*
X74237277Y-41043106D01*
X74243943Y-41046726D01*
X74251286Y-41048652D01*
X74251285Y-41048652D01*
X74398249Y-41087207D01*
X74398253Y-41087207D01*
X74405600Y-41089135D01*
X74493395Y-41090515D01*
X74565109Y-41091642D01*
X74565112Y-41091642D01*
X74572707Y-41091761D01*
X74628707Y-41078935D01*
X74728213Y-41056145D01*
X74728216Y-41056144D01*
X74735616Y-41054449D01*
X74809894Y-41017091D01*
X74878140Y-40982768D01*
X74878143Y-40982766D01*
X74884923Y-40979356D01*
X74890696Y-40974425D01*
X74890701Y-40974422D01*
X74895073Y-40970688D01*
X74959863Y-40941657D01*
X74976902Y-40940500D01*
X76953673Y-40940500D01*
X77025749Y-40963503D01*
X77029569Y-40966979D01*
X77036244Y-40970603D01*
X77036245Y-40970604D01*
X77169773Y-41043105D01*
X77169777Y-41043106D01*
X77176443Y-41046726D01*
X77183786Y-41048652D01*
X77183785Y-41048652D01*
X77330749Y-41087207D01*
X77330753Y-41087207D01*
X77338100Y-41089135D01*
X77425895Y-41090515D01*
X77497609Y-41091642D01*
X77497612Y-41091642D01*
X77505207Y-41091761D01*
X77561207Y-41078935D01*
X77660713Y-41056145D01*
X77660716Y-41056144D01*
X77668116Y-41054449D01*
X77742394Y-41017091D01*
X77810640Y-40982768D01*
X77810643Y-40982766D01*
X77817423Y-40979356D01*
X77823195Y-40974427D01*
X77823197Y-40974425D01*
X77938730Y-40875750D01*
X77938730Y-40875749D01*
X77944508Y-40870815D01*
X78042034Y-40735094D01*
X78104370Y-40580027D01*
X78113551Y-40515517D01*
X78127337Y-40418651D01*
X78127337Y-40418648D01*
X78127918Y-40414567D01*
X78128071Y-40400000D01*
X78107993Y-40234083D01*
X78048918Y-40077745D01*
X77977022Y-39973136D01*
X77958558Y-39946270D01*
X77958557Y-39946268D01*
X77954256Y-39940011D01*
X77948152Y-39934572D01*
X77835887Y-39834548D01*
X77829472Y-39828832D01*
X77822764Y-39825280D01*
X77822762Y-39825279D01*
X77688483Y-39754183D01*
X77688481Y-39754182D01*
X77681770Y-39750629D01*
X77519678Y-39709914D01*
X77512080Y-39709874D01*
X77512078Y-39709874D01*
X77441412Y-39709504D01*
X77352553Y-39709039D01*
X77345173Y-39710811D01*
X77345171Y-39710811D01*
X77197422Y-39746282D01*
X77197418Y-39746283D01*
X77190043Y-39748054D01*
X77158005Y-39764590D01*
X77061373Y-39814466D01*
X77041531Y-39824707D01*
X77035807Y-39829700D01*
X77029526Y-39833969D01*
X77028509Y-39832473D01*
X76972752Y-39858158D01*
X76954412Y-39859500D01*
X74978984Y-39859500D01*
X74907074Y-39836965D01*
X74902646Y-39833888D01*
X74896972Y-39828832D01*
X74882603Y-39821224D01*
X74755983Y-39754183D01*
X74755981Y-39754182D01*
X74749270Y-39750629D01*
X74587178Y-39709914D01*
X74579580Y-39709874D01*
X74579578Y-39709874D01*
X74508912Y-39709504D01*
X74420053Y-39709039D01*
X74412673Y-39710811D01*
X74412671Y-39710811D01*
X74264922Y-39746282D01*
X74264918Y-39746283D01*
X74257543Y-39748054D01*
X74225505Y-39764590D01*
X74128873Y-39814466D01*
X74109031Y-39824707D01*
X74103309Y-39829699D01*
X74103307Y-39829700D01*
X74070685Y-39858158D01*
X73983090Y-39934572D01*
X73958581Y-39969445D01*
X73892083Y-40064062D01*
X73886991Y-40071307D01*
X73826282Y-40227019D01*
X73823153Y-40250784D01*
X73805458Y-40385185D01*
X73805458Y-40385189D01*
X73804467Y-40392716D01*
X70947628Y-40392716D01*
X70866288Y-40227774D01*
X70835894Y-40187071D01*
X70749824Y-40071811D01*
X70746371Y-40067187D01*
X70742135Y-40063271D01*
X70603439Y-39935062D01*
X70603437Y-39935060D01*
X70599198Y-39931142D01*
X70429698Y-39824195D01*
X70243546Y-39749927D01*
X70237878Y-39748800D01*
X70237876Y-39748799D01*
X70052644Y-39711954D01*
X70052641Y-39711954D01*
X70046977Y-39710827D01*
X70041202Y-39710751D01*
X70041198Y-39710751D01*
X69941344Y-39709444D01*
X69846574Y-39708204D01*
X69840877Y-39709183D01*
X69840876Y-39709183D01*
X69710417Y-39731600D01*
X69649049Y-39742145D01*
X69461016Y-39811514D01*
X69456055Y-39814466D01*
X69456054Y-39814466D01*
X69341454Y-39882646D01*
X69288774Y-39913987D01*
X69138090Y-40046133D01*
X69118103Y-40071487D01*
X69038464Y-40172509D01*
X69014011Y-40203527D01*
X69011323Y-40208636D01*
X68923382Y-40375784D01*
X68923380Y-40375789D01*
X68920693Y-40380896D01*
X68905211Y-40430755D01*
X68863227Y-40565967D01*
X68861260Y-40572301D01*
X68837703Y-40771332D01*
X68850811Y-40971323D01*
X68900145Y-41165576D01*
X68902564Y-41170823D01*
X68981634Y-41342340D01*
X68981637Y-41342345D01*
X68984053Y-41347586D01*
X68987384Y-41352299D01*
X68987385Y-41352301D01*
X69005823Y-41378389D01*
X69099725Y-41511257D01*
X69243286Y-41651108D01*
X69248082Y-41654313D01*
X69248085Y-41654315D01*
X69314765Y-41698869D01*
X69360473Y-41729410D01*
X69385957Y-41746438D01*
X69431485Y-41800915D01*
X69440333Y-41871358D01*
X69409691Y-41935402D01*
X69380378Y-41959488D01*
X69297746Y-42008649D01*
X69288774Y-42013987D01*
X69138090Y-42146133D01*
X69014011Y-42303527D01*
X69011323Y-42308636D01*
X68923382Y-42475784D01*
X68923380Y-42475789D01*
X68920693Y-42480896D01*
X68861260Y-42672301D01*
X68837703Y-42871332D01*
X34223000Y-42871332D01*
X34223000Y-41692716D01*
X62104467Y-41692716D01*
X62111812Y-41759246D01*
X62121824Y-41849927D01*
X62122807Y-41858834D01*
X62125416Y-41865965D01*
X62125417Y-41865967D01*
X62158048Y-41955134D01*
X62180242Y-42015783D01*
X62184478Y-42022086D01*
X62184478Y-42022087D01*
X62269222Y-42148200D01*
X62269225Y-42148203D01*
X62273456Y-42154500D01*
X62397069Y-42266979D01*
X62403738Y-42270600D01*
X62537273Y-42343105D01*
X62537277Y-42343106D01*
X62543943Y-42346726D01*
X62551286Y-42348652D01*
X62551285Y-42348652D01*
X62698249Y-42387207D01*
X62698253Y-42387207D01*
X62705600Y-42389135D01*
X62793395Y-42390515D01*
X62865109Y-42391642D01*
X62865112Y-42391642D01*
X62872707Y-42391761D01*
X62939662Y-42376426D01*
X63028213Y-42356145D01*
X63028216Y-42356144D01*
X63035616Y-42354449D01*
X63145879Y-42298993D01*
X63178140Y-42282768D01*
X63178143Y-42282766D01*
X63184923Y-42279356D01*
X63190695Y-42274427D01*
X63190697Y-42274425D01*
X63306230Y-42175750D01*
X63306230Y-42175749D01*
X63312008Y-42170815D01*
X63409534Y-42035094D01*
X63471870Y-41880027D01*
X63476215Y-41849499D01*
X63494837Y-41718651D01*
X63494837Y-41718648D01*
X63495418Y-41714567D01*
X63495571Y-41700000D01*
X63475493Y-41534083D01*
X63416418Y-41377745D01*
X63321756Y-41240011D01*
X63315652Y-41234572D01*
X63257681Y-41182922D01*
X63220125Y-41122672D01*
X63215500Y-41088846D01*
X63215500Y-40771332D01*
X66037703Y-40771332D01*
X66050811Y-40971323D01*
X66100145Y-41165576D01*
X66102564Y-41170823D01*
X66181634Y-41342340D01*
X66181637Y-41342345D01*
X66184053Y-41347586D01*
X66187384Y-41352299D01*
X66187385Y-41352301D01*
X66205823Y-41378389D01*
X66299725Y-41511257D01*
X66443286Y-41651108D01*
X66609929Y-41762456D01*
X66615237Y-41764737D01*
X66615238Y-41764737D01*
X66788770Y-41839292D01*
X66788773Y-41839293D01*
X66794073Y-41841570D01*
X66799703Y-41842844D01*
X66974508Y-41882399D01*
X66989551Y-41885803D01*
X66995322Y-41886030D01*
X66995324Y-41886030D01*
X67062266Y-41888660D01*
X67189817Y-41893671D01*
X67288990Y-41879291D01*
X67382449Y-41865741D01*
X67382454Y-41865740D01*
X67388163Y-41864912D01*
X67393627Y-41863057D01*
X67393632Y-41863056D01*
X67572479Y-41802345D01*
X67577947Y-41800489D01*
X67752812Y-41702560D01*
X67906904Y-41574404D01*
X68035060Y-41420312D01*
X68132989Y-41245447D01*
X68154213Y-41182922D01*
X68195556Y-41061132D01*
X68195557Y-41061127D01*
X68197412Y-41055663D01*
X68198240Y-41049954D01*
X68198241Y-41049949D01*
X68225638Y-40860991D01*
X68226171Y-40857317D01*
X68227672Y-40800000D01*
X68209333Y-40600421D01*
X68201403Y-40572301D01*
X68174172Y-40475750D01*
X68154931Y-40407525D01*
X68066288Y-40227774D01*
X68035894Y-40187071D01*
X67949824Y-40071811D01*
X67946371Y-40067187D01*
X67942135Y-40063271D01*
X67803439Y-39935062D01*
X67803437Y-39935060D01*
X67799198Y-39931142D01*
X67629698Y-39824195D01*
X67443546Y-39749927D01*
X67437878Y-39748800D01*
X67437876Y-39748799D01*
X67252644Y-39711954D01*
X67252641Y-39711954D01*
X67246977Y-39710827D01*
X67241202Y-39710751D01*
X67241198Y-39710751D01*
X67141344Y-39709444D01*
X67046574Y-39708204D01*
X67040877Y-39709183D01*
X67040876Y-39709183D01*
X66910417Y-39731600D01*
X66849049Y-39742145D01*
X66661016Y-39811514D01*
X66656055Y-39814466D01*
X66656054Y-39814466D01*
X66541454Y-39882646D01*
X66488774Y-39913987D01*
X66338090Y-40046133D01*
X66318103Y-40071487D01*
X66238464Y-40172509D01*
X66214011Y-40203527D01*
X66211323Y-40208636D01*
X66123382Y-40375784D01*
X66123380Y-40375789D01*
X66120693Y-40380896D01*
X66105211Y-40430755D01*
X66063227Y-40565967D01*
X66061260Y-40572301D01*
X66037703Y-40771332D01*
X63215500Y-40771332D01*
X63215500Y-40611328D01*
X63235502Y-40543207D01*
X63259669Y-40515517D01*
X63306230Y-40475750D01*
X63312008Y-40470815D01*
X63369049Y-40391435D01*
X63405100Y-40341265D01*
X63405101Y-40341263D01*
X63409534Y-40335094D01*
X63471870Y-40180027D01*
X63481573Y-40111850D01*
X63494837Y-40018651D01*
X63494837Y-40018648D01*
X63495418Y-40014567D01*
X63495571Y-40000000D01*
X63475493Y-39834083D01*
X63428574Y-39709914D01*
X63419102Y-39684848D01*
X63416418Y-39677745D01*
X63345537Y-39574612D01*
X63326058Y-39546270D01*
X63326057Y-39546268D01*
X63321756Y-39540011D01*
X63315652Y-39534572D01*
X63202642Y-39433884D01*
X63196972Y-39428832D01*
X63190264Y-39425280D01*
X63190262Y-39425279D01*
X63055983Y-39354183D01*
X63055981Y-39354182D01*
X63049270Y-39350629D01*
X62887178Y-39309914D01*
X62879580Y-39309874D01*
X62879578Y-39309874D01*
X62808912Y-39309504D01*
X62720053Y-39309039D01*
X62712673Y-39310811D01*
X62712671Y-39310811D01*
X62564922Y-39346282D01*
X62564918Y-39346283D01*
X62557543Y-39348054D01*
X62510538Y-39372315D01*
X62438661Y-39409414D01*
X62409031Y-39424707D01*
X62403309Y-39429699D01*
X62403307Y-39429700D01*
X62333211Y-39490849D01*
X62283090Y-39534572D01*
X62248067Y-39584405D01*
X62217438Y-39627986D01*
X62186991Y-39671307D01*
X62171939Y-39709914D01*
X62155504Y-39752069D01*
X62126282Y-39827019D01*
X62125291Y-39834548D01*
X62105458Y-39985185D01*
X62105458Y-39985189D01*
X62104467Y-39992716D01*
X62110865Y-40050663D01*
X62117865Y-40114067D01*
X62122807Y-40158834D01*
X62125416Y-40165965D01*
X62125417Y-40165967D01*
X62160898Y-40262922D01*
X62180242Y-40315783D01*
X62184478Y-40322086D01*
X62184478Y-40322087D01*
X62261207Y-40436271D01*
X62273456Y-40454500D01*
X62279075Y-40459613D01*
X62279076Y-40459614D01*
X62343299Y-40518052D01*
X62380222Y-40578693D01*
X62384500Y-40611246D01*
X62384500Y-41088818D01*
X62364498Y-41156939D01*
X62341329Y-41183767D01*
X62283090Y-41234572D01*
X62278723Y-41240786D01*
X62200349Y-41352301D01*
X62186991Y-41371307D01*
X62126282Y-41527019D01*
X62119558Y-41578095D01*
X62105458Y-41685185D01*
X62105458Y-41685189D01*
X62104467Y-41692716D01*
X34223000Y-41692716D01*
X34223000Y-36264096D01*
X35524690Y-36264096D01*
X35524928Y-36266813D01*
X35524928Y-36266820D01*
X35526452Y-36284233D01*
X35539435Y-36432630D01*
X35540859Y-36437943D01*
X35540859Y-36437945D01*
X35563258Y-36521538D01*
X35597855Y-36650658D01*
X35600177Y-36655639D01*
X35600178Y-36655640D01*
X35690922Y-36850242D01*
X35690925Y-36850247D01*
X35693248Y-36855229D01*
X35696404Y-36859736D01*
X35696405Y-36859738D01*
X35772250Y-36968055D01*
X35822715Y-37040127D01*
X35982323Y-37199735D01*
X35986831Y-37202892D01*
X35986834Y-37202894D01*
X36162712Y-37326045D01*
X36167221Y-37329202D01*
X36172203Y-37331525D01*
X36172208Y-37331528D01*
X36275795Y-37379831D01*
X36371792Y-37424595D01*
X36377100Y-37426017D01*
X36377102Y-37426018D01*
X36584505Y-37481591D01*
X36584507Y-37481591D01*
X36589820Y-37483015D01*
X36814680Y-37502688D01*
X37039540Y-37483015D01*
X37044853Y-37481591D01*
X37044855Y-37481591D01*
X37252258Y-37426018D01*
X37252260Y-37426017D01*
X37257568Y-37424595D01*
X37353565Y-37379831D01*
X37457152Y-37331528D01*
X37457157Y-37331525D01*
X37462139Y-37329202D01*
X37466648Y-37326045D01*
X37642526Y-37202894D01*
X37642529Y-37202892D01*
X37647037Y-37199735D01*
X37806645Y-37040127D01*
X37857111Y-36968055D01*
X37932955Y-36859738D01*
X37932956Y-36859736D01*
X37936112Y-36855229D01*
X37938435Y-36850247D01*
X37938438Y-36850242D01*
X37970485Y-36781516D01*
X38017402Y-36728231D01*
X38085680Y-36708770D01*
X38153640Y-36729312D01*
X38198875Y-36781516D01*
X38230922Y-36850242D01*
X38230925Y-36850247D01*
X38233248Y-36855229D01*
X38236404Y-36859736D01*
X38236405Y-36859738D01*
X38312250Y-36968055D01*
X38362715Y-37040127D01*
X38522323Y-37199735D01*
X38526831Y-37202892D01*
X38526834Y-37202894D01*
X38702712Y-37326045D01*
X38707221Y-37329202D01*
X38712203Y-37331525D01*
X38712208Y-37331528D01*
X38780855Y-37363538D01*
X38866431Y-37403443D01*
X38919715Y-37450359D01*
X38939180Y-37517637D01*
X38939180Y-39253024D01*
X38919178Y-39321145D01*
X38902275Y-39342119D01*
X38872079Y-39372315D01*
X38809767Y-39406341D01*
X38782325Y-39409218D01*
X38703101Y-39408804D01*
X38652553Y-39408539D01*
X38645173Y-39410311D01*
X38645171Y-39410311D01*
X38497422Y-39445782D01*
X38497418Y-39445783D01*
X38490043Y-39447554D01*
X38341531Y-39524207D01*
X38335809Y-39529199D01*
X38335807Y-39529200D01*
X38265711Y-39590349D01*
X38215590Y-39634072D01*
X38179904Y-39684848D01*
X38131175Y-39754183D01*
X38119491Y-39770807D01*
X38099121Y-39823055D01*
X38062183Y-39917797D01*
X38058782Y-39926519D01*
X38053131Y-39969445D01*
X38037958Y-40084685D01*
X38037958Y-40084689D01*
X38036967Y-40092216D01*
X38043488Y-40151284D01*
X38053978Y-40246292D01*
X38055307Y-40258334D01*
X38057916Y-40265465D01*
X38057917Y-40265467D01*
X38107247Y-40400266D01*
X38112742Y-40415283D01*
X38116978Y-40421586D01*
X38116978Y-40421587D01*
X38201722Y-40547700D01*
X38201725Y-40547703D01*
X38205956Y-40554000D01*
X38329569Y-40666479D01*
X38336238Y-40670100D01*
X38469773Y-40742605D01*
X38469777Y-40742606D01*
X38476443Y-40746226D01*
X38483786Y-40748152D01*
X38483785Y-40748152D01*
X38630749Y-40786707D01*
X38630753Y-40786707D01*
X38638100Y-40788635D01*
X38725895Y-40790015D01*
X38797609Y-40791142D01*
X38797612Y-40791142D01*
X38805207Y-40791261D01*
X38861207Y-40778435D01*
X38960713Y-40755645D01*
X38960716Y-40755644D01*
X38968116Y-40753949D01*
X39058186Y-40708649D01*
X39110640Y-40682268D01*
X39110643Y-40682266D01*
X39117423Y-40678856D01*
X39123195Y-40673927D01*
X39123197Y-40673925D01*
X39222756Y-40588893D01*
X39859076Y-40588893D01*
X39860129Y-40599634D01*
X39876382Y-40765394D01*
X39932361Y-40933675D01*
X39936008Y-40939697D01*
X40009552Y-41061132D01*
X40024232Y-41085372D01*
X40147428Y-41212945D01*
X40295826Y-41310054D01*
X40302430Y-41312510D01*
X40455449Y-41369417D01*
X40455451Y-41369417D01*
X40462051Y-41371872D01*
X40469034Y-41372804D01*
X40469035Y-41372804D01*
X40630859Y-41394397D01*
X40630863Y-41394397D01*
X40637840Y-41395328D01*
X40644851Y-41394690D01*
X40644855Y-41394690D01*
X40784332Y-41381996D01*
X40814458Y-41379254D01*
X40821160Y-41377076D01*
X40821162Y-41377076D01*
X40976426Y-41326628D01*
X40976429Y-41326627D01*
X40983125Y-41324451D01*
X41114275Y-41246270D01*
X41129408Y-41237249D01*
X41129410Y-41237248D01*
X41135460Y-41233641D01*
X41263890Y-41111339D01*
X41277778Y-41090436D01*
X41358132Y-40969494D01*
X41358133Y-40969492D01*
X41362033Y-40963622D01*
X41425010Y-40797833D01*
X41443471Y-40666479D01*
X41449141Y-40626134D01*
X41449141Y-40626131D01*
X41449692Y-40622212D01*
X41450002Y-40600000D01*
X41431611Y-40436044D01*
X41431018Y-40430755D01*
X41431018Y-40430754D01*
X41430233Y-40423758D01*
X41427033Y-40414567D01*
X41374225Y-40262922D01*
X41374224Y-40262920D01*
X41371910Y-40256275D01*
X41358334Y-40234548D01*
X41281663Y-40111850D01*
X41277930Y-40105876D01*
X41271599Y-40099500D01*
X41172791Y-40000000D01*
X41152965Y-39980035D01*
X41071066Y-39928061D01*
X41009168Y-39888779D01*
X41009165Y-39888777D01*
X41003225Y-39885008D01*
X40931591Y-39859500D01*
X40842788Y-39827878D01*
X40842786Y-39827877D01*
X40836154Y-39825516D01*
X40829166Y-39824683D01*
X40829163Y-39824682D01*
X40701976Y-39809516D01*
X40660054Y-39804517D01*
X40653051Y-39805253D01*
X40653050Y-39805253D01*
X40490678Y-39822319D01*
X40490676Y-39822320D01*
X40483678Y-39823055D01*
X40449918Y-39834548D01*
X40322462Y-39877937D01*
X40322459Y-39877938D01*
X40315792Y-39880208D01*
X40309794Y-39883898D01*
X40309792Y-39883899D01*
X40301860Y-39888779D01*
X40164740Y-39973136D01*
X40159709Y-39978063D01*
X40159706Y-39978065D01*
X40126644Y-40010442D01*
X40038030Y-40097219D01*
X39941960Y-40246292D01*
X39939550Y-40252912D01*
X39939550Y-40252913D01*
X39884510Y-40404134D01*
X39881303Y-40412944D01*
X39859076Y-40588893D01*
X39222756Y-40588893D01*
X39238730Y-40575250D01*
X39238730Y-40575249D01*
X39244508Y-40570315D01*
X39312460Y-40475750D01*
X39337600Y-40440765D01*
X39337601Y-40440763D01*
X39342034Y-40434594D01*
X39404370Y-40279527D01*
X39409100Y-40246292D01*
X39427337Y-40118151D01*
X39427337Y-40118148D01*
X39427918Y-40114067D01*
X39428071Y-40099500D01*
X39423782Y-40064060D01*
X39435456Y-39994032D01*
X39459775Y-39959830D01*
X39560106Y-39859500D01*
X39671605Y-39748001D01*
X39671618Y-39747987D01*
X39695016Y-39724589D01*
X39705545Y-39703925D01*
X39715870Y-39687075D01*
X39729508Y-39668305D01*
X39736674Y-39646249D01*
X39744239Y-39627986D01*
X39750269Y-39616151D01*
X39750269Y-39616150D01*
X39754770Y-39607317D01*
X39756322Y-39597520D01*
X39758400Y-39584405D01*
X39763014Y-39565186D01*
X39767114Y-39552565D01*
X39767115Y-39552560D01*
X39770179Y-39543129D01*
X39770179Y-39510026D01*
X39770180Y-39510020D01*
X39770180Y-37517637D01*
X39790182Y-37449516D01*
X39842929Y-37403443D01*
X39928505Y-37363538D01*
X39997152Y-37331528D01*
X39997157Y-37331525D01*
X40002139Y-37329202D01*
X40006648Y-37326045D01*
X40182526Y-37202894D01*
X40182529Y-37202892D01*
X40187037Y-37199735D01*
X40346645Y-37040127D01*
X40397111Y-36968055D01*
X40472955Y-36859738D01*
X40472956Y-36859736D01*
X40476112Y-36855229D01*
X40478435Y-36850247D01*
X40478438Y-36850242D01*
X40510485Y-36781516D01*
X40557402Y-36728231D01*
X40625680Y-36708770D01*
X40693640Y-36729312D01*
X40738875Y-36781516D01*
X40770922Y-36850242D01*
X40770925Y-36850247D01*
X40773248Y-36855229D01*
X40776404Y-36859736D01*
X40776405Y-36859738D01*
X40852250Y-36968055D01*
X40902715Y-37040127D01*
X41062323Y-37199735D01*
X41066831Y-37202892D01*
X41066834Y-37202894D01*
X41242712Y-37326045D01*
X41247221Y-37329202D01*
X41252203Y-37331525D01*
X41252208Y-37331528D01*
X41355795Y-37379831D01*
X41451792Y-37424595D01*
X41457100Y-37426017D01*
X41457102Y-37426018D01*
X41664505Y-37481591D01*
X41664507Y-37481591D01*
X41669820Y-37483015D01*
X41894680Y-37502688D01*
X42119540Y-37483015D01*
X42124853Y-37481591D01*
X42124855Y-37481591D01*
X42332258Y-37426018D01*
X42332260Y-37426017D01*
X42337568Y-37424595D01*
X42433565Y-37379831D01*
X42537152Y-37331528D01*
X42537157Y-37331525D01*
X42542139Y-37329202D01*
X42546648Y-37326045D01*
X42722526Y-37202894D01*
X42722529Y-37202892D01*
X42727037Y-37199735D01*
X42886645Y-37040127D01*
X42937111Y-36968055D01*
X43012955Y-36859738D01*
X43012956Y-36859736D01*
X43016112Y-36855229D01*
X43018435Y-36850247D01*
X43018438Y-36850242D01*
X43050485Y-36781516D01*
X43097402Y-36728231D01*
X43165680Y-36708770D01*
X43233640Y-36729312D01*
X43278875Y-36781516D01*
X43310922Y-36850242D01*
X43310925Y-36850247D01*
X43313248Y-36855229D01*
X43316404Y-36859736D01*
X43316405Y-36859738D01*
X43392250Y-36968055D01*
X43442715Y-37040127D01*
X43602323Y-37199735D01*
X43606831Y-37202892D01*
X43606834Y-37202894D01*
X43782712Y-37326045D01*
X43787221Y-37329202D01*
X43792203Y-37331525D01*
X43792208Y-37331528D01*
X43895795Y-37379831D01*
X43991792Y-37424595D01*
X43997100Y-37426017D01*
X43997102Y-37426018D01*
X44204505Y-37481591D01*
X44204507Y-37481591D01*
X44209820Y-37483015D01*
X44434680Y-37502688D01*
X44659540Y-37483015D01*
X44664853Y-37481591D01*
X44664855Y-37481591D01*
X44872258Y-37426018D01*
X44872260Y-37426017D01*
X44877568Y-37424595D01*
X44973565Y-37379831D01*
X45077152Y-37331528D01*
X45077157Y-37331525D01*
X45082139Y-37329202D01*
X45086648Y-37326045D01*
X45262526Y-37202894D01*
X45262529Y-37202892D01*
X45267037Y-37199735D01*
X45426645Y-37040127D01*
X45477111Y-36968055D01*
X45552955Y-36859738D01*
X45552956Y-36859736D01*
X45556112Y-36855229D01*
X45558435Y-36850247D01*
X45558438Y-36850242D01*
X45590485Y-36781516D01*
X45637402Y-36728231D01*
X45705680Y-36708770D01*
X45773640Y-36729312D01*
X45818875Y-36781516D01*
X45850922Y-36850242D01*
X45850925Y-36850247D01*
X45853248Y-36855229D01*
X45856404Y-36859736D01*
X45856405Y-36859738D01*
X45932250Y-36968055D01*
X45982715Y-37040127D01*
X46142323Y-37199735D01*
X46146831Y-37202892D01*
X46146834Y-37202894D01*
X46322712Y-37326045D01*
X46327221Y-37329202D01*
X46332203Y-37331525D01*
X46332208Y-37331528D01*
X46435795Y-37379831D01*
X46531792Y-37424595D01*
X46537100Y-37426017D01*
X46537102Y-37426018D01*
X46744505Y-37481591D01*
X46744507Y-37481591D01*
X46749820Y-37483015D01*
X46974680Y-37502688D01*
X47199540Y-37483015D01*
X47204853Y-37481591D01*
X47204855Y-37481591D01*
X47412258Y-37426018D01*
X47412260Y-37426017D01*
X47417568Y-37424595D01*
X47513565Y-37379831D01*
X47617152Y-37331528D01*
X47617157Y-37331525D01*
X47622139Y-37329202D01*
X47626648Y-37326045D01*
X47802526Y-37202894D01*
X47802529Y-37202892D01*
X47807037Y-37199735D01*
X47966645Y-37040127D01*
X48017111Y-36968055D01*
X48092955Y-36859738D01*
X48092956Y-36859736D01*
X48096112Y-36855229D01*
X48098435Y-36850247D01*
X48098438Y-36850242D01*
X48130485Y-36781516D01*
X48177402Y-36728231D01*
X48245680Y-36708770D01*
X48313640Y-36729312D01*
X48358875Y-36781516D01*
X48390922Y-36850242D01*
X48390925Y-36850247D01*
X48393248Y-36855229D01*
X48396404Y-36859736D01*
X48396405Y-36859738D01*
X48472250Y-36968055D01*
X48522715Y-37040127D01*
X48682323Y-37199735D01*
X48686831Y-37202892D01*
X48686834Y-37202894D01*
X48862712Y-37326045D01*
X48867221Y-37329202D01*
X48872203Y-37331525D01*
X48872208Y-37331528D01*
X48975795Y-37379831D01*
X49071792Y-37424595D01*
X49077100Y-37426017D01*
X49077102Y-37426018D01*
X49284505Y-37481591D01*
X49284507Y-37481591D01*
X49289820Y-37483015D01*
X49514680Y-37502688D01*
X49739540Y-37483015D01*
X49744853Y-37481591D01*
X49744855Y-37481591D01*
X49952258Y-37426018D01*
X49952260Y-37426017D01*
X49957568Y-37424595D01*
X50053565Y-37379831D01*
X50157152Y-37331528D01*
X50157157Y-37331525D01*
X50162139Y-37329202D01*
X50166648Y-37326045D01*
X50342526Y-37202894D01*
X50342529Y-37202892D01*
X50347037Y-37199735D01*
X50506645Y-37040127D01*
X50557111Y-36968055D01*
X50632955Y-36859738D01*
X50632956Y-36859736D01*
X50636112Y-36855229D01*
X50638435Y-36850247D01*
X50638438Y-36850242D01*
X50670485Y-36781516D01*
X50717402Y-36728231D01*
X50785680Y-36708770D01*
X50853640Y-36729312D01*
X50898875Y-36781516D01*
X50930922Y-36850242D01*
X50930925Y-36850247D01*
X50933248Y-36855229D01*
X50936404Y-36859736D01*
X50936405Y-36859738D01*
X51012250Y-36968055D01*
X51062715Y-37040127D01*
X51222323Y-37199735D01*
X51226831Y-37202892D01*
X51226834Y-37202894D01*
X51402712Y-37326045D01*
X51407221Y-37329202D01*
X51412203Y-37331525D01*
X51412208Y-37331528D01*
X51515795Y-37379831D01*
X51611792Y-37424595D01*
X51617100Y-37426017D01*
X51617102Y-37426018D01*
X51824505Y-37481591D01*
X51824507Y-37481591D01*
X51829820Y-37483015D01*
X52054680Y-37502688D01*
X52279540Y-37483015D01*
X52284853Y-37481591D01*
X52284855Y-37481591D01*
X52492258Y-37426018D01*
X52492260Y-37426017D01*
X52497568Y-37424595D01*
X52593565Y-37379831D01*
X52697152Y-37331528D01*
X52697157Y-37331525D01*
X52702139Y-37329202D01*
X52706648Y-37326045D01*
X52882526Y-37202894D01*
X52882529Y-37202892D01*
X52887037Y-37199735D01*
X53046645Y-37040127D01*
X53097111Y-36968055D01*
X53172955Y-36859738D01*
X53172956Y-36859736D01*
X53176112Y-36855229D01*
X53178435Y-36850247D01*
X53178438Y-36850242D01*
X53269182Y-36655640D01*
X53269183Y-36655639D01*
X53271505Y-36650658D01*
X53306103Y-36521538D01*
X53328501Y-36437945D01*
X53328501Y-36437943D01*
X53329925Y-36432630D01*
X53342908Y-36284233D01*
X53344432Y-36266820D01*
X53344432Y-36266813D01*
X53344670Y-36264096D01*
X53344670Y-35402144D01*
X53335135Y-35293158D01*
X60709500Y-35293158D01*
X60712514Y-35318489D01*
X60716351Y-35327128D01*
X60716352Y-35327131D01*
X60751723Y-35406763D01*
X60756444Y-35417391D01*
X60833034Y-35493847D01*
X60932013Y-35537605D01*
X60948283Y-35539502D01*
X60953203Y-35540076D01*
X60953208Y-35540076D01*
X60956842Y-35540500D01*
X62043158Y-35540500D01*
X62054335Y-35539170D01*
X62059103Y-35538603D01*
X62059104Y-35538603D01*
X62068489Y-35537486D01*
X62077126Y-35533650D01*
X62086247Y-35531143D01*
X62086927Y-35533619D01*
X62148003Y-35526466D01*
X62189150Y-35534157D01*
X62252436Y-35566335D01*
X62288279Y-35627619D01*
X62292000Y-35658012D01*
X62292000Y-36007617D01*
X62271998Y-36075738D01*
X62218342Y-36122231D01*
X62200476Y-36128808D01*
X62195686Y-36130171D01*
X62124692Y-36129568D01*
X62110273Y-36124221D01*
X62109150Y-36123725D01*
X62109151Y-36123725D01*
X62100487Y-36119895D01*
X62091079Y-36118798D01*
X62079297Y-36117424D01*
X62079292Y-36117424D01*
X62075658Y-36117000D01*
X60989342Y-36117000D01*
X60980755Y-36118022D01*
X60973403Y-36118896D01*
X60973400Y-36118897D01*
X60964011Y-36120014D01*
X60955372Y-36123851D01*
X60955369Y-36123852D01*
X60875737Y-36159223D01*
X60875736Y-36159224D01*
X60865109Y-36163944D01*
X60788653Y-36240534D01*
X60783949Y-36251173D01*
X60783949Y-36251174D01*
X60772610Y-36276822D01*
X60744895Y-36339513D01*
X60742000Y-36364342D01*
X60742000Y-37950658D01*
X60745014Y-37975989D01*
X60748851Y-37984628D01*
X60748852Y-37984631D01*
X60773098Y-38039216D01*
X60788944Y-38074891D01*
X60865534Y-38151347D01*
X60964513Y-38195105D01*
X60980783Y-38197002D01*
X60985703Y-38197576D01*
X60985708Y-38197576D01*
X60989342Y-38198000D01*
X62075658Y-38198000D01*
X62086835Y-38196670D01*
X62091603Y-38196103D01*
X62091604Y-38196103D01*
X62100989Y-38194986D01*
X62109626Y-38191150D01*
X62118747Y-38188643D01*
X62119427Y-38191119D01*
X62180505Y-38183966D01*
X62276773Y-38201962D01*
X62276779Y-38201963D01*
X62282500Y-38203032D01*
X62823187Y-38203032D01*
X62823957Y-38203034D01*
X62894765Y-38203467D01*
X62894771Y-38203467D01*
X62899251Y-38203494D01*
X62952488Y-38196202D01*
X62977816Y-38192733D01*
X62977821Y-38192732D01*
X62982267Y-38192123D01*
X63067558Y-38167747D01*
X63115659Y-38154000D01*
X63115662Y-38153999D01*
X63119976Y-38152766D01*
X63196465Y-38118551D01*
X63317593Y-38042125D01*
X63381405Y-37987816D01*
X63476213Y-37880465D01*
X63522215Y-37810433D01*
X63535619Y-37781885D01*
X63581180Y-37684843D01*
X63583084Y-37680788D01*
X63601329Y-37621114D01*
X70545775Y-37621114D01*
X70547825Y-37638830D01*
X70549785Y-37648727D01*
X70613104Y-37872494D01*
X70616616Y-37881938D01*
X70714899Y-38092705D01*
X70719878Y-38101471D01*
X70850587Y-38293802D01*
X70856919Y-38301677D01*
X71016686Y-38470626D01*
X71024195Y-38477387D01*
X71208926Y-38618625D01*
X71217405Y-38624089D01*
X71422347Y-38733978D01*
X71431599Y-38738020D01*
X71651471Y-38813727D01*
X71661243Y-38816236D01*
X71891471Y-38856004D01*
X71899343Y-38856859D01*
X71923051Y-38857936D01*
X71925884Y-38858000D01*
X72510385Y-38858000D01*
X72525624Y-38853525D01*
X72526829Y-38852135D01*
X72528500Y-38844452D01*
X72528500Y-38839885D01*
X73036500Y-38839885D01*
X73040975Y-38855124D01*
X73042365Y-38856329D01*
X73050048Y-38858000D01*
X73590956Y-38858000D01*
X73595988Y-38857798D01*
X73769343Y-38843850D01*
X73779296Y-38842238D01*
X74005133Y-38786767D01*
X74014703Y-38783584D01*
X74228765Y-38692720D01*
X74237707Y-38688045D01*
X74434487Y-38564126D01*
X74442560Y-38558086D01*
X74617000Y-38404297D01*
X74624004Y-38397044D01*
X74771610Y-38217346D01*
X74777366Y-38209064D01*
X74894341Y-38008081D01*
X74898703Y-37998976D01*
X74982037Y-37781885D01*
X74984888Y-37772196D01*
X75016321Y-37621736D01*
X75015198Y-37607675D01*
X75005090Y-37604000D01*
X73054615Y-37604000D01*
X73039376Y-37608475D01*
X73038171Y-37609865D01*
X73036500Y-37617548D01*
X73036500Y-38839885D01*
X72528500Y-38839885D01*
X72528500Y-37622115D01*
X72524025Y-37606876D01*
X72522635Y-37605671D01*
X72514952Y-37604000D01*
X70561910Y-37604000D01*
X70547824Y-37608136D01*
X70545775Y-37621114D01*
X63601329Y-37621114D01*
X63605682Y-37606876D01*
X63606272Y-37604947D01*
X63606273Y-37604944D01*
X63607584Y-37600655D01*
X63629618Y-37459137D01*
X63629736Y-37449516D01*
X63630586Y-37379831D01*
X63630641Y-37375353D01*
X63629096Y-37363538D01*
X63628032Y-37347201D01*
X63628032Y-37078264D01*
X70548679Y-37078264D01*
X70549802Y-37092325D01*
X70559910Y-37096000D01*
X72510385Y-37096000D01*
X72525624Y-37091525D01*
X72526829Y-37090135D01*
X72528500Y-37082452D01*
X72528500Y-37077885D01*
X73036500Y-37077885D01*
X73040975Y-37093124D01*
X73042365Y-37094329D01*
X73050048Y-37096000D01*
X75003090Y-37096000D01*
X75017176Y-37091864D01*
X75019225Y-37078886D01*
X75017175Y-37061170D01*
X75015215Y-37051273D01*
X74951896Y-36827506D01*
X74948384Y-36818062D01*
X74850101Y-36607295D01*
X74845122Y-36598529D01*
X74714413Y-36406198D01*
X74708081Y-36398323D01*
X74548314Y-36229374D01*
X74540805Y-36222613D01*
X74356074Y-36081375D01*
X74347595Y-36075911D01*
X74142653Y-35966022D01*
X74133401Y-35961980D01*
X73913529Y-35886273D01*
X73903757Y-35883764D01*
X73673529Y-35843996D01*
X73665657Y-35843141D01*
X73641949Y-35842064D01*
X73639116Y-35842000D01*
X73054615Y-35842000D01*
X73039376Y-35846475D01*
X73038171Y-35847865D01*
X73036500Y-35855548D01*
X73036500Y-37077885D01*
X72528500Y-37077885D01*
X72528500Y-35860115D01*
X72524025Y-35844876D01*
X72522635Y-35843671D01*
X72514952Y-35842000D01*
X71974044Y-35842000D01*
X71969012Y-35842202D01*
X71795657Y-35856150D01*
X71785704Y-35857762D01*
X71559867Y-35913233D01*
X71550297Y-35916416D01*
X71336235Y-36007280D01*
X71327293Y-36011955D01*
X71130513Y-36135874D01*
X71122440Y-36141914D01*
X70948000Y-36295703D01*
X70940996Y-36302956D01*
X70793390Y-36482654D01*
X70787634Y-36490936D01*
X70670659Y-36691919D01*
X70666297Y-36701024D01*
X70582963Y-36918115D01*
X70580112Y-36927804D01*
X70548679Y-37078264D01*
X63628032Y-37078264D01*
X63628032Y-36979071D01*
X63628885Y-36968055D01*
X63628556Y-36968028D01*
X63628930Y-36963557D01*
X63629618Y-36959136D01*
X63630641Y-36875353D01*
X63628600Y-36859738D01*
X63612653Y-36737789D01*
X63612653Y-36737787D01*
X63612071Y-36733339D01*
X63603049Y-36701024D01*
X63590742Y-36656945D01*
X63590740Y-36656938D01*
X63589537Y-36652631D01*
X63531854Y-36521538D01*
X63487577Y-36450403D01*
X63402549Y-36349249D01*
X63374028Y-36284233D01*
X63373000Y-36268174D01*
X63373000Y-35748053D01*
X63393002Y-35679932D01*
X63446658Y-35633439D01*
X63516932Y-35623335D01*
X63559122Y-35637322D01*
X63569770Y-35643103D01*
X63576443Y-35646726D01*
X63583786Y-35648652D01*
X63583785Y-35648652D01*
X63730749Y-35687207D01*
X63730753Y-35687207D01*
X63738100Y-35689135D01*
X63825895Y-35690515D01*
X63897609Y-35691642D01*
X63897612Y-35691642D01*
X63905207Y-35691761D01*
X63961207Y-35678935D01*
X64060713Y-35656145D01*
X64060716Y-35656144D01*
X64068116Y-35654449D01*
X64142394Y-35617091D01*
X64210640Y-35582768D01*
X64210643Y-35582766D01*
X64217423Y-35579356D01*
X64223195Y-35574427D01*
X64223197Y-35574425D01*
X64338730Y-35475750D01*
X64338730Y-35475749D01*
X64344508Y-35470815D01*
X64442034Y-35335094D01*
X64504370Y-35180027D01*
X64527918Y-35014567D01*
X64528071Y-35000000D01*
X64507993Y-34834083D01*
X64448918Y-34677745D01*
X64395160Y-34599527D01*
X64358558Y-34546270D01*
X64358557Y-34546268D01*
X64354256Y-34540011D01*
X64341099Y-34528288D01*
X64235142Y-34433884D01*
X64229472Y-34428832D01*
X64222764Y-34425280D01*
X64222762Y-34425279D01*
X64088483Y-34354183D01*
X64088481Y-34354182D01*
X64081770Y-34350629D01*
X63919678Y-34309914D01*
X63912080Y-34309874D01*
X63912078Y-34309874D01*
X63841412Y-34309504D01*
X63752553Y-34309039D01*
X63745170Y-34310811D01*
X63737618Y-34311685D01*
X63737263Y-34308617D01*
X63680482Y-34305801D01*
X63622730Y-34264506D01*
X63597198Y-34204675D01*
X63583892Y-34111765D01*
X63577385Y-34066327D01*
X63573516Y-34053094D01*
X63555125Y-33990204D01*
X63553867Y-33985902D01*
X63494587Y-33855523D01*
X63449443Y-33784933D01*
X63355953Y-33676432D01*
X63292810Y-33621349D01*
X63288481Y-33618543D01*
X63176389Y-33545888D01*
X63176382Y-33545884D01*
X63172625Y-33543449D01*
X63096559Y-33508301D01*
X63092259Y-33507015D01*
X62963639Y-33468550D01*
X62963634Y-33468549D01*
X62959341Y-33467265D01*
X62954912Y-33466603D01*
X62954907Y-33466602D01*
X62880903Y-33455543D01*
X62880899Y-33455543D01*
X62876471Y-33454881D01*
X62804860Y-33454443D01*
X62737727Y-33454033D01*
X62737722Y-33454033D01*
X62733250Y-33454006D01*
X62730789Y-33454343D01*
X62726961Y-33454468D01*
X62250000Y-33454468D01*
X62222732Y-33455729D01*
X62215727Y-33457722D01*
X62163196Y-33472668D01*
X62092202Y-33472071D01*
X62077773Y-33466721D01*
X62076650Y-33466225D01*
X62076651Y-33466225D01*
X62067987Y-33462395D01*
X62058579Y-33461298D01*
X62046797Y-33459924D01*
X62046792Y-33459924D01*
X62043158Y-33459500D01*
X60956842Y-33459500D01*
X60948255Y-33460522D01*
X60940903Y-33461396D01*
X60940900Y-33461397D01*
X60931511Y-33462514D01*
X60922872Y-33466351D01*
X60922869Y-33466352D01*
X60843237Y-33501723D01*
X60843236Y-33501724D01*
X60832609Y-33506444D01*
X60756153Y-33583034D01*
X60751449Y-33593673D01*
X60751449Y-33593674D01*
X60741259Y-33616724D01*
X60712395Y-33682013D01*
X60711298Y-33691425D01*
X60710182Y-33700997D01*
X60709500Y-33706842D01*
X60709500Y-35293158D01*
X53335135Y-35293158D01*
X53329925Y-35233610D01*
X53271505Y-35015582D01*
X53264239Y-35000000D01*
X53178438Y-34815998D01*
X53178435Y-34815993D01*
X53176112Y-34811011D01*
X53082798Y-34677745D01*
X53049804Y-34630624D01*
X53049802Y-34630621D01*
X53046645Y-34626113D01*
X52887037Y-34466505D01*
X52882529Y-34463348D01*
X52882526Y-34463346D01*
X52706648Y-34340195D01*
X52706646Y-34340194D01*
X52702139Y-34337038D01*
X52697151Y-34334712D01*
X52697148Y-34334710D01*
X52611437Y-34294743D01*
X52580871Y-34274628D01*
X52529472Y-34228832D01*
X52522764Y-34225280D01*
X52522762Y-34225279D01*
X52388483Y-34154183D01*
X52388481Y-34154182D01*
X52381770Y-34150629D01*
X52219678Y-34109914D01*
X52212080Y-34109874D01*
X52212078Y-34109874D01*
X52141412Y-34109504D01*
X52052553Y-34109039D01*
X52045173Y-34110811D01*
X52045171Y-34110811D01*
X51897422Y-34146282D01*
X51897418Y-34146283D01*
X51890043Y-34148054D01*
X51883299Y-34151535D01*
X51883296Y-34151536D01*
X51825417Y-34181410D01*
X51800238Y-34191152D01*
X51736970Y-34208104D01*
X51617102Y-34240222D01*
X51617100Y-34240223D01*
X51611792Y-34241645D01*
X51606811Y-34243967D01*
X51606810Y-34243968D01*
X51412208Y-34334712D01*
X51412203Y-34334715D01*
X51407221Y-34337038D01*
X51402714Y-34340194D01*
X51402712Y-34340195D01*
X51226834Y-34463346D01*
X51226831Y-34463348D01*
X51222323Y-34466505D01*
X51062715Y-34626113D01*
X51059558Y-34630621D01*
X51059556Y-34630624D01*
X51026562Y-34677745D01*
X50933248Y-34811011D01*
X50930925Y-34815993D01*
X50930922Y-34815998D01*
X50898875Y-34884724D01*
X50851958Y-34938009D01*
X50783680Y-34957470D01*
X50715720Y-34936928D01*
X50670485Y-34884724D01*
X50638438Y-34815998D01*
X50638435Y-34815993D01*
X50636112Y-34811011D01*
X50542798Y-34677745D01*
X50509804Y-34630624D01*
X50509802Y-34630621D01*
X50506645Y-34626113D01*
X50347037Y-34466505D01*
X50342529Y-34463348D01*
X50342526Y-34463346D01*
X50166648Y-34340195D01*
X50166646Y-34340194D01*
X50162139Y-34337038D01*
X50157157Y-34334715D01*
X50157152Y-34334712D01*
X49962550Y-34243968D01*
X49962549Y-34243967D01*
X49957568Y-34241645D01*
X49952260Y-34240223D01*
X49952258Y-34240222D01*
X49744855Y-34184649D01*
X49744853Y-34184649D01*
X49739540Y-34183225D01*
X49514680Y-34163552D01*
X49289820Y-34183225D01*
X49284507Y-34184649D01*
X49284505Y-34184649D01*
X49077102Y-34240222D01*
X49077100Y-34240223D01*
X49071792Y-34241645D01*
X49066811Y-34243967D01*
X49066810Y-34243968D01*
X48872208Y-34334712D01*
X48872203Y-34334715D01*
X48867221Y-34337038D01*
X48862714Y-34340194D01*
X48862712Y-34340195D01*
X48686834Y-34463346D01*
X48686831Y-34463348D01*
X48682323Y-34466505D01*
X48522715Y-34626113D01*
X48519558Y-34630621D01*
X48519556Y-34630624D01*
X48486562Y-34677745D01*
X48393248Y-34811011D01*
X48390925Y-34815993D01*
X48390922Y-34815998D01*
X48358875Y-34884724D01*
X48311958Y-34938009D01*
X48243680Y-34957470D01*
X48175720Y-34936928D01*
X48130485Y-34884724D01*
X48098438Y-34815998D01*
X48098435Y-34815993D01*
X48096112Y-34811011D01*
X48002798Y-34677745D01*
X47969804Y-34630624D01*
X47969802Y-34630621D01*
X47966645Y-34626113D01*
X47807037Y-34466505D01*
X47802529Y-34463348D01*
X47802526Y-34463346D01*
X47626648Y-34340195D01*
X47626646Y-34340194D01*
X47622139Y-34337038D01*
X47617157Y-34334715D01*
X47617152Y-34334712D01*
X47422550Y-34243968D01*
X47422549Y-34243967D01*
X47417568Y-34241645D01*
X47412260Y-34240223D01*
X47412258Y-34240222D01*
X47204855Y-34184649D01*
X47204853Y-34184649D01*
X47199540Y-34183225D01*
X46974680Y-34163552D01*
X46749820Y-34183225D01*
X46744507Y-34184649D01*
X46744505Y-34184649D01*
X46537102Y-34240222D01*
X46537100Y-34240223D01*
X46531792Y-34241645D01*
X46526811Y-34243967D01*
X46526810Y-34243968D01*
X46332208Y-34334712D01*
X46332203Y-34334715D01*
X46327221Y-34337038D01*
X46322714Y-34340194D01*
X46322712Y-34340195D01*
X46146834Y-34463346D01*
X46146831Y-34463348D01*
X46142323Y-34466505D01*
X45982715Y-34626113D01*
X45979558Y-34630621D01*
X45979556Y-34630624D01*
X45946562Y-34677745D01*
X45853248Y-34811011D01*
X45850925Y-34815993D01*
X45850922Y-34815998D01*
X45818875Y-34884724D01*
X45771958Y-34938009D01*
X45703680Y-34957470D01*
X45635720Y-34936928D01*
X45590485Y-34884724D01*
X45558438Y-34815998D01*
X45558435Y-34815993D01*
X45556112Y-34811011D01*
X45462798Y-34677745D01*
X45429804Y-34630624D01*
X45429802Y-34630621D01*
X45426645Y-34626113D01*
X45267037Y-34466505D01*
X45262529Y-34463348D01*
X45262526Y-34463346D01*
X45086648Y-34340195D01*
X45086646Y-34340194D01*
X45082139Y-34337038D01*
X45077157Y-34334715D01*
X45077152Y-34334712D01*
X44882550Y-34243968D01*
X44882549Y-34243967D01*
X44877568Y-34241645D01*
X44872260Y-34240223D01*
X44872258Y-34240222D01*
X44664855Y-34184649D01*
X44664853Y-34184649D01*
X44659540Y-34183225D01*
X44434680Y-34163552D01*
X44209820Y-34183225D01*
X44204507Y-34184649D01*
X44204505Y-34184649D01*
X43997102Y-34240222D01*
X43997100Y-34240223D01*
X43991792Y-34241645D01*
X43986811Y-34243967D01*
X43986810Y-34243968D01*
X43792208Y-34334712D01*
X43792203Y-34334715D01*
X43787221Y-34337038D01*
X43782714Y-34340194D01*
X43782712Y-34340195D01*
X43606834Y-34463346D01*
X43606831Y-34463348D01*
X43602323Y-34466505D01*
X43442715Y-34626113D01*
X43439558Y-34630621D01*
X43439556Y-34630624D01*
X43406562Y-34677745D01*
X43313248Y-34811011D01*
X43310925Y-34815993D01*
X43310922Y-34815998D01*
X43278875Y-34884724D01*
X43231958Y-34938009D01*
X43163680Y-34957470D01*
X43095720Y-34936928D01*
X43050485Y-34884724D01*
X43018438Y-34815998D01*
X43018435Y-34815993D01*
X43016112Y-34811011D01*
X42922798Y-34677745D01*
X42889804Y-34630624D01*
X42889802Y-34630621D01*
X42886645Y-34626113D01*
X42727037Y-34466505D01*
X42722529Y-34463348D01*
X42722526Y-34463346D01*
X42546648Y-34340195D01*
X42546646Y-34340194D01*
X42542139Y-34337038D01*
X42537157Y-34334715D01*
X42537152Y-34334712D01*
X42367514Y-34255609D01*
X42336947Y-34235492D01*
X42335146Y-34233887D01*
X42335144Y-34233885D01*
X42329472Y-34228832D01*
X42239906Y-34181410D01*
X42188483Y-34154183D01*
X42188481Y-34154182D01*
X42181770Y-34150629D01*
X42019678Y-34109914D01*
X42012080Y-34109874D01*
X42012078Y-34109874D01*
X41941412Y-34109504D01*
X41852553Y-34109039D01*
X41845173Y-34110811D01*
X41845171Y-34110811D01*
X41697422Y-34146282D01*
X41697418Y-34146283D01*
X41690043Y-34148054D01*
X41625418Y-34181410D01*
X41582232Y-34203700D01*
X41557054Y-34213440D01*
X41512879Y-34225277D01*
X41457102Y-34240222D01*
X41457100Y-34240223D01*
X41451792Y-34241645D01*
X41446811Y-34243967D01*
X41446810Y-34243968D01*
X41252208Y-34334712D01*
X41252203Y-34334715D01*
X41247221Y-34337038D01*
X41242714Y-34340194D01*
X41242712Y-34340195D01*
X41066834Y-34463346D01*
X41066831Y-34463348D01*
X41062323Y-34466505D01*
X40902715Y-34626113D01*
X40899558Y-34630621D01*
X40899556Y-34630624D01*
X40866562Y-34677745D01*
X40773248Y-34811011D01*
X40770925Y-34815993D01*
X40770922Y-34815998D01*
X40738875Y-34884724D01*
X40691958Y-34938009D01*
X40623680Y-34957470D01*
X40555720Y-34936928D01*
X40510485Y-34884724D01*
X40478438Y-34815998D01*
X40478435Y-34815993D01*
X40476112Y-34811011D01*
X40382798Y-34677745D01*
X40349804Y-34630624D01*
X40349802Y-34630621D01*
X40346645Y-34626113D01*
X40187037Y-34466505D01*
X40182529Y-34463348D01*
X40182526Y-34463346D01*
X40006648Y-34340195D01*
X40006646Y-34340194D01*
X40002139Y-34337038D01*
X39997157Y-34334715D01*
X39997152Y-34334712D01*
X39802550Y-34243968D01*
X39802549Y-34243967D01*
X39797568Y-34241645D01*
X39792260Y-34240223D01*
X39792258Y-34240222D01*
X39584855Y-34184649D01*
X39584853Y-34184649D01*
X39579540Y-34183225D01*
X39354680Y-34163552D01*
X39129820Y-34183225D01*
X39124507Y-34184649D01*
X39124505Y-34184649D01*
X38917102Y-34240222D01*
X38917100Y-34240223D01*
X38911792Y-34241645D01*
X38906811Y-34243967D01*
X38906810Y-34243968D01*
X38712208Y-34334712D01*
X38712203Y-34334715D01*
X38707221Y-34337038D01*
X38702714Y-34340194D01*
X38702712Y-34340195D01*
X38526834Y-34463346D01*
X38526831Y-34463348D01*
X38522323Y-34466505D01*
X38362715Y-34626113D01*
X38359558Y-34630621D01*
X38359556Y-34630624D01*
X38326562Y-34677745D01*
X38233248Y-34811011D01*
X38230925Y-34815993D01*
X38230922Y-34815998D01*
X38198875Y-34884724D01*
X38151958Y-34938009D01*
X38083680Y-34957470D01*
X38015720Y-34936928D01*
X37970485Y-34884724D01*
X37938438Y-34815998D01*
X37938435Y-34815993D01*
X37936112Y-34811011D01*
X37842798Y-34677745D01*
X37809804Y-34630624D01*
X37809802Y-34630621D01*
X37806645Y-34626113D01*
X37647037Y-34466505D01*
X37642529Y-34463348D01*
X37642526Y-34463346D01*
X37466648Y-34340195D01*
X37466646Y-34340194D01*
X37462139Y-34337038D01*
X37457157Y-34334715D01*
X37457152Y-34334712D01*
X37262550Y-34243968D01*
X37262549Y-34243967D01*
X37257568Y-34241645D01*
X37252260Y-34240223D01*
X37252258Y-34240222D01*
X37044855Y-34184649D01*
X37044853Y-34184649D01*
X37039540Y-34183225D01*
X36814680Y-34163552D01*
X36589820Y-34183225D01*
X36584507Y-34184649D01*
X36584505Y-34184649D01*
X36377102Y-34240222D01*
X36377100Y-34240223D01*
X36371792Y-34241645D01*
X36366811Y-34243967D01*
X36366810Y-34243968D01*
X36172208Y-34334712D01*
X36172203Y-34334715D01*
X36167221Y-34337038D01*
X36162714Y-34340194D01*
X36162712Y-34340195D01*
X35986834Y-34463346D01*
X35986831Y-34463348D01*
X35982323Y-34466505D01*
X35822715Y-34626113D01*
X35819558Y-34630621D01*
X35819556Y-34630624D01*
X35786562Y-34677745D01*
X35693248Y-34811011D01*
X35690925Y-34815993D01*
X35690922Y-34815998D01*
X35605121Y-35000000D01*
X35597855Y-35015582D01*
X35539435Y-35233610D01*
X35524690Y-35402144D01*
X35524690Y-36264096D01*
X34223000Y-36264096D01*
X34223000Y-31970017D01*
X42967506Y-31970017D01*
X42981216Y-32179178D01*
X43032812Y-32382338D01*
X43120567Y-32572693D01*
X43241542Y-32743869D01*
X43391685Y-32890132D01*
X43396481Y-32893337D01*
X43396484Y-32893339D01*
X43482957Y-32951118D01*
X43565969Y-33006585D01*
X43571272Y-33008863D01*
X43571275Y-33008865D01*
X43749236Y-33085323D01*
X43758556Y-33089327D01*
X43833603Y-33106308D01*
X43957360Y-33134312D01*
X43957365Y-33134313D01*
X43962997Y-33135587D01*
X43968768Y-33135814D01*
X43968770Y-33135814D01*
X44033366Y-33138352D01*
X44172445Y-33143816D01*
X44277591Y-33128571D01*
X44374164Y-33114569D01*
X44374169Y-33114568D01*
X44379885Y-33113739D01*
X44385357Y-33111881D01*
X44385359Y-33111881D01*
X44572906Y-33048217D01*
X44572908Y-33048216D01*
X44578370Y-33046362D01*
X44761254Y-32943943D01*
X44792463Y-32917987D01*
X44917978Y-32813596D01*
X44922410Y-32809910D01*
X45056443Y-32648754D01*
X45158862Y-32465870D01*
X45185437Y-32387585D01*
X45224381Y-32272859D01*
X45224381Y-32272857D01*
X45226239Y-32267385D01*
X45227068Y-32261669D01*
X45227069Y-32261664D01*
X45255783Y-32063619D01*
X45256316Y-32059945D01*
X45257764Y-32004639D01*
X45259236Y-32000073D01*
X45256447Y-31984344D01*
X45256124Y-31980821D01*
X45506358Y-31980821D01*
X45509451Y-31999697D01*
X45513641Y-32063619D01*
X45521216Y-32179178D01*
X45572812Y-32382338D01*
X45660567Y-32572693D01*
X45781542Y-32743869D01*
X45931685Y-32890132D01*
X45936481Y-32893337D01*
X45936484Y-32893339D01*
X46022957Y-32951118D01*
X46105969Y-33006585D01*
X46111272Y-33008863D01*
X46111275Y-33008865D01*
X46289236Y-33085323D01*
X46298556Y-33089327D01*
X46373603Y-33106308D01*
X46497360Y-33134312D01*
X46497365Y-33134313D01*
X46502997Y-33135587D01*
X46508768Y-33135814D01*
X46508770Y-33135814D01*
X46573366Y-33138352D01*
X46712445Y-33143816D01*
X46817591Y-33128571D01*
X46914164Y-33114569D01*
X46914169Y-33114568D01*
X46919885Y-33113739D01*
X46925357Y-33111881D01*
X46925359Y-33111881D01*
X47112906Y-33048217D01*
X47112908Y-33048216D01*
X47118370Y-33046362D01*
X47301254Y-32943943D01*
X47332463Y-32917987D01*
X47457978Y-32813596D01*
X47462410Y-32809910D01*
X47596443Y-32648754D01*
X47698862Y-32465870D01*
X47725437Y-32387585D01*
X47764381Y-32272859D01*
X47764381Y-32272857D01*
X47766239Y-32267385D01*
X47767068Y-32261669D01*
X47767069Y-32261664D01*
X47795783Y-32063619D01*
X47796316Y-32059945D01*
X47797764Y-32004639D01*
X47799236Y-32000073D01*
X47796447Y-31984344D01*
X47796124Y-31980821D01*
X48046358Y-31980821D01*
X48049451Y-31999697D01*
X48053641Y-32063619D01*
X48061216Y-32179178D01*
X48112812Y-32382338D01*
X48200567Y-32572693D01*
X48321542Y-32743869D01*
X48471685Y-32890132D01*
X48476481Y-32893337D01*
X48476484Y-32893339D01*
X48562957Y-32951118D01*
X48645969Y-33006585D01*
X48651272Y-33008863D01*
X48651275Y-33008865D01*
X48829236Y-33085323D01*
X48838556Y-33089327D01*
X48913603Y-33106308D01*
X49037360Y-33134312D01*
X49037365Y-33134313D01*
X49042997Y-33135587D01*
X49048768Y-33135814D01*
X49048770Y-33135814D01*
X49113366Y-33138352D01*
X49252445Y-33143816D01*
X49357591Y-33128571D01*
X49454164Y-33114569D01*
X49454169Y-33114568D01*
X49459885Y-33113739D01*
X49465357Y-33111881D01*
X49465359Y-33111881D01*
X49652906Y-33048217D01*
X49652908Y-33048216D01*
X49658370Y-33046362D01*
X49841254Y-32943943D01*
X49872463Y-32917987D01*
X49902316Y-32893158D01*
X50592000Y-32893158D01*
X50595014Y-32918489D01*
X50598851Y-32927128D01*
X50598852Y-32927131D01*
X50614600Y-32962585D01*
X50638944Y-33017391D01*
X50715534Y-33093847D01*
X50814513Y-33137605D01*
X50830783Y-33139502D01*
X50835703Y-33140076D01*
X50835708Y-33140076D01*
X50839342Y-33140500D01*
X52625658Y-33140500D01*
X52634245Y-33139478D01*
X52641597Y-33138604D01*
X52641600Y-33138603D01*
X52650989Y-33137486D01*
X52659628Y-33133649D01*
X52659631Y-33133648D01*
X52739263Y-33098277D01*
X52739264Y-33098276D01*
X52749891Y-33093556D01*
X52826347Y-33016966D01*
X52832356Y-33003375D01*
X52842390Y-32980678D01*
X52870105Y-32917987D01*
X52873000Y-32893158D01*
X52873000Y-32545017D01*
X64627506Y-32545017D01*
X64641216Y-32754178D01*
X64692812Y-32957338D01*
X64695231Y-32962585D01*
X64777056Y-33140076D01*
X64780567Y-33147693D01*
X64901542Y-33318869D01*
X64905676Y-33322896D01*
X65045904Y-33459500D01*
X65051685Y-33465132D01*
X65056481Y-33468337D01*
X65056484Y-33468339D01*
X65170717Y-33544667D01*
X65225969Y-33581585D01*
X65231272Y-33583863D01*
X65231275Y-33583865D01*
X65407863Y-33659733D01*
X65418556Y-33664327D01*
X65459029Y-33673485D01*
X65617360Y-33709312D01*
X65617365Y-33709313D01*
X65622997Y-33710587D01*
X65628768Y-33710814D01*
X65628770Y-33710814D01*
X65693366Y-33713352D01*
X65832445Y-33718816D01*
X65940127Y-33703203D01*
X66034164Y-33689569D01*
X66034169Y-33689568D01*
X66039885Y-33688739D01*
X66045357Y-33686881D01*
X66045359Y-33686881D01*
X66232906Y-33623217D01*
X66232908Y-33623216D01*
X66238370Y-33621362D01*
X66421254Y-33518943D01*
X66452463Y-33492987D01*
X66577978Y-33388596D01*
X66582410Y-33384910D01*
X66716443Y-33223754D01*
X66818862Y-33040870D01*
X66824043Y-33025609D01*
X66884381Y-32847859D01*
X66884381Y-32847857D01*
X66886239Y-32842385D01*
X66887068Y-32836669D01*
X66887069Y-32836664D01*
X66915783Y-32638619D01*
X66916316Y-32634945D01*
X66917764Y-32579639D01*
X66919236Y-32575073D01*
X66916447Y-32559344D01*
X66916124Y-32555821D01*
X67166358Y-32555821D01*
X67169451Y-32574697D01*
X67179155Y-32722728D01*
X67181216Y-32754178D01*
X67232812Y-32957338D01*
X67235231Y-32962585D01*
X67317056Y-33140076D01*
X67320567Y-33147693D01*
X67441542Y-33318869D01*
X67445676Y-33322896D01*
X67585904Y-33459500D01*
X67591685Y-33465132D01*
X67596481Y-33468337D01*
X67596484Y-33468339D01*
X67710717Y-33544667D01*
X67765969Y-33581585D01*
X67771272Y-33583863D01*
X67771275Y-33583865D01*
X67947863Y-33659733D01*
X67958556Y-33664327D01*
X67999029Y-33673485D01*
X68157360Y-33709312D01*
X68157365Y-33709313D01*
X68162997Y-33710587D01*
X68168768Y-33710814D01*
X68168770Y-33710814D01*
X68233366Y-33713352D01*
X68372445Y-33718816D01*
X68480127Y-33703203D01*
X68574164Y-33689569D01*
X68574169Y-33689568D01*
X68579885Y-33688739D01*
X68585357Y-33686881D01*
X68585359Y-33686881D01*
X68772906Y-33623217D01*
X68772908Y-33623216D01*
X68778370Y-33621362D01*
X68961254Y-33518943D01*
X68992463Y-33492987D01*
X69117978Y-33388596D01*
X69122410Y-33384910D01*
X69256443Y-33223754D01*
X69358862Y-33040870D01*
X69364043Y-33025609D01*
X69424381Y-32847859D01*
X69424381Y-32847857D01*
X69426239Y-32842385D01*
X69427068Y-32836669D01*
X69427069Y-32836664D01*
X69455783Y-32638619D01*
X69456316Y-32634945D01*
X69457764Y-32579639D01*
X69459236Y-32575073D01*
X69456447Y-32559344D01*
X69456124Y-32555821D01*
X69706358Y-32555821D01*
X69709451Y-32574697D01*
X69719155Y-32722728D01*
X69721216Y-32754178D01*
X69772812Y-32957338D01*
X69775231Y-32962585D01*
X69857056Y-33140076D01*
X69860567Y-33147693D01*
X69981542Y-33318869D01*
X69985676Y-33322896D01*
X70125904Y-33459500D01*
X70131685Y-33465132D01*
X70136481Y-33468337D01*
X70136484Y-33468339D01*
X70250717Y-33544667D01*
X70305969Y-33581585D01*
X70311272Y-33583863D01*
X70311275Y-33583865D01*
X70487863Y-33659733D01*
X70498556Y-33664327D01*
X70539029Y-33673485D01*
X70697360Y-33709312D01*
X70697365Y-33709313D01*
X70702997Y-33710587D01*
X70708768Y-33710814D01*
X70708770Y-33710814D01*
X70773366Y-33713352D01*
X70912445Y-33718816D01*
X71020127Y-33703203D01*
X71114164Y-33689569D01*
X71114169Y-33689568D01*
X71119885Y-33688739D01*
X71125357Y-33686881D01*
X71125359Y-33686881D01*
X71312906Y-33623217D01*
X71312908Y-33623216D01*
X71318370Y-33621362D01*
X71501254Y-33518943D01*
X71532463Y-33492987D01*
X71657978Y-33388596D01*
X71662410Y-33384910D01*
X71796443Y-33223754D01*
X71896612Y-33044888D01*
X71947348Y-32995227D01*
X72016880Y-32980879D01*
X72083130Y-33006401D01*
X72123289Y-33059051D01*
X72174270Y-33184603D01*
X72178913Y-33193794D01*
X72290194Y-33375388D01*
X72296277Y-33383699D01*
X72435713Y-33544667D01*
X72443080Y-33551883D01*
X72606934Y-33687916D01*
X72615381Y-33693831D01*
X72799256Y-33801279D01*
X72808542Y-33805729D01*
X73007501Y-33881703D01*
X73017399Y-33884579D01*
X73120750Y-33905606D01*
X73134799Y-33904410D01*
X73138500Y-33894065D01*
X73138500Y-33893517D01*
X73646500Y-33893517D01*
X73650564Y-33907359D01*
X73663978Y-33909393D01*
X73670684Y-33908534D01*
X73680762Y-33906392D01*
X73795135Y-33872078D01*
X73866131Y-33871661D01*
X73926081Y-33909694D01*
X73955953Y-33974100D01*
X73956653Y-34005933D01*
X73954687Y-34024637D01*
X73956119Y-34033104D01*
X73957736Y-34042663D01*
X73959500Y-34063676D01*
X73959500Y-34528288D01*
X73936587Y-34600739D01*
X73886991Y-34671307D01*
X73826282Y-34827019D01*
X73825291Y-34834548D01*
X73805458Y-34985185D01*
X73805458Y-34985189D01*
X73804467Y-34992716D01*
X73822807Y-35158834D01*
X73825416Y-35165965D01*
X73825417Y-35165967D01*
X73843008Y-35214035D01*
X73880242Y-35315783D01*
X73884478Y-35322086D01*
X73884478Y-35322087D01*
X73969222Y-35448200D01*
X73969225Y-35448203D01*
X73973456Y-35454500D01*
X74097069Y-35566979D01*
X74103738Y-35570600D01*
X74237273Y-35643105D01*
X74237277Y-35643106D01*
X74243943Y-35646726D01*
X74251286Y-35648652D01*
X74251285Y-35648652D01*
X74398249Y-35687207D01*
X74398253Y-35687207D01*
X74405600Y-35689135D01*
X74493395Y-35690515D01*
X74565109Y-35691642D01*
X74565112Y-35691642D01*
X74572707Y-35691761D01*
X74628707Y-35678935D01*
X74728213Y-35656145D01*
X74728216Y-35656144D01*
X74735616Y-35654449D01*
X74809894Y-35617091D01*
X74878140Y-35582768D01*
X74878143Y-35582766D01*
X74884923Y-35579356D01*
X74890695Y-35574427D01*
X74890697Y-35574425D01*
X75006230Y-35475750D01*
X75006230Y-35475749D01*
X75012008Y-35470815D01*
X75109534Y-35335094D01*
X75171870Y-35180027D01*
X75195418Y-35014567D01*
X75195571Y-35000000D01*
X75175493Y-34834083D01*
X75116418Y-34677745D01*
X75062660Y-34599527D01*
X75040500Y-34528160D01*
X75040500Y-34283573D01*
X75060502Y-34215452D01*
X75077405Y-34194478D01*
X75519478Y-33752405D01*
X75581790Y-33718379D01*
X75608573Y-33715500D01*
X76825658Y-33715500D01*
X76834245Y-33714478D01*
X76841597Y-33713604D01*
X76841600Y-33713603D01*
X76850989Y-33712486D01*
X76859628Y-33708649D01*
X76859631Y-33708648D01*
X76939263Y-33673277D01*
X76939264Y-33673276D01*
X76949891Y-33668556D01*
X77026347Y-33591966D01*
X77032356Y-33578375D01*
X77060516Y-33514677D01*
X77070105Y-33492987D01*
X77073000Y-33468158D01*
X77073000Y-31681842D01*
X77071166Y-31666425D01*
X77071104Y-31665903D01*
X77071103Y-31665900D01*
X77069986Y-31656511D01*
X77066149Y-31647872D01*
X77066148Y-31647869D01*
X77030777Y-31568237D01*
X77030776Y-31568236D01*
X77026056Y-31557609D01*
X76949466Y-31481153D01*
X76850487Y-31437395D01*
X76834217Y-31435498D01*
X76829297Y-31434924D01*
X76829292Y-31434924D01*
X76825658Y-31434500D01*
X75039342Y-31434500D01*
X75030755Y-31435522D01*
X75023403Y-31436396D01*
X75023400Y-31436397D01*
X75014011Y-31437514D01*
X75005372Y-31441351D01*
X75005369Y-31441352D01*
X74925737Y-31476723D01*
X74925736Y-31476724D01*
X74915109Y-31481444D01*
X74838653Y-31558034D01*
X74794895Y-31657013D01*
X74792000Y-31681842D01*
X74792000Y-31811311D01*
X74771998Y-31879432D01*
X74718342Y-31925925D01*
X74648068Y-31936029D01*
X74583488Y-31906535D01*
X74560208Y-31879751D01*
X74474927Y-31747926D01*
X74468636Y-31739757D01*
X74325306Y-31582240D01*
X74317773Y-31575215D01*
X74150639Y-31443222D01*
X74142052Y-31437517D01*
X73955617Y-31334599D01*
X73946205Y-31330369D01*
X73745459Y-31259280D01*
X73735488Y-31256646D01*
X73664337Y-31243972D01*
X73651040Y-31245432D01*
X73646500Y-31259989D01*
X73646500Y-33893517D01*
X73138500Y-33893517D01*
X73138500Y-31258102D01*
X73134582Y-31244758D01*
X73120306Y-31242771D01*
X73081824Y-31248660D01*
X73071788Y-31251051D01*
X72869368Y-31317212D01*
X72859859Y-31321209D01*
X72670963Y-31419542D01*
X72662238Y-31425036D01*
X72491933Y-31552905D01*
X72484226Y-31559748D01*
X72337090Y-31713717D01*
X72330604Y-31721727D01*
X72210598Y-31897649D01*
X72205499Y-31906623D01*
X72117126Y-32097008D01*
X72070302Y-32150375D01*
X72002058Y-32169956D01*
X71934063Y-32149532D01*
X71889832Y-32099686D01*
X71888512Y-32097008D01*
X71829102Y-31976537D01*
X71703688Y-31808587D01*
X71601058Y-31713717D01*
X71554007Y-31670223D01*
X71554004Y-31670221D01*
X71549767Y-31666304D01*
X71372494Y-31554454D01*
X71360827Y-31549799D01*
X71311744Y-31530217D01*
X71177807Y-31476781D01*
X71172139Y-31475654D01*
X71172137Y-31475653D01*
X70977892Y-31437016D01*
X70977890Y-31437016D01*
X70972225Y-31435889D01*
X70966450Y-31435813D01*
X70966446Y-31435813D01*
X70861368Y-31434438D01*
X70762634Y-31433145D01*
X70756937Y-31434124D01*
X70756936Y-31434124D01*
X70561749Y-31467663D01*
X70556052Y-31468642D01*
X70359399Y-31541191D01*
X70354438Y-31544143D01*
X70354437Y-31544143D01*
X70333553Y-31556568D01*
X70179259Y-31648363D01*
X70021666Y-31786568D01*
X70018099Y-31791093D01*
X70018094Y-31791098D01*
X69895472Y-31946644D01*
X69891898Y-31951178D01*
X69889210Y-31956287D01*
X69796990Y-32131568D01*
X69796988Y-32131573D01*
X69794301Y-32136680D01*
X69732143Y-32336861D01*
X69707506Y-32545017D01*
X69707884Y-32550780D01*
X69707875Y-32551113D01*
X69706358Y-32555821D01*
X69456124Y-32555821D01*
X69438706Y-32366270D01*
X69381810Y-32164530D01*
X69289102Y-31976537D01*
X69163688Y-31808587D01*
X69061058Y-31713717D01*
X69014007Y-31670223D01*
X69014004Y-31670221D01*
X69009767Y-31666304D01*
X68832494Y-31554454D01*
X68820827Y-31549799D01*
X68771744Y-31530217D01*
X68637807Y-31476781D01*
X68632139Y-31475654D01*
X68632137Y-31475653D01*
X68437892Y-31437016D01*
X68437890Y-31437016D01*
X68432225Y-31435889D01*
X68426450Y-31435813D01*
X68426446Y-31435813D01*
X68321368Y-31434438D01*
X68222634Y-31433145D01*
X68216937Y-31434124D01*
X68216936Y-31434124D01*
X68021749Y-31467663D01*
X68016052Y-31468642D01*
X67819399Y-31541191D01*
X67814438Y-31544143D01*
X67814437Y-31544143D01*
X67793553Y-31556568D01*
X67639259Y-31648363D01*
X67481666Y-31786568D01*
X67478099Y-31791093D01*
X67478094Y-31791098D01*
X67355472Y-31946644D01*
X67351898Y-31951178D01*
X67349210Y-31956287D01*
X67256990Y-32131568D01*
X67256988Y-32131573D01*
X67254301Y-32136680D01*
X67192143Y-32336861D01*
X67167506Y-32545017D01*
X67167884Y-32550780D01*
X67167875Y-32551113D01*
X67166358Y-32555821D01*
X66916124Y-32555821D01*
X66898706Y-32366270D01*
X66841810Y-32164530D01*
X66749102Y-31976537D01*
X66623688Y-31808587D01*
X66521058Y-31713717D01*
X66474007Y-31670223D01*
X66474004Y-31670221D01*
X66469767Y-31666304D01*
X66292494Y-31554454D01*
X66280827Y-31549799D01*
X66231744Y-31530217D01*
X66097807Y-31476781D01*
X66092139Y-31475654D01*
X66092137Y-31475653D01*
X65897892Y-31437016D01*
X65897890Y-31437016D01*
X65892225Y-31435889D01*
X65886450Y-31435813D01*
X65886446Y-31435813D01*
X65781368Y-31434438D01*
X65682634Y-31433145D01*
X65676937Y-31434124D01*
X65676936Y-31434124D01*
X65481749Y-31467663D01*
X65476052Y-31468642D01*
X65279399Y-31541191D01*
X65274438Y-31544143D01*
X65274437Y-31544143D01*
X65253553Y-31556568D01*
X65099259Y-31648363D01*
X64941666Y-31786568D01*
X64938099Y-31791093D01*
X64938094Y-31791098D01*
X64815472Y-31946644D01*
X64811898Y-31951178D01*
X64809210Y-31956287D01*
X64716990Y-32131568D01*
X64716988Y-32131573D01*
X64714301Y-32136680D01*
X64652143Y-32336861D01*
X64627506Y-32545017D01*
X52873000Y-32545017D01*
X52873000Y-31106842D01*
X52871166Y-31091425D01*
X52871104Y-31090903D01*
X52871103Y-31090900D01*
X52869986Y-31081511D01*
X52866149Y-31072872D01*
X52866148Y-31072869D01*
X52830777Y-30993237D01*
X52830776Y-30993236D01*
X52826056Y-30982609D01*
X52749466Y-30906153D01*
X52650487Y-30862395D01*
X52634217Y-30860498D01*
X52629297Y-30859924D01*
X52629292Y-30859924D01*
X52625658Y-30859500D01*
X50839342Y-30859500D01*
X50830755Y-30860522D01*
X50823403Y-30861396D01*
X50823400Y-30861397D01*
X50814011Y-30862514D01*
X50805372Y-30866351D01*
X50805369Y-30866352D01*
X50725737Y-30901723D01*
X50725736Y-30901724D01*
X50715109Y-30906444D01*
X50638653Y-30983034D01*
X50594895Y-31082013D01*
X50592000Y-31106842D01*
X50592000Y-32893158D01*
X49902316Y-32893158D01*
X49997978Y-32813596D01*
X50002410Y-32809910D01*
X50136443Y-32648754D01*
X50238862Y-32465870D01*
X50265437Y-32387585D01*
X50304381Y-32272859D01*
X50304381Y-32272857D01*
X50306239Y-32267385D01*
X50307068Y-32261669D01*
X50307069Y-32261664D01*
X50335783Y-32063619D01*
X50336316Y-32059945D01*
X50337886Y-32000000D01*
X50318706Y-31791270D01*
X50261810Y-31589530D01*
X50169102Y-31401537D01*
X50115959Y-31330369D01*
X50047141Y-31238211D01*
X50047140Y-31238210D01*
X50043688Y-31233587D01*
X49951052Y-31147955D01*
X49894007Y-31095223D01*
X49894004Y-31095221D01*
X49889767Y-31091304D01*
X49712494Y-30979454D01*
X49700827Y-30974799D01*
X49651744Y-30955217D01*
X49517807Y-30901781D01*
X49512139Y-30900654D01*
X49512137Y-30900653D01*
X49317892Y-30862016D01*
X49317890Y-30862016D01*
X49312225Y-30860889D01*
X49306450Y-30860813D01*
X49306446Y-30860813D01*
X49201368Y-30859438D01*
X49102634Y-30858145D01*
X49096937Y-30859124D01*
X49096936Y-30859124D01*
X48901749Y-30892663D01*
X48896052Y-30893642D01*
X48699399Y-30966191D01*
X48519259Y-31073363D01*
X48361666Y-31211568D01*
X48358099Y-31216093D01*
X48358094Y-31216098D01*
X48264676Y-31334599D01*
X48231898Y-31376178D01*
X48229210Y-31381287D01*
X48136990Y-31556568D01*
X48136988Y-31556573D01*
X48134301Y-31561680D01*
X48123926Y-31595094D01*
X48095853Y-31685504D01*
X48072143Y-31761861D01*
X48047506Y-31970017D01*
X48047884Y-31975780D01*
X48047875Y-31976113D01*
X48046358Y-31980821D01*
X47796124Y-31980821D01*
X47778706Y-31791270D01*
X47721810Y-31589530D01*
X47629102Y-31401537D01*
X47575959Y-31330369D01*
X47507141Y-31238211D01*
X47507140Y-31238210D01*
X47503688Y-31233587D01*
X47411052Y-31147955D01*
X47354007Y-31095223D01*
X47354004Y-31095221D01*
X47349767Y-31091304D01*
X47172494Y-30979454D01*
X47160827Y-30974799D01*
X47111744Y-30955217D01*
X46977807Y-30901781D01*
X46972139Y-30900654D01*
X46972137Y-30900653D01*
X46777892Y-30862016D01*
X46777890Y-30862016D01*
X46772225Y-30860889D01*
X46766450Y-30860813D01*
X46766446Y-30860813D01*
X46661368Y-30859438D01*
X46562634Y-30858145D01*
X46556937Y-30859124D01*
X46556936Y-30859124D01*
X46361749Y-30892663D01*
X46356052Y-30893642D01*
X46159399Y-30966191D01*
X45979259Y-31073363D01*
X45821666Y-31211568D01*
X45818099Y-31216093D01*
X45818094Y-31216098D01*
X45724676Y-31334599D01*
X45691898Y-31376178D01*
X45689210Y-31381287D01*
X45596990Y-31556568D01*
X45596988Y-31556573D01*
X45594301Y-31561680D01*
X45583926Y-31595094D01*
X45555853Y-31685504D01*
X45532143Y-31761861D01*
X45507506Y-31970017D01*
X45507884Y-31975780D01*
X45507875Y-31976113D01*
X45506358Y-31980821D01*
X45256124Y-31980821D01*
X45238706Y-31791270D01*
X45181810Y-31589530D01*
X45089102Y-31401537D01*
X45035959Y-31330369D01*
X44967141Y-31238211D01*
X44967140Y-31238210D01*
X44963688Y-31233587D01*
X44871052Y-31147955D01*
X44814007Y-31095223D01*
X44814004Y-31095221D01*
X44809767Y-31091304D01*
X44632494Y-30979454D01*
X44620827Y-30974799D01*
X44571744Y-30955217D01*
X44437807Y-30901781D01*
X44432139Y-30900654D01*
X44432137Y-30900653D01*
X44237892Y-30862016D01*
X44237890Y-30862016D01*
X44232225Y-30860889D01*
X44226450Y-30860813D01*
X44226446Y-30860813D01*
X44121368Y-30859438D01*
X44022634Y-30858145D01*
X44016937Y-30859124D01*
X44016936Y-30859124D01*
X43821749Y-30892663D01*
X43816052Y-30893642D01*
X43619399Y-30966191D01*
X43439259Y-31073363D01*
X43281666Y-31211568D01*
X43278099Y-31216093D01*
X43278094Y-31216098D01*
X43184676Y-31334599D01*
X43151898Y-31376178D01*
X43149210Y-31381287D01*
X43056990Y-31556568D01*
X43056988Y-31556573D01*
X43054301Y-31561680D01*
X43043926Y-31595094D01*
X43015853Y-31685504D01*
X42992143Y-31761861D01*
X42967506Y-31970017D01*
X34223000Y-31970017D01*
X34223000Y-30416500D01*
X34243002Y-30348379D01*
X34296658Y-30301886D01*
X34349000Y-30290500D01*
X78516000Y-30290500D01*
X78584121Y-30310502D01*
G37*
%TD.AperFunction*%
%TD*%
M02*
