%TF.GenerationSoftware,KiCad,Pcbnew,6.0.7*%
%TF.CreationDate,2022-09-21T21:00:50-05:00*%
%TF.ProjectId,keyboardPCBv2,6b657962-6f61-4726-9450-434276322e6b,rev?*%
%TF.SameCoordinates,Original*%
%TF.FileFunction,Soldermask,Bot*%
%TF.FilePolarity,Negative*%
%FSLAX46Y46*%
G04 Gerber Fmt 4.6, Leading zero omitted, Abs format (unit mm)*
G04 Created by KiCad (PCBNEW 6.0.7) date 2022-09-21 21:00:50*
%MOMM*%
%LPD*%
G01*
G04 APERTURE LIST*
G04 Aperture macros list*
%AMRoundRect*
0 Rectangle with rounded corners*
0 $1 Rounding radius*
0 $2 $3 $4 $5 $6 $7 $8 $9 X,Y pos of 4 corners*
0 Add a 4 corners polygon primitive as box body*
4,1,4,$2,$3,$4,$5,$6,$7,$8,$9,$2,$3,0*
0 Add four circle primitives for the rounded corners*
1,1,$1+$1,$2,$3*
1,1,$1+$1,$4,$5*
1,1,$1+$1,$6,$7*
1,1,$1+$1,$8,$9*
0 Add four rect primitives between the rounded corners*
20,1,$1+$1,$2,$3,$4,$5,0*
20,1,$1+$1,$4,$5,$6,$7,0*
20,1,$1+$1,$6,$7,$8,$9,0*
20,1,$1+$1,$8,$9,$2,$3,0*%
%AMFreePoly0*
4,1,37,0.592426,0.792426,0.610000,0.750000,0.610000,-0.750000,0.592426,-0.792426,0.550000,-0.810000,0.000000,-0.810000,-0.012520,-0.804814,-0.081040,-0.803558,-0.097833,-0.800838,-0.233148,-0.758563,-0.248503,-0.751239,-0.366513,-0.672684,-0.379195,-0.661345,-0.470415,-0.552826,-0.479405,-0.538384,-0.536500,-0.408625,-0.541074,-0.392240,-0.558657,-0.257780,-0.556874,-0.257547,-0.560000,-0.250000,
-0.560000,0.250000,-0.559419,0.251404,-0.559249,0.265340,-0.537438,0.405417,-0.532464,0.421685,-0.472216,0.550010,-0.462876,0.564229,-0.369032,0.670487,-0.356077,0.681513,-0.236182,0.757161,-0.220653,0.764107,-0.084346,0.803064,-0.067491,0.805373,-0.011990,0.805034,0.000000,0.810000,0.550000,0.810000,0.592426,0.792426,0.592426,0.792426,$1*%
%AMFreePoly1*
4,1,37,0.012349,0.804885,0.074271,0.804507,0.091096,0.801992,0.226917,0.761373,0.242360,0.754238,0.361322,0.677131,0.374142,0.665947,0.466680,0.558550,0.475845,0.544219,0.534522,0.415167,0.539297,0.398839,0.559394,0.258506,0.560000,0.250000,0.560000,-0.250000,0.559996,-0.250732,0.559847,-0.262948,0.559019,-0.272170,0.535499,-0.411971,0.530327,-0.428178,0.468515,-0.555757,
0.459003,-0.569860,0.363868,-0.674964,0.350778,-0.685831,0.229968,-0.760008,0.214356,-0.766764,0.077583,-0.804053,0.060701,-0.806156,0.011459,-0.805253,0.000000,-0.810000,-0.550000,-0.810000,-0.592426,-0.792426,-0.610000,-0.750000,-0.610000,0.750000,-0.592426,0.792426,-0.550000,0.810000,0.000000,0.810000,0.012349,0.804885,0.012349,0.804885,$1*%
G04 Aperture macros list end*
%ADD10RoundRect,0.060000X-0.800000X0.800000X-0.800000X-0.800000X0.800000X-0.800000X0.800000X0.800000X0*%
%ADD11C,1.720000*%
%ADD12O,3.620000X2.120000*%
%ADD13O,2.120000X4.120000*%
%ADD14RoundRect,0.060000X0.850000X-0.850000X0.850000X0.850000X-0.850000X0.850000X-0.850000X-0.850000X0*%
%ADD15O,1.820000X1.820000*%
%ADD16FreePoly0,180.000000*%
%ADD17RoundRect,0.060000X0.500000X0.750000X-0.500000X0.750000X-0.500000X-0.750000X0.500000X-0.750000X0*%
%ADD18FreePoly1,180.000000*%
%ADD19FreePoly0,0.000000*%
%ADD20RoundRect,0.060000X-0.500000X-0.750000X0.500000X-0.750000X0.500000X0.750000X-0.500000X0.750000X0*%
%ADD21FreePoly1,0.000000*%
%ADD22O,2.118980X2.868280*%
G04 APERTURE END LIST*
D10*
%TO.C,P1*%
X69932500Y-45500000D03*
D11*
X69932500Y-42900000D03*
X69932500Y-47600000D03*
X69932500Y-40800000D03*
X67132500Y-47600000D03*
X67132500Y-40800000D03*
D12*
X72782500Y-51050000D03*
X72782500Y-37350000D03*
D13*
X73582500Y-44200000D03*
%TD*%
D14*
%TO.C,J1*%
X75932500Y-32575000D03*
D15*
X73392500Y-32575000D03*
X70852500Y-32575000D03*
X68312500Y-32575000D03*
X65772500Y-32575000D03*
%TD*%
D16*
%TO.C,JP1*%
X62832500Y-37157500D03*
D17*
X61532500Y-37157500D03*
D18*
X60232500Y-37157500D03*
%TD*%
D19*
%TO.C,JP2*%
X60200000Y-34500000D03*
D20*
X61500000Y-34500000D03*
D21*
X62800000Y-34500000D03*
%TD*%
D22*
%TO.C,QT_Board1*%
X36814680Y-35833120D03*
X39354680Y-35833120D03*
X41894680Y-35833120D03*
X44434680Y-35833120D03*
X46974680Y-35833120D03*
X49514680Y-35833120D03*
X52054680Y-35833120D03*
X52054680Y-51997680D03*
X49514680Y-51997680D03*
X46974680Y-51997680D03*
X44434680Y-51997680D03*
X41894680Y-51997680D03*
X39354680Y-51997680D03*
X36814680Y-51997680D03*
%TD*%
D14*
%TO.C,Screen1*%
X51732500Y-32000000D03*
D15*
X49192500Y-32000000D03*
X46652500Y-32000000D03*
X44112500Y-32000000D03*
%TD*%
G36*
X62079663Y-36368838D02*
G01*
X62086147Y-36373170D01*
X62155201Y-36394791D01*
X62228866Y-36373161D01*
X62235337Y-36368838D01*
X62237333Y-36368707D01*
X62238444Y-36370370D01*
X62238111Y-36371612D01*
X62228952Y-36385318D01*
X62224500Y-36407699D01*
X62224500Y-37907301D01*
X62228952Y-37929682D01*
X62238111Y-37943388D01*
X62238242Y-37945383D01*
X62236579Y-37946495D01*
X62235337Y-37946162D01*
X62228853Y-37941830D01*
X62159799Y-37920209D01*
X62086134Y-37941839D01*
X62079663Y-37946162D01*
X62077667Y-37946293D01*
X62076556Y-37944630D01*
X62076889Y-37943388D01*
X62086048Y-37929682D01*
X62090500Y-37907301D01*
X62090500Y-36407699D01*
X62086048Y-36385318D01*
X62076889Y-36371612D01*
X62076758Y-36369617D01*
X62078421Y-36368505D01*
X62079663Y-36368838D01*
G37*
G36*
X60829663Y-36368838D02*
G01*
X60836147Y-36373170D01*
X60905201Y-36394791D01*
X60978866Y-36373161D01*
X60985337Y-36368838D01*
X60987333Y-36368707D01*
X60988444Y-36370370D01*
X60988111Y-36371612D01*
X60978952Y-36385318D01*
X60974500Y-36407699D01*
X60974500Y-37907301D01*
X60978952Y-37929682D01*
X60988111Y-37943388D01*
X60988242Y-37945383D01*
X60986579Y-37946495D01*
X60985337Y-37946162D01*
X60978853Y-37941830D01*
X60909799Y-37920209D01*
X60836134Y-37941839D01*
X60829663Y-37946162D01*
X60827667Y-37946293D01*
X60826556Y-37944630D01*
X60826889Y-37943388D01*
X60836048Y-37929682D01*
X60840500Y-37907301D01*
X60840500Y-36407699D01*
X60836048Y-36385318D01*
X60826889Y-36371612D01*
X60826758Y-36369617D01*
X60828421Y-36368505D01*
X60829663Y-36368838D01*
G37*
G36*
X60797163Y-33711338D02*
G01*
X60803647Y-33715670D01*
X60872701Y-33737291D01*
X60946366Y-33715661D01*
X60952837Y-33711338D01*
X60954833Y-33711207D01*
X60955944Y-33712870D01*
X60955611Y-33714112D01*
X60946452Y-33727818D01*
X60942000Y-33750199D01*
X60942000Y-35249801D01*
X60946452Y-35272182D01*
X60955611Y-35285888D01*
X60955742Y-35287883D01*
X60954079Y-35288995D01*
X60952837Y-35288662D01*
X60946353Y-35284330D01*
X60877299Y-35262709D01*
X60803634Y-35284339D01*
X60797163Y-35288662D01*
X60795167Y-35288793D01*
X60794056Y-35287130D01*
X60794389Y-35285888D01*
X60803548Y-35272182D01*
X60808000Y-35249801D01*
X60808000Y-33750199D01*
X60803548Y-33727818D01*
X60794389Y-33714112D01*
X60794258Y-33712117D01*
X60795921Y-33711005D01*
X60797163Y-33711338D01*
G37*
G36*
X62047163Y-33711338D02*
G01*
X62053647Y-33715670D01*
X62122701Y-33737291D01*
X62196366Y-33715661D01*
X62202837Y-33711338D01*
X62204833Y-33711207D01*
X62205944Y-33712870D01*
X62205611Y-33714112D01*
X62196452Y-33727818D01*
X62192000Y-33750199D01*
X62192000Y-35249801D01*
X62196452Y-35272182D01*
X62205611Y-35285888D01*
X62205742Y-35287883D01*
X62204079Y-35288995D01*
X62202837Y-35288662D01*
X62196353Y-35284330D01*
X62127299Y-35262709D01*
X62053634Y-35284339D01*
X62047163Y-35288662D01*
X62045167Y-35288793D01*
X62044056Y-35287130D01*
X62044389Y-35285888D01*
X62053548Y-35272182D01*
X62058000Y-35249801D01*
X62058000Y-33750199D01*
X62053548Y-33727818D01*
X62044389Y-33714112D01*
X62044258Y-33712117D01*
X62045921Y-33711005D01*
X62047163Y-33711338D01*
G37*
M02*
