%TF.GenerationSoftware,KiCad,Pcbnew,6.0.7*%
%TF.CreationDate,2022-09-21T21:47:23-05:00*%
%TF.ProjectId,keyboardPCBv2,6b657962-6f61-4726-9450-434276322e6b,rev?*%
%TF.SameCoordinates,Original*%
%TF.FileFunction,Drillmap*%
%TF.FilePolarity,Positive*%
%FSLAX45Y45*%
G04 Gerber Fmt 4.5, Leading zero omitted, Abs format (unit mm)*
G04 Created by KiCad (PCBNEW 6.0.7) date 2022-09-21 21:47:23*
%MOMM*%
%LPD*%
G01*
G04 APERTURE LIST*
%ADD10C,0.100000*%
%ADD11C,0.200000*%
G04 APERTURE END LIST*
D10*
X3393250Y-5800000D02*
X7893250Y-5800000D01*
X7893250Y-5800000D02*
X7893250Y-3000000D01*
X7893250Y-3000000D02*
X3393250Y-3000000D01*
X3393250Y-3000000D02*
X3393250Y-5800000D01*
D11*
X3645869Y-6115476D02*
X3645869Y-5915476D01*
X3693488Y-5915476D01*
X3722059Y-5925000D01*
X3741107Y-5944048D01*
X3750631Y-5963095D01*
X3760155Y-6001190D01*
X3760155Y-6029762D01*
X3750631Y-6067857D01*
X3741107Y-6086905D01*
X3722059Y-6105952D01*
X3693488Y-6115476D01*
X3645869Y-6115476D01*
X3845869Y-6115476D02*
X3845869Y-5982143D01*
X3845869Y-6020238D02*
X3855393Y-6001190D01*
X3864917Y-5991667D01*
X3883964Y-5982143D01*
X3903012Y-5982143D01*
X3969678Y-6115476D02*
X3969678Y-5982143D01*
X3969678Y-5915476D02*
X3960155Y-5925000D01*
X3969678Y-5934524D01*
X3979202Y-5925000D01*
X3969678Y-5915476D01*
X3969678Y-5934524D01*
X4093488Y-6115476D02*
X4074440Y-6105952D01*
X4064917Y-6086905D01*
X4064917Y-5915476D01*
X4198250Y-6115476D02*
X4179202Y-6105952D01*
X4169678Y-6086905D01*
X4169678Y-5915476D01*
X4426821Y-6115476D02*
X4426821Y-5915476D01*
X4493488Y-6058333D01*
X4560155Y-5915476D01*
X4560155Y-6115476D01*
X4741107Y-6115476D02*
X4741107Y-6010714D01*
X4731583Y-5991667D01*
X4712536Y-5982143D01*
X4674440Y-5982143D01*
X4655393Y-5991667D01*
X4741107Y-6105952D02*
X4722060Y-6115476D01*
X4674440Y-6115476D01*
X4655393Y-6105952D01*
X4645869Y-6086905D01*
X4645869Y-6067857D01*
X4655393Y-6048809D01*
X4674440Y-6039286D01*
X4722060Y-6039286D01*
X4741107Y-6029762D01*
X4836345Y-5982143D02*
X4836345Y-6182143D01*
X4836345Y-5991667D02*
X4855393Y-5982143D01*
X4893488Y-5982143D01*
X4912536Y-5991667D01*
X4922060Y-6001190D01*
X4931583Y-6020238D01*
X4931583Y-6077381D01*
X4922060Y-6096428D01*
X4912536Y-6105952D01*
X4893488Y-6115476D01*
X4855393Y-6115476D01*
X4836345Y-6105952D01*
X5017298Y-6096428D02*
X5026821Y-6105952D01*
X5017298Y-6115476D01*
X5007774Y-6105952D01*
X5017298Y-6096428D01*
X5017298Y-6115476D01*
X5017298Y-5991667D02*
X5026821Y-6001190D01*
X5017298Y-6010714D01*
X5007774Y-6001190D01*
X5017298Y-5991667D01*
X5017298Y-6010714D01*
M02*
