%TF.GenerationSoftware,KiCad,Pcbnew,6.0.7*%
%TF.CreationDate,2022-09-21T21:47:23-05:00*%
%TF.ProjectId,keyboardPCBv2,6b657962-6f61-4726-9450-434276322e6b,rev?*%
%TF.SameCoordinates,Original*%
%TF.FileFunction,Drillmap*%
%TF.FilePolarity,Positive*%
%FSLAX45Y45*%
G04 Gerber Fmt 4.5, Leading zero omitted, Abs format (unit mm)*
G04 Created by KiCad (PCBNEW 6.0.7) date 2022-09-21 21:47:23*
%MOMM*%
%LPD*%
G01*
G04 APERTURE LIST*
%ADD10C,0.100000*%
%ADD11C,0.200000*%
%ADD12C,0.040000*%
%ADD13C,0.080000*%
G04 APERTURE END LIST*
D10*
X3393250Y-5800000D02*
X7893250Y-5800000D01*
X7893250Y-5800000D02*
X7893250Y-3000000D01*
X7893250Y-3000000D02*
X3393250Y-3000000D01*
X3393250Y-3000000D02*
X3393250Y-5800000D01*
D11*
D12*
X3653250Y-5280000D02*
X3693250Y-5320000D01*
X3693250Y-5280000D02*
X3653250Y-5320000D01*
X3673250Y-3480000D02*
X3713250Y-3520000D01*
X3713250Y-3480000D02*
X3673250Y-3520000D01*
X3803250Y-3760000D02*
X3843250Y-3800000D01*
X3843250Y-3760000D02*
X3803250Y-3800000D01*
X3853250Y-3989950D02*
X3893250Y-4029950D01*
X3893250Y-3989950D02*
X3853250Y-4029950D01*
X3900000Y-5430000D02*
X3940000Y-5470000D01*
X3940000Y-5430000D02*
X3900000Y-5470000D01*
X3913250Y-5180000D02*
X3953250Y-5220000D01*
X3953250Y-5180000D02*
X3913250Y-5220000D01*
X4033250Y-3369950D02*
X4073250Y-3409950D01*
X4073250Y-3369950D02*
X4033250Y-3409950D01*
X4173250Y-3460000D02*
X4213250Y-3500000D01*
X4213250Y-3460000D02*
X4173250Y-3500000D01*
X4263250Y-5430000D02*
X4303250Y-5470000D01*
X4303250Y-5430000D02*
X4263250Y-5470000D01*
X4323250Y-3760000D02*
X4363250Y-3800000D01*
X4363250Y-3760000D02*
X4323250Y-3800000D01*
X4423468Y-3530218D02*
X4463468Y-3570218D01*
X4463468Y-3530218D02*
X4423468Y-3570218D01*
X4451366Y-5179818D02*
X4491366Y-5219818D01*
X4491366Y-5179818D02*
X4451366Y-5219818D01*
X4673250Y-3600000D02*
X4713250Y-3640000D01*
X4713250Y-3600000D02*
X4673250Y-3640000D01*
X4690000Y-5260000D02*
X4730000Y-5300000D01*
X4730000Y-5260000D02*
X4690000Y-5300000D01*
X4900000Y-5090000D02*
X4940000Y-5130000D01*
X4940000Y-5090000D02*
X4900000Y-5130000D01*
X4903250Y-3570000D02*
X4943250Y-3610000D01*
X4943250Y-3570000D02*
X4903250Y-3610000D01*
X4930000Y-3850000D02*
X4970000Y-3890000D01*
X4970000Y-3850000D02*
X4930000Y-3890000D01*
X4990000Y-4210000D02*
X5030000Y-4250000D01*
X5030000Y-4210000D02*
X4990000Y-4250000D01*
X5050000Y-5390000D02*
X5090000Y-5430000D01*
X5090000Y-5390000D02*
X5050000Y-5430000D01*
X5064480Y-5027450D02*
X5104480Y-5067450D01*
X5104480Y-5027450D02*
X5064480Y-5067450D01*
X5193250Y-3460000D02*
X5233250Y-3500000D01*
X5233250Y-3460000D02*
X5193250Y-3500000D01*
X5280000Y-4210000D02*
X5320000Y-4250000D01*
X5320000Y-4210000D02*
X5280000Y-4250000D01*
X5453250Y-5340000D02*
X5493250Y-5380000D01*
X5493250Y-5340000D02*
X5453250Y-5380000D01*
X6130000Y-3440000D02*
X6170000Y-3480000D01*
X6170000Y-3440000D02*
X6130000Y-3480000D01*
X6130000Y-3687550D02*
X6170000Y-3727550D01*
X6170000Y-3687550D02*
X6130000Y-3727550D01*
X6260000Y-3980000D02*
X6300000Y-4020000D01*
X6300000Y-3980000D02*
X6260000Y-4020000D01*
X6260000Y-4150000D02*
X6300000Y-4190000D01*
X6300000Y-4150000D02*
X6260000Y-4190000D01*
X6363250Y-3480000D02*
X6403250Y-3520000D01*
X6403250Y-3480000D02*
X6363250Y-3520000D01*
X7430000Y-3480000D02*
X7470000Y-3520000D01*
X7470000Y-3480000D02*
X7430000Y-3520000D01*
X7430000Y-4020000D02*
X7470000Y-4060000D01*
X7470000Y-4020000D02*
X7430000Y-4060000D01*
X7723250Y-4020000D02*
X7763250Y-4060000D01*
X7763250Y-4020000D02*
X7723250Y-4060000D01*
D13*
X6753250Y-4080000D02*
G75*
G03*
X6753250Y-4080000I-40000J0D01*
G01*
X6753250Y-4760000D02*
G75*
G03*
X6753250Y-4760000I-40000J0D01*
G01*
X7033250Y-4080000D02*
G75*
G03*
X7033250Y-4080000I-40000J0D01*
G01*
X7033250Y-4290000D02*
G75*
G03*
X7033250Y-4290000I-40000J0D01*
G01*
X7033250Y-4550000D02*
G75*
G03*
X7033250Y-4550000I-40000J0D01*
G01*
X7033250Y-4760000D02*
G75*
G03*
X7033250Y-4760000I-40000J0D01*
G01*
D10*
X4411250Y-3150000D02*
X4411250Y-3250000D01*
X4361250Y-3200000D02*
X4461250Y-3200000D01*
X4665250Y-3150000D02*
X4665250Y-3250000D01*
X4615250Y-3200000D02*
X4715250Y-3200000D01*
X4919250Y-3150000D02*
X4919250Y-3250000D01*
X4869250Y-3200000D02*
X4969250Y-3200000D01*
X5173250Y-3150000D02*
X5173250Y-3250000D01*
X5123250Y-3200000D02*
X5223250Y-3200000D01*
X6577250Y-3207500D02*
X6577250Y-3307500D01*
X6527250Y-3257500D02*
X6627250Y-3257500D01*
X6831250Y-3207500D02*
X6831250Y-3307500D01*
X6781250Y-3257500D02*
X6881250Y-3257500D01*
X7085250Y-3207500D02*
X7085250Y-3307500D01*
X7035250Y-3257500D02*
X7135250Y-3257500D01*
X7278250Y-3685000D02*
X7278250Y-3785000D01*
X7228250Y-3735000D02*
X7328250Y-3735000D01*
D11*
X7353250Y-3685000D02*
X7203250Y-3685000D01*
X7353250Y-3785000D02*
X7203250Y-3785000D01*
X7203250Y-3685000D02*
G75*
G03*
X7203250Y-3785000I0J-50000D01*
G01*
X7353250Y-3785000D02*
G75*
G03*
X7353250Y-3685000I0J50000D01*
G01*
D10*
X7278250Y-5055000D02*
X7278250Y-5155000D01*
X7228250Y-5105000D02*
X7328250Y-5105000D01*
D11*
X7353250Y-5055000D02*
X7203250Y-5055000D01*
X7353250Y-5155000D02*
X7203250Y-5155000D01*
X7203250Y-5055000D02*
G75*
G03*
X7203250Y-5155000I0J-50000D01*
G01*
X7353250Y-5155000D02*
G75*
G03*
X7353250Y-5055000I0J50000D01*
G01*
D10*
X7339250Y-3207500D02*
X7339250Y-3307500D01*
X7289250Y-3257500D02*
X7389250Y-3257500D01*
X7358250Y-4370000D02*
X7358250Y-4470000D01*
X7308250Y-4420000D02*
X7408250Y-4420000D01*
D11*
X7308250Y-4320000D02*
X7308250Y-4520000D01*
X7408250Y-4320000D02*
X7408250Y-4520000D01*
X7308250Y-4520000D02*
G75*
G03*
X7408250Y-4520000I50000J0D01*
G01*
X7408250Y-4320000D02*
G75*
G03*
X7308250Y-4320000I-50000J0D01*
G01*
D10*
X7593250Y-3207500D02*
X7593250Y-3307500D01*
X7543250Y-3257500D02*
X7643250Y-3257500D01*
D11*
X3645869Y-6115476D02*
X3645869Y-5915476D01*
X3693488Y-5915476D01*
X3722059Y-5925000D01*
X3741107Y-5944048D01*
X3750631Y-5963095D01*
X3760155Y-6001190D01*
X3760155Y-6029762D01*
X3750631Y-6067857D01*
X3741107Y-6086905D01*
X3722059Y-6105952D01*
X3693488Y-6115476D01*
X3645869Y-6115476D01*
X3845869Y-6115476D02*
X3845869Y-5982143D01*
X3845869Y-6020238D02*
X3855393Y-6001190D01*
X3864917Y-5991667D01*
X3883964Y-5982143D01*
X3903012Y-5982143D01*
X3969678Y-6115476D02*
X3969678Y-5982143D01*
X3969678Y-5915476D02*
X3960155Y-5925000D01*
X3969678Y-5934524D01*
X3979202Y-5925000D01*
X3969678Y-5915476D01*
X3969678Y-5934524D01*
X4093488Y-6115476D02*
X4074440Y-6105952D01*
X4064917Y-6086905D01*
X4064917Y-5915476D01*
X4198250Y-6115476D02*
X4179202Y-6105952D01*
X4169678Y-6086905D01*
X4169678Y-5915476D01*
X4426821Y-6115476D02*
X4426821Y-5915476D01*
X4493488Y-6058333D01*
X4560155Y-5915476D01*
X4560155Y-6115476D01*
X4741107Y-6115476D02*
X4741107Y-6010714D01*
X4731583Y-5991667D01*
X4712536Y-5982143D01*
X4674440Y-5982143D01*
X4655393Y-5991667D01*
X4741107Y-6105952D02*
X4722060Y-6115476D01*
X4674440Y-6115476D01*
X4655393Y-6105952D01*
X4645869Y-6086905D01*
X4645869Y-6067857D01*
X4655393Y-6048809D01*
X4674440Y-6039286D01*
X4722060Y-6039286D01*
X4741107Y-6029762D01*
X4836345Y-5982143D02*
X4836345Y-6182143D01*
X4836345Y-5991667D02*
X4855393Y-5982143D01*
X4893488Y-5982143D01*
X4912536Y-5991667D01*
X4922060Y-6001190D01*
X4931583Y-6020238D01*
X4931583Y-6077381D01*
X4922060Y-6096428D01*
X4912536Y-6105952D01*
X4893488Y-6115476D01*
X4855393Y-6115476D01*
X4836345Y-6105952D01*
X5017298Y-6096428D02*
X5026821Y-6105952D01*
X5017298Y-6115476D01*
X5007774Y-6105952D01*
X5017298Y-6096428D01*
X5017298Y-6115476D01*
X5017298Y-5991667D02*
X5026821Y-6001190D01*
X5017298Y-6010714D01*
X5007774Y-6001190D01*
X5017298Y-5991667D01*
X5017298Y-6010714D01*
D12*
X3348250Y-6425000D02*
X3388250Y-6465000D01*
X3388250Y-6425000D02*
X3348250Y-6465000D01*
D11*
X3683964Y-6335476D02*
X3703012Y-6335476D01*
X3722059Y-6345000D01*
X3731583Y-6354524D01*
X3741107Y-6373571D01*
X3750631Y-6411667D01*
X3750631Y-6459286D01*
X3741107Y-6497381D01*
X3731583Y-6516428D01*
X3722059Y-6525952D01*
X3703012Y-6535476D01*
X3683964Y-6535476D01*
X3664917Y-6525952D01*
X3655393Y-6516428D01*
X3645869Y-6497381D01*
X3636345Y-6459286D01*
X3636345Y-6411667D01*
X3645869Y-6373571D01*
X3655393Y-6354524D01*
X3664917Y-6345000D01*
X3683964Y-6335476D01*
X3836345Y-6516428D02*
X3845869Y-6525952D01*
X3836345Y-6535476D01*
X3826821Y-6525952D01*
X3836345Y-6516428D01*
X3836345Y-6535476D01*
X4017298Y-6402143D02*
X4017298Y-6535476D01*
X3969678Y-6325952D02*
X3922059Y-6468809D01*
X4045869Y-6468809D01*
X4160155Y-6335476D02*
X4179202Y-6335476D01*
X4198250Y-6345000D01*
X4207774Y-6354524D01*
X4217298Y-6373571D01*
X4226821Y-6411667D01*
X4226821Y-6459286D01*
X4217298Y-6497381D01*
X4207774Y-6516428D01*
X4198250Y-6525952D01*
X4179202Y-6535476D01*
X4160155Y-6535476D01*
X4141107Y-6525952D01*
X4131583Y-6516428D01*
X4122059Y-6497381D01*
X4112536Y-6459286D01*
X4112536Y-6411667D01*
X4122059Y-6373571D01*
X4131583Y-6354524D01*
X4141107Y-6345000D01*
X4160155Y-6335476D01*
X4350631Y-6335476D02*
X4369679Y-6335476D01*
X4388726Y-6345000D01*
X4398250Y-6354524D01*
X4407774Y-6373571D01*
X4417298Y-6411667D01*
X4417298Y-6459286D01*
X4407774Y-6497381D01*
X4398250Y-6516428D01*
X4388726Y-6525952D01*
X4369679Y-6535476D01*
X4350631Y-6535476D01*
X4331583Y-6525952D01*
X4322060Y-6516428D01*
X4312536Y-6497381D01*
X4303012Y-6459286D01*
X4303012Y-6411667D01*
X4312536Y-6373571D01*
X4322060Y-6354524D01*
X4331583Y-6345000D01*
X4350631Y-6335476D01*
X4503012Y-6535476D02*
X4503012Y-6402143D01*
X4503012Y-6421190D02*
X4512536Y-6411667D01*
X4531583Y-6402143D01*
X4560155Y-6402143D01*
X4579202Y-6411667D01*
X4588726Y-6430714D01*
X4588726Y-6535476D01*
X4588726Y-6430714D02*
X4598250Y-6411667D01*
X4617298Y-6402143D01*
X4645869Y-6402143D01*
X4664917Y-6411667D01*
X4674440Y-6430714D01*
X4674440Y-6535476D01*
X4769679Y-6535476D02*
X4769679Y-6402143D01*
X4769679Y-6421190D02*
X4779202Y-6411667D01*
X4798250Y-6402143D01*
X4826821Y-6402143D01*
X4845869Y-6411667D01*
X4855393Y-6430714D01*
X4855393Y-6535476D01*
X4855393Y-6430714D02*
X4864917Y-6411667D01*
X4883964Y-6402143D01*
X4912536Y-6402143D01*
X4931583Y-6411667D01*
X4941107Y-6430714D01*
X4941107Y-6535476D01*
X5331583Y-6325952D02*
X5160155Y-6583095D01*
X5588726Y-6335476D02*
X5607774Y-6335476D01*
X5626821Y-6345000D01*
X5636345Y-6354524D01*
X5645869Y-6373571D01*
X5655393Y-6411667D01*
X5655393Y-6459286D01*
X5645869Y-6497381D01*
X5636345Y-6516428D01*
X5626821Y-6525952D01*
X5607774Y-6535476D01*
X5588726Y-6535476D01*
X5569679Y-6525952D01*
X5560155Y-6516428D01*
X5550631Y-6497381D01*
X5541107Y-6459286D01*
X5541107Y-6411667D01*
X5550631Y-6373571D01*
X5560155Y-6354524D01*
X5569679Y-6345000D01*
X5588726Y-6335476D01*
X5741107Y-6516428D02*
X5750631Y-6525952D01*
X5741107Y-6535476D01*
X5731583Y-6525952D01*
X5741107Y-6516428D01*
X5741107Y-6535476D01*
X5874440Y-6335476D02*
X5893488Y-6335476D01*
X5912536Y-6345000D01*
X5922059Y-6354524D01*
X5931583Y-6373571D01*
X5941107Y-6411667D01*
X5941107Y-6459286D01*
X5931583Y-6497381D01*
X5922059Y-6516428D01*
X5912536Y-6525952D01*
X5893488Y-6535476D01*
X5874440Y-6535476D01*
X5855393Y-6525952D01*
X5845869Y-6516428D01*
X5836345Y-6497381D01*
X5826821Y-6459286D01*
X5826821Y-6411667D01*
X5836345Y-6373571D01*
X5845869Y-6354524D01*
X5855393Y-6345000D01*
X5874440Y-6335476D01*
X6131583Y-6535476D02*
X6017298Y-6535476D01*
X6074440Y-6535476D02*
X6074440Y-6335476D01*
X6055393Y-6364048D01*
X6036345Y-6383095D01*
X6017298Y-6392619D01*
X6312536Y-6335476D02*
X6217298Y-6335476D01*
X6207774Y-6430714D01*
X6217298Y-6421190D01*
X6236345Y-6411667D01*
X6283964Y-6411667D01*
X6303012Y-6421190D01*
X6312536Y-6430714D01*
X6322059Y-6449762D01*
X6322059Y-6497381D01*
X6312536Y-6516428D01*
X6303012Y-6525952D01*
X6283964Y-6535476D01*
X6236345Y-6535476D01*
X6217298Y-6525952D01*
X6207774Y-6516428D01*
X6388726Y-6335476D02*
X6522059Y-6335476D01*
X6436345Y-6535476D01*
X6588726Y-6335476D02*
X6588726Y-6373571D01*
X6664917Y-6335476D02*
X6664917Y-6373571D01*
X6960155Y-6611667D02*
X6950631Y-6602143D01*
X6931583Y-6573571D01*
X6922059Y-6554524D01*
X6912536Y-6525952D01*
X6903012Y-6478333D01*
X6903012Y-6440238D01*
X6912536Y-6392619D01*
X6922059Y-6364048D01*
X6931583Y-6345000D01*
X6950631Y-6316428D01*
X6960155Y-6306905D01*
X7017298Y-6335476D02*
X7141107Y-6335476D01*
X7074440Y-6411667D01*
X7103012Y-6411667D01*
X7122059Y-6421190D01*
X7131583Y-6430714D01*
X7141107Y-6449762D01*
X7141107Y-6497381D01*
X7131583Y-6516428D01*
X7122059Y-6525952D01*
X7103012Y-6535476D01*
X7045869Y-6535476D01*
X7026821Y-6525952D01*
X7017298Y-6516428D01*
X7331583Y-6535476D02*
X7217298Y-6535476D01*
X7274440Y-6535476D02*
X7274440Y-6335476D01*
X7255393Y-6364048D01*
X7236345Y-6383095D01*
X7217298Y-6392619D01*
X7569678Y-6535476D02*
X7569678Y-6335476D01*
X7655393Y-6535476D02*
X7655393Y-6430714D01*
X7645869Y-6411667D01*
X7626821Y-6402143D01*
X7598250Y-6402143D01*
X7579202Y-6411667D01*
X7569678Y-6421190D01*
X7779202Y-6535476D02*
X7760155Y-6525952D01*
X7750631Y-6516428D01*
X7741107Y-6497381D01*
X7741107Y-6440238D01*
X7750631Y-6421190D01*
X7760155Y-6411667D01*
X7779202Y-6402143D01*
X7807774Y-6402143D01*
X7826821Y-6411667D01*
X7836345Y-6421190D01*
X7845869Y-6440238D01*
X7845869Y-6497381D01*
X7836345Y-6516428D01*
X7826821Y-6525952D01*
X7807774Y-6535476D01*
X7779202Y-6535476D01*
X7960155Y-6535476D02*
X7941107Y-6525952D01*
X7931583Y-6506905D01*
X7931583Y-6335476D01*
X8112536Y-6525952D02*
X8093488Y-6535476D01*
X8055393Y-6535476D01*
X8036345Y-6525952D01*
X8026821Y-6506905D01*
X8026821Y-6430714D01*
X8036345Y-6411667D01*
X8055393Y-6402143D01*
X8093488Y-6402143D01*
X8112536Y-6411667D01*
X8122059Y-6430714D01*
X8122059Y-6449762D01*
X8026821Y-6468809D01*
X8198250Y-6525952D02*
X8217298Y-6535476D01*
X8255393Y-6535476D01*
X8274440Y-6525952D01*
X8283964Y-6506905D01*
X8283964Y-6497381D01*
X8274440Y-6478333D01*
X8255393Y-6468809D01*
X8226821Y-6468809D01*
X8207774Y-6459286D01*
X8198250Y-6440238D01*
X8198250Y-6430714D01*
X8207774Y-6411667D01*
X8226821Y-6402143D01*
X8255393Y-6402143D01*
X8274440Y-6411667D01*
X8350631Y-6611667D02*
X8360155Y-6602143D01*
X8379202Y-6573571D01*
X8388726Y-6554524D01*
X8398250Y-6525952D01*
X8407774Y-6478333D01*
X8407774Y-6440238D01*
X8398250Y-6392619D01*
X8388726Y-6364048D01*
X8379202Y-6345000D01*
X8360155Y-6316428D01*
X8350631Y-6306905D01*
D13*
X3388250Y-6709000D02*
G75*
G03*
X3388250Y-6709000I-40000J0D01*
G01*
D11*
X3683964Y-6599476D02*
X3703012Y-6599476D01*
X3722059Y-6609000D01*
X3731583Y-6618524D01*
X3741107Y-6637571D01*
X3750631Y-6675667D01*
X3750631Y-6723286D01*
X3741107Y-6761381D01*
X3731583Y-6780428D01*
X3722059Y-6789952D01*
X3703012Y-6799476D01*
X3683964Y-6799476D01*
X3664917Y-6789952D01*
X3655393Y-6780428D01*
X3645869Y-6761381D01*
X3636345Y-6723286D01*
X3636345Y-6675667D01*
X3645869Y-6637571D01*
X3655393Y-6618524D01*
X3664917Y-6609000D01*
X3683964Y-6599476D01*
X3836345Y-6780428D02*
X3845869Y-6789952D01*
X3836345Y-6799476D01*
X3826821Y-6789952D01*
X3836345Y-6780428D01*
X3836345Y-6799476D01*
X3960155Y-6685190D02*
X3941107Y-6675667D01*
X3931583Y-6666143D01*
X3922059Y-6647095D01*
X3922059Y-6637571D01*
X3931583Y-6618524D01*
X3941107Y-6609000D01*
X3960155Y-6599476D01*
X3998250Y-6599476D01*
X4017298Y-6609000D01*
X4026821Y-6618524D01*
X4036345Y-6637571D01*
X4036345Y-6647095D01*
X4026821Y-6666143D01*
X4017298Y-6675667D01*
X3998250Y-6685190D01*
X3960155Y-6685190D01*
X3941107Y-6694714D01*
X3931583Y-6704238D01*
X3922059Y-6723286D01*
X3922059Y-6761381D01*
X3931583Y-6780428D01*
X3941107Y-6789952D01*
X3960155Y-6799476D01*
X3998250Y-6799476D01*
X4017298Y-6789952D01*
X4026821Y-6780428D01*
X4036345Y-6761381D01*
X4036345Y-6723286D01*
X4026821Y-6704238D01*
X4017298Y-6694714D01*
X3998250Y-6685190D01*
X4160155Y-6599476D02*
X4179202Y-6599476D01*
X4198250Y-6609000D01*
X4207774Y-6618524D01*
X4217298Y-6637571D01*
X4226821Y-6675667D01*
X4226821Y-6723286D01*
X4217298Y-6761381D01*
X4207774Y-6780428D01*
X4198250Y-6789952D01*
X4179202Y-6799476D01*
X4160155Y-6799476D01*
X4141107Y-6789952D01*
X4131583Y-6780428D01*
X4122059Y-6761381D01*
X4112536Y-6723286D01*
X4112536Y-6675667D01*
X4122059Y-6637571D01*
X4131583Y-6618524D01*
X4141107Y-6609000D01*
X4160155Y-6599476D01*
X4350631Y-6599476D02*
X4369679Y-6599476D01*
X4388726Y-6609000D01*
X4398250Y-6618524D01*
X4407774Y-6637571D01*
X4417298Y-6675667D01*
X4417298Y-6723286D01*
X4407774Y-6761381D01*
X4398250Y-6780428D01*
X4388726Y-6789952D01*
X4369679Y-6799476D01*
X4350631Y-6799476D01*
X4331583Y-6789952D01*
X4322060Y-6780428D01*
X4312536Y-6761381D01*
X4303012Y-6723286D01*
X4303012Y-6675667D01*
X4312536Y-6637571D01*
X4322060Y-6618524D01*
X4331583Y-6609000D01*
X4350631Y-6599476D01*
X4503012Y-6799476D02*
X4503012Y-6666143D01*
X4503012Y-6685190D02*
X4512536Y-6675667D01*
X4531583Y-6666143D01*
X4560155Y-6666143D01*
X4579202Y-6675667D01*
X4588726Y-6694714D01*
X4588726Y-6799476D01*
X4588726Y-6694714D02*
X4598250Y-6675667D01*
X4617298Y-6666143D01*
X4645869Y-6666143D01*
X4664917Y-6675667D01*
X4674440Y-6694714D01*
X4674440Y-6799476D01*
X4769679Y-6799476D02*
X4769679Y-6666143D01*
X4769679Y-6685190D02*
X4779202Y-6675667D01*
X4798250Y-6666143D01*
X4826821Y-6666143D01*
X4845869Y-6675667D01*
X4855393Y-6694714D01*
X4855393Y-6799476D01*
X4855393Y-6694714D02*
X4864917Y-6675667D01*
X4883964Y-6666143D01*
X4912536Y-6666143D01*
X4931583Y-6675667D01*
X4941107Y-6694714D01*
X4941107Y-6799476D01*
X5331583Y-6589952D02*
X5160155Y-6847095D01*
X5588726Y-6599476D02*
X5607774Y-6599476D01*
X5626821Y-6609000D01*
X5636345Y-6618524D01*
X5645869Y-6637571D01*
X5655393Y-6675667D01*
X5655393Y-6723286D01*
X5645869Y-6761381D01*
X5636345Y-6780428D01*
X5626821Y-6789952D01*
X5607774Y-6799476D01*
X5588726Y-6799476D01*
X5569679Y-6789952D01*
X5560155Y-6780428D01*
X5550631Y-6761381D01*
X5541107Y-6723286D01*
X5541107Y-6675667D01*
X5550631Y-6637571D01*
X5560155Y-6618524D01*
X5569679Y-6609000D01*
X5588726Y-6599476D01*
X5741107Y-6780428D02*
X5750631Y-6789952D01*
X5741107Y-6799476D01*
X5731583Y-6789952D01*
X5741107Y-6780428D01*
X5741107Y-6799476D01*
X5874440Y-6599476D02*
X5893488Y-6599476D01*
X5912536Y-6609000D01*
X5922059Y-6618524D01*
X5931583Y-6637571D01*
X5941107Y-6675667D01*
X5941107Y-6723286D01*
X5931583Y-6761381D01*
X5922059Y-6780428D01*
X5912536Y-6789952D01*
X5893488Y-6799476D01*
X5874440Y-6799476D01*
X5855393Y-6789952D01*
X5845869Y-6780428D01*
X5836345Y-6761381D01*
X5826821Y-6723286D01*
X5826821Y-6675667D01*
X5836345Y-6637571D01*
X5845869Y-6618524D01*
X5855393Y-6609000D01*
X5874440Y-6599476D01*
X6007774Y-6599476D02*
X6131583Y-6599476D01*
X6064917Y-6675667D01*
X6093488Y-6675667D01*
X6112536Y-6685190D01*
X6122059Y-6694714D01*
X6131583Y-6713762D01*
X6131583Y-6761381D01*
X6122059Y-6780428D01*
X6112536Y-6789952D01*
X6093488Y-6799476D01*
X6036345Y-6799476D01*
X6017298Y-6789952D01*
X6007774Y-6780428D01*
X6322059Y-6799476D02*
X6207774Y-6799476D01*
X6264917Y-6799476D02*
X6264917Y-6599476D01*
X6245869Y-6628048D01*
X6226821Y-6647095D01*
X6207774Y-6656619D01*
X6503012Y-6599476D02*
X6407774Y-6599476D01*
X6398250Y-6694714D01*
X6407774Y-6685190D01*
X6426821Y-6675667D01*
X6474440Y-6675667D01*
X6493488Y-6685190D01*
X6503012Y-6694714D01*
X6512536Y-6713762D01*
X6512536Y-6761381D01*
X6503012Y-6780428D01*
X6493488Y-6789952D01*
X6474440Y-6799476D01*
X6426821Y-6799476D01*
X6407774Y-6789952D01*
X6398250Y-6780428D01*
X6588726Y-6599476D02*
X6588726Y-6637571D01*
X6664917Y-6599476D02*
X6664917Y-6637571D01*
X6960155Y-6875667D02*
X6950631Y-6866143D01*
X6931583Y-6837571D01*
X6922059Y-6818524D01*
X6912536Y-6789952D01*
X6903012Y-6742333D01*
X6903012Y-6704238D01*
X6912536Y-6656619D01*
X6922059Y-6628048D01*
X6931583Y-6609000D01*
X6950631Y-6580428D01*
X6960155Y-6570905D01*
X7122059Y-6599476D02*
X7083964Y-6599476D01*
X7064917Y-6609000D01*
X7055393Y-6618524D01*
X7036345Y-6647095D01*
X7026821Y-6685190D01*
X7026821Y-6761381D01*
X7036345Y-6780428D01*
X7045869Y-6789952D01*
X7064917Y-6799476D01*
X7103012Y-6799476D01*
X7122059Y-6789952D01*
X7131583Y-6780428D01*
X7141107Y-6761381D01*
X7141107Y-6713762D01*
X7131583Y-6694714D01*
X7122059Y-6685190D01*
X7103012Y-6675667D01*
X7064917Y-6675667D01*
X7045869Y-6685190D01*
X7036345Y-6694714D01*
X7026821Y-6713762D01*
X7379202Y-6799476D02*
X7379202Y-6599476D01*
X7464917Y-6799476D02*
X7464917Y-6694714D01*
X7455393Y-6675667D01*
X7436345Y-6666143D01*
X7407774Y-6666143D01*
X7388726Y-6675667D01*
X7379202Y-6685190D01*
X7588726Y-6799476D02*
X7569678Y-6789952D01*
X7560155Y-6780428D01*
X7550631Y-6761381D01*
X7550631Y-6704238D01*
X7560155Y-6685190D01*
X7569678Y-6675667D01*
X7588726Y-6666143D01*
X7617298Y-6666143D01*
X7636345Y-6675667D01*
X7645869Y-6685190D01*
X7655393Y-6704238D01*
X7655393Y-6761381D01*
X7645869Y-6780428D01*
X7636345Y-6789952D01*
X7617298Y-6799476D01*
X7588726Y-6799476D01*
X7769678Y-6799476D02*
X7750631Y-6789952D01*
X7741107Y-6770905D01*
X7741107Y-6599476D01*
X7922059Y-6789952D02*
X7903012Y-6799476D01*
X7864917Y-6799476D01*
X7845869Y-6789952D01*
X7836345Y-6770905D01*
X7836345Y-6694714D01*
X7845869Y-6675667D01*
X7864917Y-6666143D01*
X7903012Y-6666143D01*
X7922059Y-6675667D01*
X7931583Y-6694714D01*
X7931583Y-6713762D01*
X7836345Y-6732809D01*
X8007774Y-6789952D02*
X8026821Y-6799476D01*
X8064917Y-6799476D01*
X8083964Y-6789952D01*
X8093488Y-6770905D01*
X8093488Y-6761381D01*
X8083964Y-6742333D01*
X8064917Y-6732809D01*
X8036345Y-6732809D01*
X8017298Y-6723286D01*
X8007774Y-6704238D01*
X8007774Y-6694714D01*
X8017298Y-6675667D01*
X8036345Y-6666143D01*
X8064917Y-6666143D01*
X8083964Y-6675667D01*
X8160155Y-6875667D02*
X8169678Y-6866143D01*
X8188726Y-6837571D01*
X8198250Y-6818524D01*
X8207774Y-6789952D01*
X8217298Y-6742333D01*
X8217298Y-6704238D01*
X8207774Y-6656619D01*
X8198250Y-6628048D01*
X8188726Y-6609000D01*
X8169678Y-6580428D01*
X8160155Y-6570905D01*
D10*
X3338250Y-6923000D02*
X3338250Y-7023000D01*
X3288250Y-6973000D02*
X3388250Y-6973000D01*
D11*
X3750631Y-7063476D02*
X3636345Y-7063476D01*
X3693488Y-7063476D02*
X3693488Y-6863476D01*
X3674440Y-6892048D01*
X3655393Y-6911095D01*
X3636345Y-6920619D01*
X3836345Y-7044428D02*
X3845869Y-7053952D01*
X3836345Y-7063476D01*
X3826821Y-7053952D01*
X3836345Y-7044428D01*
X3836345Y-7063476D01*
X3969678Y-6863476D02*
X3988726Y-6863476D01*
X4007774Y-6873000D01*
X4017298Y-6882524D01*
X4026821Y-6901571D01*
X4036345Y-6939667D01*
X4036345Y-6987286D01*
X4026821Y-7025381D01*
X4017298Y-7044428D01*
X4007774Y-7053952D01*
X3988726Y-7063476D01*
X3969678Y-7063476D01*
X3950631Y-7053952D01*
X3941107Y-7044428D01*
X3931583Y-7025381D01*
X3922059Y-6987286D01*
X3922059Y-6939667D01*
X3931583Y-6901571D01*
X3941107Y-6882524D01*
X3950631Y-6873000D01*
X3969678Y-6863476D01*
X4160155Y-6863476D02*
X4179202Y-6863476D01*
X4198250Y-6873000D01*
X4207774Y-6882524D01*
X4217298Y-6901571D01*
X4226821Y-6939667D01*
X4226821Y-6987286D01*
X4217298Y-7025381D01*
X4207774Y-7044428D01*
X4198250Y-7053952D01*
X4179202Y-7063476D01*
X4160155Y-7063476D01*
X4141107Y-7053952D01*
X4131583Y-7044428D01*
X4122059Y-7025381D01*
X4112536Y-6987286D01*
X4112536Y-6939667D01*
X4122059Y-6901571D01*
X4131583Y-6882524D01*
X4141107Y-6873000D01*
X4160155Y-6863476D01*
X4350631Y-6863476D02*
X4369679Y-6863476D01*
X4388726Y-6873000D01*
X4398250Y-6882524D01*
X4407774Y-6901571D01*
X4417298Y-6939667D01*
X4417298Y-6987286D01*
X4407774Y-7025381D01*
X4398250Y-7044428D01*
X4388726Y-7053952D01*
X4369679Y-7063476D01*
X4350631Y-7063476D01*
X4331583Y-7053952D01*
X4322060Y-7044428D01*
X4312536Y-7025381D01*
X4303012Y-6987286D01*
X4303012Y-6939667D01*
X4312536Y-6901571D01*
X4322060Y-6882524D01*
X4331583Y-6873000D01*
X4350631Y-6863476D01*
X4503012Y-7063476D02*
X4503012Y-6930143D01*
X4503012Y-6949190D02*
X4512536Y-6939667D01*
X4531583Y-6930143D01*
X4560155Y-6930143D01*
X4579202Y-6939667D01*
X4588726Y-6958714D01*
X4588726Y-7063476D01*
X4588726Y-6958714D02*
X4598250Y-6939667D01*
X4617298Y-6930143D01*
X4645869Y-6930143D01*
X4664917Y-6939667D01*
X4674440Y-6958714D01*
X4674440Y-7063476D01*
X4769679Y-7063476D02*
X4769679Y-6930143D01*
X4769679Y-6949190D02*
X4779202Y-6939667D01*
X4798250Y-6930143D01*
X4826821Y-6930143D01*
X4845869Y-6939667D01*
X4855393Y-6958714D01*
X4855393Y-7063476D01*
X4855393Y-6958714D02*
X4864917Y-6939667D01*
X4883964Y-6930143D01*
X4912536Y-6930143D01*
X4931583Y-6939667D01*
X4941107Y-6958714D01*
X4941107Y-7063476D01*
X5331583Y-6853952D02*
X5160155Y-7111095D01*
X5588726Y-6863476D02*
X5607774Y-6863476D01*
X5626821Y-6873000D01*
X5636345Y-6882524D01*
X5645869Y-6901571D01*
X5655393Y-6939667D01*
X5655393Y-6987286D01*
X5645869Y-7025381D01*
X5636345Y-7044428D01*
X5626821Y-7053952D01*
X5607774Y-7063476D01*
X5588726Y-7063476D01*
X5569679Y-7053952D01*
X5560155Y-7044428D01*
X5550631Y-7025381D01*
X5541107Y-6987286D01*
X5541107Y-6939667D01*
X5550631Y-6901571D01*
X5560155Y-6882524D01*
X5569679Y-6873000D01*
X5588726Y-6863476D01*
X5741107Y-7044428D02*
X5750631Y-7053952D01*
X5741107Y-7063476D01*
X5731583Y-7053952D01*
X5741107Y-7044428D01*
X5741107Y-7063476D01*
X5874440Y-6863476D02*
X5893488Y-6863476D01*
X5912536Y-6873000D01*
X5922059Y-6882524D01*
X5931583Y-6901571D01*
X5941107Y-6939667D01*
X5941107Y-6987286D01*
X5931583Y-7025381D01*
X5922059Y-7044428D01*
X5912536Y-7053952D01*
X5893488Y-7063476D01*
X5874440Y-7063476D01*
X5855393Y-7053952D01*
X5845869Y-7044428D01*
X5836345Y-7025381D01*
X5826821Y-6987286D01*
X5826821Y-6939667D01*
X5836345Y-6901571D01*
X5845869Y-6882524D01*
X5855393Y-6873000D01*
X5874440Y-6863476D01*
X6007774Y-6863476D02*
X6131583Y-6863476D01*
X6064917Y-6939667D01*
X6093488Y-6939667D01*
X6112536Y-6949190D01*
X6122059Y-6958714D01*
X6131583Y-6977762D01*
X6131583Y-7025381D01*
X6122059Y-7044428D01*
X6112536Y-7053952D01*
X6093488Y-7063476D01*
X6036345Y-7063476D01*
X6017298Y-7053952D01*
X6007774Y-7044428D01*
X6226821Y-7063476D02*
X6264917Y-7063476D01*
X6283964Y-7053952D01*
X6293488Y-7044428D01*
X6312536Y-7015857D01*
X6322059Y-6977762D01*
X6322059Y-6901571D01*
X6312536Y-6882524D01*
X6303012Y-6873000D01*
X6283964Y-6863476D01*
X6245869Y-6863476D01*
X6226821Y-6873000D01*
X6217298Y-6882524D01*
X6207774Y-6901571D01*
X6207774Y-6949190D01*
X6217298Y-6968238D01*
X6226821Y-6977762D01*
X6245869Y-6987286D01*
X6283964Y-6987286D01*
X6303012Y-6977762D01*
X6312536Y-6968238D01*
X6322059Y-6949190D01*
X6493488Y-6930143D02*
X6493488Y-7063476D01*
X6445869Y-6853952D02*
X6398250Y-6996809D01*
X6522059Y-6996809D01*
X6588726Y-6863476D02*
X6588726Y-6901571D01*
X6664917Y-6863476D02*
X6664917Y-6901571D01*
X6960155Y-7139667D02*
X6950631Y-7130143D01*
X6931583Y-7101571D01*
X6922059Y-7082524D01*
X6912536Y-7053952D01*
X6903012Y-7006333D01*
X6903012Y-6968238D01*
X6912536Y-6920619D01*
X6922059Y-6892048D01*
X6931583Y-6873000D01*
X6950631Y-6844428D01*
X6960155Y-6834905D01*
X7045869Y-7063476D02*
X7083964Y-7063476D01*
X7103012Y-7053952D01*
X7112536Y-7044428D01*
X7131583Y-7015857D01*
X7141107Y-6977762D01*
X7141107Y-6901571D01*
X7131583Y-6882524D01*
X7122059Y-6873000D01*
X7103012Y-6863476D01*
X7064917Y-6863476D01*
X7045869Y-6873000D01*
X7036345Y-6882524D01*
X7026821Y-6901571D01*
X7026821Y-6949190D01*
X7036345Y-6968238D01*
X7045869Y-6977762D01*
X7064917Y-6987286D01*
X7103012Y-6987286D01*
X7122059Y-6977762D01*
X7131583Y-6968238D01*
X7141107Y-6949190D01*
X7379202Y-7063476D02*
X7379202Y-6863476D01*
X7464917Y-7063476D02*
X7464917Y-6958714D01*
X7455393Y-6939667D01*
X7436345Y-6930143D01*
X7407774Y-6930143D01*
X7388726Y-6939667D01*
X7379202Y-6949190D01*
X7588726Y-7063476D02*
X7569678Y-7053952D01*
X7560155Y-7044428D01*
X7550631Y-7025381D01*
X7550631Y-6968238D01*
X7560155Y-6949190D01*
X7569678Y-6939667D01*
X7588726Y-6930143D01*
X7617298Y-6930143D01*
X7636345Y-6939667D01*
X7645869Y-6949190D01*
X7655393Y-6968238D01*
X7655393Y-7025381D01*
X7645869Y-7044428D01*
X7636345Y-7053952D01*
X7617298Y-7063476D01*
X7588726Y-7063476D01*
X7769678Y-7063476D02*
X7750631Y-7053952D01*
X7741107Y-7034905D01*
X7741107Y-6863476D01*
X7922059Y-7053952D02*
X7903012Y-7063476D01*
X7864917Y-7063476D01*
X7845869Y-7053952D01*
X7836345Y-7034905D01*
X7836345Y-6958714D01*
X7845869Y-6939667D01*
X7864917Y-6930143D01*
X7903012Y-6930143D01*
X7922059Y-6939667D01*
X7931583Y-6958714D01*
X7931583Y-6977762D01*
X7836345Y-6996809D01*
X8007774Y-7053952D02*
X8026821Y-7063476D01*
X8064917Y-7063476D01*
X8083964Y-7053952D01*
X8093488Y-7034905D01*
X8093488Y-7025381D01*
X8083964Y-7006333D01*
X8064917Y-6996809D01*
X8036345Y-6996809D01*
X8017298Y-6987286D01*
X8007774Y-6968238D01*
X8007774Y-6958714D01*
X8017298Y-6939667D01*
X8036345Y-6930143D01*
X8064917Y-6930143D01*
X8083964Y-6939667D01*
X8331583Y-6987286D02*
X8483964Y-6987286D01*
X8407774Y-7063476D02*
X8407774Y-6911095D01*
X8712536Y-6863476D02*
X8836345Y-6863476D01*
X8769679Y-6939667D01*
X8798250Y-6939667D01*
X8817298Y-6949190D01*
X8826821Y-6958714D01*
X8836345Y-6977762D01*
X8836345Y-7025381D01*
X8826821Y-7044428D01*
X8817298Y-7053952D01*
X8798250Y-7063476D01*
X8741107Y-7063476D01*
X8722060Y-7053952D01*
X8712536Y-7044428D01*
X9064917Y-7053952D02*
X9083964Y-7063476D01*
X9122060Y-7063476D01*
X9141107Y-7053952D01*
X9150631Y-7034905D01*
X9150631Y-7025381D01*
X9141107Y-7006333D01*
X9122060Y-6996809D01*
X9093488Y-6996809D01*
X9074440Y-6987286D01*
X9064917Y-6968238D01*
X9064917Y-6958714D01*
X9074440Y-6939667D01*
X9093488Y-6930143D01*
X9122060Y-6930143D01*
X9141107Y-6939667D01*
X9264917Y-7063476D02*
X9245869Y-7053952D01*
X9236345Y-7034905D01*
X9236345Y-6863476D01*
X9369679Y-7063476D02*
X9350631Y-7053952D01*
X9341107Y-7044428D01*
X9331583Y-7025381D01*
X9331583Y-6968238D01*
X9341107Y-6949190D01*
X9350631Y-6939667D01*
X9369679Y-6930143D01*
X9398250Y-6930143D01*
X9417298Y-6939667D01*
X9426821Y-6949190D01*
X9436345Y-6968238D01*
X9436345Y-7025381D01*
X9426821Y-7044428D01*
X9417298Y-7053952D01*
X9398250Y-7063476D01*
X9369679Y-7063476D01*
X9493488Y-6930143D02*
X9569679Y-6930143D01*
X9522060Y-6863476D02*
X9522060Y-7034905D01*
X9531583Y-7053952D01*
X9550631Y-7063476D01*
X9569679Y-7063476D01*
X9626821Y-7053952D02*
X9645869Y-7063476D01*
X9683964Y-7063476D01*
X9703012Y-7053952D01*
X9712536Y-7034905D01*
X9712536Y-7025381D01*
X9703012Y-7006333D01*
X9683964Y-6996809D01*
X9655393Y-6996809D01*
X9636345Y-6987286D01*
X9626821Y-6968238D01*
X9626821Y-6958714D01*
X9636345Y-6939667D01*
X9655393Y-6930143D01*
X9683964Y-6930143D01*
X9703012Y-6939667D01*
X9779202Y-7139667D02*
X9788726Y-7130143D01*
X9807774Y-7101571D01*
X9817298Y-7082524D01*
X9826821Y-7053952D01*
X9836345Y-7006333D01*
X9836345Y-6968238D01*
X9826821Y-6920619D01*
X9817298Y-6892048D01*
X9807774Y-6873000D01*
X9788726Y-6844428D01*
X9779202Y-6834905D01*
M02*
