M48
; DRILL file {KiCad 6.0.7} date Wed 21 Sep 2022 09:47:24 PM CDT
; FORMAT={-:-/ absolute / metric / decimal}
; #@! TF.CreationDate,2022-09-21T21:47:24-05:00
; #@! TF.GenerationSoftware,Kicad,Pcbnew,6.0.7
; #@! TF.FileFunction,Plated,1,2,PTH
FMAT,2
METRIC
; #@! TA.AperFunction,Plated,PTH,ViaDrill
T1C0.400
; #@! TA.AperFunction,Plated,PTH,ComponentDrill
T2C0.800
; #@! TA.AperFunction,Plated,PTH,ComponentDrill
T3C1.000
%
G90
G05
T1
X36.733Y-53.0
X36.932Y-35.0
X38.233Y-37.8
X38.733Y-40.099
X39.2Y-54.5
X39.332Y-52.0
X40.532Y-33.899
X41.932Y-34.8
X42.832Y-54.5
X43.432Y-37.8
X44.435Y-35.502
X44.714Y-51.998
X46.932Y-36.2
X47.1Y-52.8
X49.2Y-51.1
X49.232Y-35.9
X49.5Y-38.7
X50.1Y-42.3
X50.7Y-54.1
X50.845Y-50.474
X52.133Y-34.8
X53.0Y-42.3
X54.732Y-53.6
X61.5Y-34.6
X61.5Y-37.075
X62.8Y-40.0
X62.8Y-41.7
X63.832Y-35.0
X74.5Y-35.0
X74.5Y-40.4
X77.432Y-40.4
T2
X67.132Y-40.8
X67.132Y-47.6
X69.932Y-40.8
X69.932Y-42.9
X69.932Y-45.5
X69.932Y-47.6
T3
X44.112Y-32.0
X46.652Y-32.0
X49.192Y-32.0
X51.732Y-32.0
X65.772Y-32.575
X68.312Y-32.575
X70.852Y-32.575
X73.392Y-32.575
X75.932Y-32.575
T3
X73.532Y-37.35G85X72.032Y-37.35
G05
X73.532Y-51.05G85X72.032Y-51.05
G05
X73.582Y-43.2G85X73.582Y-45.2
G05
T0
M30
